<svg width="219" height="219" viewBox="0 0 219 219" fill="none" xmlns="http://www.w3.org/2000/svg">
<g opacity="0.4">
<circle opacity="0.5" cx="109.5" cy="109.367" r="109.367" fill="#70C4FF"/>
<circle opacity="0.5" cx="109.371" cy="109.236" r="90.9024" fill="#70C4FF"/>
</g>
<circle opacity="0.4" cx="109.37" cy="109.236" r="74.0969" fill="white"/>
<circle opacity="0.5" cx="109.37" cy="109.236" r="60.347" fill="white"/>
<circle opacity="0.9" cx="110.508" cy="108.854" r="47.7429" fill="white"/>
<path fill-rule="evenodd" clip-rule="evenodd" d="M88.5 92C88.5 86.4305 90.7125 81.089 94.6508 77.1508C98.589 73.2125 103.93 71 109.5 71C115.07 71 120.411 73.2125 124.349 77.1508C128.288 81.089 130.5 86.4305 130.5 92H134C135.857 92 137.637 92.7375 138.95 94.0503C140.263 95.363 141 97.1435 141 99V134C141 135.857 140.263 137.637 138.95 138.95C137.637 140.262 135.857 141 134 141H85C83.1435 141 81.363 140.262 80.0503 138.95C78.7375 137.637 78 135.857 78 134V99C78 97.1435 78.7375 95.363 80.0503 94.0503C81.363 92.7375 83.1435 92 85 92H88.5ZM109.5 78C113.213 78 116.774 79.475 119.399 82.1005C122.025 84.726 123.5 88.287 123.5 92H95.5C95.5 88.287 96.975 84.726 99.6005 82.1005C102.226 79.475 105.787 78 109.5 78ZM116.5 113C116.5 114.229 116.177 115.436 115.562 116.5C114.948 117.564 114.064 118.448 113 119.062V123.5C113 124.428 112.631 125.319 111.975 125.975C111.318 126.631 110.428 127 109.5 127C108.572 127 107.682 126.631 107.025 125.975C106.369 125.319 106 124.428 106 123.5V119.062C104.666 118.291 103.623 117.102 103.033 115.679C102.443 114.255 102.34 112.677 102.739 111.188C103.138 109.7 104.016 108.385 105.239 107.447C106.461 106.509 107.959 106 109.5 106C111.357 106 113.137 106.737 114.45 108.05C115.763 109.363 116.5 111.143 116.5 113Z" fill="#1A7DF3"/>
</svg>
