<svg width="50" height="49" viewBox="0 0 50 49" fill="none" xmlns="http://www.w3.org/2000/svg">
<rect x="0.5" width="49" height="49" rx="7" fill="#F1EEFF"/>
<path d="M17.4375 15.375C16.8905 15.375 16.3659 15.5923 15.9791 15.9791C15.5923 16.3659 15.375 16.8905 15.375 17.4375V18.8125H18.125C18.3073 18.8125 18.4822 18.7401 18.6111 18.6111C18.7401 18.4822 18.8125 18.3073 18.8125 18.125V15.375H17.4375ZM20.1875 15.375V18.125C20.1875 18.3073 20.2599 18.4822 20.3889 18.6111C20.5178 18.7401 20.6927 18.8125 20.875 18.8125H29.125C29.3073 18.8125 29.4822 18.7401 29.6111 18.6111C29.7401 18.4822 29.8125 18.3073 29.8125 18.125V15.375H20.1875ZM31.1875 15.375V18.125C31.1875 18.3073 31.2599 18.4822 31.3889 18.6111C31.5178 18.7401 31.6927 18.8125 31.875 18.8125H34.625V17.4375C34.625 16.8905 34.4077 16.3659 34.0209 15.9791C33.6341 15.5923 33.1095 15.375 32.5625 15.375H31.1875ZM34.625 20.1875H26.375C26.1927 20.1875 26.0178 20.2599 25.8889 20.3889C25.7599 20.5178 25.6875 20.6927 25.6875 20.875V23.625C25.6875 23.8073 25.7599 23.9822 25.8889 24.1111C26.0178 24.2401 26.1927 24.3125 26.375 24.3125H34.625V20.1875ZM34.625 25.6875H31.875C31.6927 25.6875 31.5178 25.7599 31.3889 25.8889C31.2599 26.0178 31.1875 26.1927 31.1875 26.375V29.125C31.1875 29.3073 31.2599 29.4822 31.3889 29.6111C31.5178 29.7401 31.6927 29.8125 31.875 29.8125H34.625V25.6875ZM34.625 31.1875H26.375C26.1927 31.1875 26.0178 31.2599 25.8889 31.3889C25.7599 31.5178 25.6875 31.6927 25.6875 31.875V34.625H32.5625C33.1095 34.625 33.6341 34.4077 34.0209 34.0209C34.4077 33.6341 34.625 33.1095 34.625 32.5625V31.1875ZM24.3125 34.625V31.875C24.3125 31.6927 24.2401 31.5178 24.1111 31.3889C23.9822 31.2599 23.8073 31.1875 23.625 31.1875H15.375V32.5625C15.375 33.1095 15.5923 33.6341 15.9791 34.0209C16.3659 34.4077 16.8905 34.625 17.4375 34.625H24.3125ZM15.375 29.8125H18.125C18.3073 29.8125 18.4822 29.7401 18.6111 29.6111C18.7401 29.4822 18.8125 29.3073 18.8125 29.125V26.375C18.8125 26.1927 18.7401 26.0178 18.6111 25.8889C18.4822 25.7599 18.3073 25.6875 18.125 25.6875H15.375V29.8125ZM15.375 24.3125H23.625C23.8073 24.3125 23.9822 24.2401 24.1111 24.1111C24.2401 23.9822 24.3125 23.8073 24.3125 23.625V20.875C24.3125 20.6927 24.2401 20.5178 24.1111 20.3889C23.9822 20.2599 23.8073 20.1875 23.625 20.1875H15.375V24.3125ZM20.1875 26.375C20.1875 26.1927 20.2599 26.0178 20.3889 25.8889C20.5178 25.7599 20.6927 25.6875 20.875 25.6875H29.125C29.3073 25.6875 29.4822 25.7599 29.6111 25.8889C29.7401 26.0178 29.8125 26.1927 29.8125 26.375V29.125C29.8125 29.3073 29.7401 29.4822 29.6111 29.6111C29.4822 29.7401 29.3073 29.8125 29.125 29.8125H20.875C20.6927 29.8125 20.5178 29.7401 20.3889 29.6111C20.2599 29.4822 20.1875 29.3073 20.1875 29.125V26.375Z" fill="#7F69E9"/>
</svg>
