<svg width="20" height="20" viewBox="0 0 20 20" fill="none" xmlns="http://www.w3.org/2000/svg">
<path opacity="0.5" fill-rule="evenodd" clip-rule="evenodd" d="M16.4057 11.7443L16.559 10.3243C16.6398 9.56592 16.694 9.06592 16.6515 8.75009C16.4745 8.74788 16.3 8.70811 16.1395 8.63341C15.9791 8.5587 15.8363 8.45077 15.7207 8.31675C15.4482 8.48425 15.0932 8.83842 14.559 9.37092C14.1465 9.78175 13.9407 9.98675 13.7107 10.0184C13.5832 10.0361 13.4534 10.018 13.3357 9.96592C13.124 9.87259 12.9823 9.61925 12.6998 9.11175L11.2082 6.43759C11.034 6.12509 10.8882 5.86259 10.7565 5.65259C10.529 5.76842 10.2723 5.83342 9.99984 5.83342C9.72734 5.83342 9.47068 5.76842 9.24318 5.65259C9.11151 5.86342 8.96568 6.12509 8.79068 6.43759L7.29984 9.11175C7.01651 9.61925 6.87484 9.87259 6.66318 9.96592C6.54549 10.018 6.41563 10.0361 6.28818 10.0184C6.05901 9.98675 5.85318 9.78175 5.44068 9.37092C4.90651 8.83842 4.55151 8.48425 4.27984 8.31675C4.16412 8.45088 4.02121 8.55887 3.86059 8.63358C3.69997 8.70828 3.52531 8.748 3.34818 8.75009C3.30568 9.06509 3.35984 9.56592 3.44068 10.3243L3.59401 11.7443L3.66818 12.4526C3.87818 14.4818 4.05151 16.1609 4.75984 16.7943C5.54818 17.5001 6.72984 17.5001 9.09318 17.5001H10.9065C13.2698 17.5001 14.4515 17.5001 15.2398 16.7943C15.9482 16.1609 16.1215 14.4818 16.3315 12.4526C16.3554 12.2209 16.3796 11.9848 16.4057 11.7443Z" fill="#0078FF"/>
<path d="M16.6666 8.75C16.9975 8.74801 17.3141 8.61493 17.547 8.37992C17.7799 8.14491 17.9101 7.82714 17.9091 7.49627C17.9081 7.1654 17.776 6.84842 17.5417 6.61481C17.3074 6.3812 16.99 6.25002 16.6591 6.25002C16.3283 6.25002 16.0109 6.3812 15.7766 6.61481C15.5423 6.84842 15.4101 7.1654 15.4092 7.49627C15.4082 7.82714 15.5384 8.14491 15.7713 8.37992C16.0042 8.61493 16.3208 8.74801 16.6516 8.75H16.6666ZM9.99998 2.5C9.55795 2.5 9.13403 2.67559 8.82147 2.98816C8.50891 3.30072 8.33331 3.72464 8.33331 4.16667C8.33331 4.60869 8.50891 5.03262 8.82147 5.34518C9.13403 5.65774 9.55795 5.83333 9.99998 5.83333C10.442 5.83333 10.8659 5.65774 11.1785 5.34518C11.4911 5.03262 11.6666 4.60869 11.6666 4.16667C11.6666 3.72464 11.4911 3.30072 11.1785 2.98816C10.8659 2.67559 10.442 2.5 9.99998 2.5ZM2.08331 7.5C2.08331 7.83152 2.21501 8.14946 2.44943 8.38388C2.68385 8.6183 3.00179 8.75 3.33331 8.75H3.34831C3.67743 8.7467 3.99191 8.61347 4.22324 8.37934C4.45457 8.1452 4.58399 7.82914 4.58331 7.5C4.58331 7.16848 4.45162 6.85054 4.2172 6.61612C3.98278 6.3817 3.66483 6.25 3.33331 6.25C3.00179 6.25 2.68385 6.3817 2.44943 6.61612C2.21501 6.85054 2.08331 7.16848 2.08331 7.5ZM4.04081 15.2083C3.95491 14.7947 3.88652 14.3777 3.83581 13.9583H16.1641C16.1058 14.4125 16.0408 14.8333 15.9591 15.2083H4.04081Z" fill="#0078FF"/>
<path opacity="0.5" fill-rule="evenodd" clip-rule="evenodd" d="M16.4057 11.7444L16.559 10.3244C16.6398 9.56604 16.694 9.06604 16.6515 8.75021C16.4745 8.748 16.3 8.70823 16.1395 8.63353C15.9791 8.55882 15.8363 8.45089 15.7207 8.31688C15.4482 8.48438 15.0932 8.83854 14.559 9.37104C14.1465 9.78188 13.9407 9.98688 13.7107 10.0185C13.5832 10.0363 13.4534 10.0181 13.3357 9.96604C13.124 9.87271 12.9823 9.61938 12.6998 9.11188L11.2082 6.43771C11.034 6.12521 10.8882 5.86271 10.7565 5.65271C10.529 5.76854 10.2723 5.83354 9.99984 5.83354C9.72734 5.83354 9.47068 5.76854 9.24318 5.65271C9.11151 5.86354 8.96568 6.12521 8.79068 6.43771L7.29984 9.11188C7.01651 9.61938 6.87484 9.87271 6.66318 9.96604C6.54549 10.0181 6.41563 10.0363 6.28818 10.0185C6.05901 9.98688 5.85318 9.78188 5.44068 9.37104C4.90651 8.83854 4.55151 8.48438 4.27984 8.31688C4.16412 8.451 4.02121 8.55899 3.86059 8.6337C3.69997 8.70841 3.52531 8.74812 3.34818 8.75021C3.30568 9.06521 3.35984 9.56604 3.44068 10.3244L3.59401 11.7444L3.66818 12.4527C3.87818 14.4819 4.05151 16.161 4.75984 16.7944C5.54818 17.5002 6.72984 17.5002 9.09318 17.5002H10.9065C13.2698 17.5002 14.4515 17.5002 15.2398 16.7944C15.9482 16.161 16.1215 14.4819 16.3315 12.4527C16.3554 12.221 16.3796 11.9849 16.4057 11.7444Z" fill="#0078FF"/>
</svg>
