<svg width="40" height="41" viewBox="0 0 40 41" fill="none" xmlns="http://www.w3.org/2000/svg">
<rect y="0.388611" width="40" height="40" rx="20" fill="#E5F1FF"/>
<path d="M20 10.3886C25.523 10.3886 30 14.8656 30 20.3886C30 25.9116 25.523 30.3886 20 30.3886C14.477 30.3886 10 25.9116 10 20.3886C10 14.8656 14.477 10.3886 20 10.3886ZM20 14.3886C19.7348 14.3886 19.4804 14.494 19.2929 14.6815C19.1054 14.869 19 15.1234 19 15.3886V20.3886C19.0001 20.6538 19.1055 20.9081 19.293 21.0956L22.293 24.0956C22.4816 24.2778 22.7342 24.3786 22.9964 24.3763C23.2586 24.374 23.5094 24.2688 23.6948 24.0834C23.8802 23.898 23.9854 23.6472 23.9877 23.385C23.99 23.1228 23.8892 22.8702 23.707 22.6816L21 19.9746V15.3886C21 15.1234 20.8946 14.869 20.7071 14.6815C20.5196 14.494 20.2652 14.3886 20 14.3886Z" fill="#0078FF"/>
</svg>
