<svg width="355" height="49" viewBox="0 0 355 49" fill="none" xmlns="http://www.w3.org/2000/svg">
<g clip-path="url(#clip0_9671_2444)">
<rect width="356" height="49" rx="5" fill="#0078FF"/>
<g opacity="0.5">
<g opacity="0.6">
<g opacity="0.5">
<path d="M196.599 -37.8275C166.398 -63.4067 162.651 -108.626 188.23 -138.827C213.809 -169.029 259.028 -172.776 289.23 -147.197L464.899 1.58791L393.574 85.802C381.807 99.6946 361.007 101.418 347.114 89.6518L196.599 -37.8275Z" fill="white"/>
<path d="M520.865 -65.5161C546.352 -95.7951 542.468 -141.003 512.189 -166.49C481.91 -191.977 436.702 -188.093 411.215 -157.814L262.965 18.3073L347.396 89.3765C361.324 101.101 382.119 99.3139 393.844 85.3856L520.865 -65.5161Z" fill="white"/>
</g>
</g>
</g>
<g opacity="0.5">
<g opacity="0.6">
<g opacity="0.5">
<path d="M176.71 -13.9587C146.509 -39.538 142.762 -84.7571 168.341 -114.959C193.92 -145.16 239.139 -148.907 269.34 -123.328L445.01 25.4567L373.685 109.671C361.918 123.563 341.118 125.287 327.225 113.521L176.71 -13.9587Z" fill="white"/>
<path d="M500.976 -41.6472C526.463 -71.9262 522.579 -117.134 492.3 -142.621C462.021 -168.108 416.813 -164.224 391.326 -133.945L243.076 42.1762L327.506 113.245C341.435 124.97 362.23 123.183 373.954 109.254L500.976 -41.6472Z" fill="white"/>
<circle cx="253.05" cy="-106.996" r="119.676" transform="rotate(-4.0688 253.05 -106.996)" fill="white"/>
<circle cx="408.881" cy="-118.081" r="119.676" transform="rotate(-4.0688 408.881 -118.081)" fill="white"/>
</g>
</g>
</g>
<g opacity="0.6">
<g opacity="0.5">
<path d="M156.823 9.90381C126.622 -15.6754 122.875 -60.8946 148.454 -91.096C174.033 -121.297 219.252 -125.044 249.454 -99.4652L425.124 49.3192L353.798 133.533C342.032 147.426 321.231 149.15 307.338 137.383L156.823 9.90381Z" fill="white"/>
<path d="M481.089 -17.7846C506.576 -48.0636 502.692 -93.2712 472.413 -118.759C442.134 -144.246 396.926 -140.361 371.439 -110.082L223.189 66.0387L307.62 137.108C321.548 148.832 342.343 147.045 354.068 133.117L481.089 -17.7846Z" fill="white"/>
<circle cx="233.163" cy="-83.1337" r="119.676" transform="rotate(-4.0688 233.163 -83.1337)" fill="white"/>
<circle cx="388.994" cy="-94.2185" r="119.676" transform="rotate(-4.0688 388.994 -94.2185)" fill="white"/>
</g>
</g>
</g>
<defs>
<clipPath id="clip0_9671_2444">
<rect width="355" height="49" rx="5" fill="white"/>
</clipPath>
</defs>
</svg>
