<svg width="41" height="41" viewBox="0 0 41 41" fill="none" xmlns="http://www.w3.org/2000/svg">
<rect width="40.7772" height="40.7772" rx="20.3886" fill="#E5F1FF"/>
<path fill-rule="evenodd" clip-rule="evenodd" d="M19.7402 11.1682C19.7838 11.3604 19.7892 11.5592 19.7559 11.7534C19.7227 11.9476 19.6516 12.1333 19.5465 12.3C19.4415 12.4667 19.3047 12.6111 19.1438 12.7249C18.983 12.8387 18.8013 12.9197 18.6092 12.9632C18.4245 13.0052 18.2425 13.0539 18.0632 13.1092C17.875 13.1674 17.6771 13.1879 17.4809 13.1696C17.2847 13.1514 17.0941 13.0946 16.9198 13.0026C16.7456 12.9106 16.5911 12.7852 16.4654 12.6336C16.3396 12.4819 16.2449 12.307 16.1867 12.1187C16.1285 11.9305 16.108 11.7326 16.1263 11.5364C16.1446 11.3403 16.2013 11.1496 16.2933 10.9753C16.3853 10.8011 16.5107 10.6467 16.6623 10.5209C16.814 10.3951 16.989 10.3004 17.1772 10.2422C17.4292 10.1642 17.6849 10.0959 17.9442 10.0372C18.1363 9.99361 18.3352 9.98826 18.5294 10.0215C18.7236 10.0547 18.9093 10.1259 19.076 10.2309C19.2427 10.3359 19.387 10.4728 19.5008 10.6336C19.6146 10.7944 19.6956 10.9761 19.7392 11.1682M20.8132 11.1682C20.9014 10.7804 21.1401 10.4435 21.4767 10.2315C21.8133 10.0196 22.2203 9.9501 22.6082 10.0382C27.2852 11.0972 30.7772 15.2772 30.7772 20.2772C30.7772 26.0762 26.0762 30.7772 20.2772 30.7772C15.2782 30.7772 11.0982 27.2852 10.0372 22.6092C9.94915 22.2212 10.0188 21.8141 10.2309 21.4775C10.443 21.1409 10.7802 20.9023 11.1682 20.8142C11.5562 20.7262 11.9633 20.7959 12.2999 21.008C12.6366 21.2201 12.8752 21.5572 12.9632 21.9452C13.2617 23.2518 13.9048 24.4544 14.8257 25.4282C15.7465 26.4019 16.9114 27.1111 18.1993 27.4819C19.4871 27.8528 20.8508 27.8719 22.1485 27.537C23.4462 27.2022 24.6305 26.5258 25.5781 25.5782C26.5258 24.6305 27.2022 23.4462 27.537 22.1485C27.8718 20.8509 27.8528 19.4872 27.4819 18.1993C27.111 16.9115 26.4018 15.7465 25.4281 14.8257C24.4544 13.9048 23.2517 13.2617 21.9452 12.9632C21.5573 12.875 21.2204 12.6363 21.0085 12.2997C20.7966 11.9631 20.7271 11.5561 20.8152 11.1682M15.2572 12.6582C15.5274 12.9499 15.6708 13.337 15.6558 13.7343C15.6408 14.1316 15.4687 14.5068 15.1772 14.7772C15.0392 14.9058 14.9058 15.0392 14.7772 15.1772C14.6433 15.3217 14.4822 15.4383 14.3031 15.5205C14.1241 15.6027 13.9306 15.6489 13.7338 15.6563C13.5369 15.6637 13.3405 15.6323 13.1558 15.5638C12.9711 15.4954 12.8017 15.3912 12.6572 15.2572C12.5127 15.1233 12.3961 14.9622 12.3139 14.7832C12.2317 14.6041 12.1856 14.4107 12.1781 14.2138C12.1707 14.0169 12.2021 13.8205 12.2706 13.6358C12.3391 13.4511 12.4433 13.2817 12.5772 13.1372C12.7572 12.9439 12.9439 12.7572 13.1372 12.5772C13.2816 12.4433 13.4511 12.3391 13.6358 12.2706C13.8205 12.2021 14.0169 12.1707 14.2138 12.1781C14.4106 12.1855 14.6041 12.2317 14.7831 12.3139C14.9622 12.3961 15.1233 12.5138 15.2572 12.6582ZM20.2772 13.7772C20.675 13.7772 21.0566 13.9353 21.3379 14.2166C21.6192 14.4979 21.7772 14.8794 21.7772 15.2772V19.6562L24.3372 22.2162C24.4805 22.3545 24.5949 22.52 24.6736 22.703C24.7523 22.8859 24.7937 23.0828 24.7956 23.2819C24.7974 23.4811 24.7595 23.6786 24.6842 23.863C24.6089 24.0474 24.4976 24.2149 24.3568 24.3558C24.216 24.4967 24.0486 24.6082 23.8643 24.6837C23.68 24.7592 23.4825 24.7972 23.2833 24.7956C23.0841 24.794 22.8873 24.7527 22.7043 24.6742C22.5212 24.5956 22.3556 24.4814 22.2172 24.3382L19.2172 21.3382C19.0778 21.199 18.9671 21.0336 18.8916 20.8515C18.8161 20.6695 18.7772 20.4743 18.7772 20.2772V15.2772C18.7772 14.8794 18.9352 14.4979 19.2165 14.2166C19.4978 13.9353 19.8794 13.7772 20.2772 13.7772ZM12.1172 16.1872C12.3056 16.2452 12.4806 16.3397 12.6325 16.4654C12.7843 16.5911 12.9098 16.7455 13.0019 16.9197C13.0941 17.0939 13.151 17.2846 13.1694 17.4808C13.1878 17.677 13.1673 17.8749 13.1092 18.0632C13.0541 18.2435 13.0054 18.4256 12.9632 18.6092C12.8752 18.9972 12.6366 19.3344 12.2999 19.5465C11.9633 19.7586 11.5562 19.8283 11.1682 19.7402C10.7802 19.6522 10.443 19.4136 10.2309 19.077C10.0188 18.7403 9.94915 18.3332 10.0372 17.9452C10.0959 17.6852 10.1642 17.4296 10.2422 17.1782C10.3003 16.99 10.3949 16.815 10.5206 16.6633C10.6463 16.5116 10.8007 16.3861 10.9749 16.2941C11.1491 16.2021 11.3398 16.1453 11.5359 16.1269C11.7321 16.1086 11.93 16.1291 12.1182 16.1872" fill="#0078FF"/>
</svg>
