<svg width="20" height="19" viewBox="0 0 20 19" fill="none" xmlns="http://www.w3.org/2000/svg">
<path fill-rule="evenodd" clip-rule="evenodd" d="M13.2569 3.16699C13.6979 3.16701 14.1301 3.28981 14.5053 3.52163C14.8804 3.75346 15.1836 4.08516 15.3809 4.47958L16.4781 6.67328C16.6713 6.59412 16.8613 6.50862 17.0481 6.41678C17.2361 6.32293 17.4536 6.30757 17.6528 6.37408C17.852 6.4406 18.0167 6.58353 18.1106 6.77145C18.2044 6.95937 18.2198 7.17687 18.1533 7.37611C18.0867 7.57535 17.9438 7.74001 17.7559 7.83387C17.5656 7.91856 17.3743 8.0009 17.1819 8.08087L17.9427 9.60324C18.1079 9.93333 18.1938 10.2974 18.1937 10.6665V12.667C18.1937 13.0011 18.1232 13.3315 17.9867 13.6366C17.8503 13.9416 17.6511 14.2144 17.402 14.4372V15.4378C17.402 15.7528 17.2769 16.0548 17.0542 16.2775C16.8315 16.5002 16.5295 16.6253 16.2145 16.6253C15.8996 16.6253 15.5975 16.5002 15.3748 16.2775C15.1521 16.0548 15.027 15.7528 15.027 15.4378V15.042H5.52702V15.4378C5.52702 15.7528 5.40191 16.0548 5.17921 16.2775C4.95651 16.5002 4.65446 16.6253 4.33952 16.6253C4.02457 16.6253 3.72253 16.5002 3.49983 16.2775C3.27713 16.0548 3.15202 15.7528 3.15202 15.4378V14.4372C2.66593 14.0017 2.36035 13.37 2.36035 12.667V10.6657C2.3605 10.2971 2.44642 9.93364 2.61131 9.60403L3.36577 8.09353C3.17471 8.01331 2.98603 7.92702 2.79973 7.83466C2.61276 7.73958 2.47064 7.57485 2.404 7.37597C2.33736 7.17708 2.35154 6.95998 2.44348 6.77145C2.48991 6.67837 2.55424 6.59536 2.63278 6.52715C2.71131 6.45895 2.80252 6.40689 2.90119 6.37395C2.99985 6.34102 3.10404 6.32785 3.2078 6.33519C3.31156 6.34254 3.41285 6.37027 3.50589 6.41678C3.69325 6.50914 3.88325 6.59464 4.07589 6.67328L5.17314 4.48037C5.37031 4.0858 5.67345 3.75394 6.04861 3.52197C6.42376 3.29 6.8561 3.16708 7.29718 3.16699H13.2569ZM6.71452 10.292C6.39957 10.292 6.09753 10.4171 5.87483 10.6398C5.65213 10.8625 5.52702 11.1645 5.52702 11.4795C5.52702 11.7944 5.65213 12.0965 5.87483 12.3192C6.09753 12.5419 6.39957 12.667 6.71452 12.667C7.02946 12.667 7.33151 12.5419 7.55421 12.3192C7.77691 12.0965 7.90202 11.7944 7.90202 11.4795C7.90202 11.1645 7.77691 10.8625 7.55421 10.6398C7.33151 10.4171 7.02946 10.292 6.71452 10.292ZM13.8395 10.292C13.5246 10.292 13.2225 10.4171 12.9998 10.6398C12.7771 10.8625 12.652 11.1645 12.652 11.4795C12.652 11.7944 12.7771 12.0965 12.9998 12.3192C13.2225 12.5419 13.5246 12.667 13.8395 12.667C14.1545 12.667 14.4565 12.5419 14.6792 12.3192C14.9019 12.0965 15.027 11.7944 15.027 11.4795C15.027 11.1645 14.9019 10.8625 14.6792 10.6398C14.4565 10.4171 14.1545 10.292 13.8395 10.292ZM13.2569 4.75033H7.29718C7.16688 4.75031 7.03859 4.78245 6.92369 4.8439C6.80879 4.90536 6.71084 4.99423 6.63852 5.10262L6.58944 5.18812L5.58402 7.19737C6.80952 7.5647 8.46094 7.91699 10.277 7.91699C11.9728 7.91699 13.5236 7.60983 14.7183 7.2702L14.9692 7.19737L13.9646 5.18812C13.9063 5.0716 13.8202 4.97125 13.7139 4.89599C13.6075 4.82073 13.4843 4.77287 13.355 4.75666L13.2576 4.75033H13.2569Z" fill="#0078FF"/>
</svg>
