<svg width="94" height="94" viewBox="0 0 94 94" fill="none" xmlns="http://www.w3.org/2000/svg">
<rect width="94" height="94" rx="45.7918" fill="#0078FF"/>
<circle cx="47.0006" cy="47.0007" r="37.361" fill="#0078FF" stroke="white" stroke-width="4.17778"/>
<path fill-rule="evenodd" clip-rule="evenodd" d="M54.198 33.7567C55.1173 33.7567 56.0184 34.0127 56.8004 34.4959C57.5824 34.9792 58.2144 35.6706 58.6256 36.4927L60.9128 41.0655C61.3154 40.9005 61.7115 40.7223 62.1009 40.5308C62.4927 40.3352 62.946 40.3032 63.3614 40.4418C63.7767 40.5805 64.1199 40.8784 64.3155 41.2701C64.5112 41.6618 64.5432 42.1152 64.4045 42.5305C64.2659 42.9459 63.968 43.2891 63.5762 43.4847C63.1796 43.6613 62.7807 43.8329 62.3798 43.9996L63.9657 47.173C64.3099 47.861 64.489 48.6199 64.4888 49.3892V53.5593C64.4888 54.2559 64.3418 54.9445 64.0574 55.5804C63.7731 56.2162 63.3578 56.7849 62.8386 57.2492V59.3351C62.8386 59.9916 62.5778 60.6212 62.1136 61.0854C61.6494 61.5496 61.0198 61.8104 60.3633 61.8104C59.7068 61.8104 59.0772 61.5496 58.6129 61.0854C58.1487 60.6212 57.8879 59.9916 57.8879 59.3351V58.51H38.0853V59.3351C38.0853 59.9916 37.8245 60.6212 37.3603 61.0854C36.896 61.5496 36.2664 61.8104 35.6099 61.8104C34.9534 61.8104 34.3238 61.5496 33.8596 61.0854C33.3954 60.6212 33.1346 59.9916 33.1346 59.3351V57.2492C32.1214 56.3416 31.4844 55.0247 31.4844 53.5593V49.3876C31.4847 48.6193 31.6638 47.8617 32.0075 47.1746L33.5802 44.026C33.1819 43.8588 32.7886 43.6789 32.4002 43.4864C32.0105 43.2882 31.7143 42.9448 31.5754 42.5302C31.4364 42.1157 31.466 41.6631 31.6576 41.2701C31.7544 41.0761 31.8885 40.9031 32.0522 40.7609C32.216 40.6187 32.4061 40.5102 32.6117 40.4416C32.8174 40.3729 33.0346 40.3454 33.2509 40.3608C33.4672 40.3761 33.6783 40.4339 33.8722 40.5308C34.2628 40.7234 34.6589 40.9016 35.0604 41.0655L37.3476 36.4944C37.7586 35.6719 38.3905 34.9802 39.1725 34.4966C39.9545 34.0131 40.8557 33.7569 41.7752 33.7567H54.198ZM40.5606 48.6087C39.9041 48.6087 39.2745 48.8695 38.8103 49.3337C38.3461 49.7979 38.0853 50.4275 38.0853 51.084C38.0853 51.7405 38.3461 52.3701 38.8103 52.8343C39.2745 53.2985 39.9041 53.5593 40.5606 53.5593C41.2171 53.5593 41.8467 53.2985 42.3109 52.8343C42.7751 52.3701 43.0359 51.7405 43.0359 51.084C43.0359 50.4275 42.7751 49.7979 42.3109 49.3337C41.8467 48.8695 41.2171 48.6087 40.5606 48.6087ZM55.4126 48.6087C54.7561 48.6087 54.1265 48.8695 53.6623 49.3337C53.1981 49.7979 52.9373 50.4275 52.9373 51.084C52.9373 51.7405 53.1981 52.3701 53.6623 52.8343C54.1265 53.2985 54.7561 53.5593 55.4126 53.5593C56.0691 53.5593 56.6987 53.2985 57.1629 52.8343C57.6271 52.3701 57.8879 51.7405 57.8879 51.084C57.8879 50.4275 57.6271 49.7979 57.1629 49.3337C56.6987 48.8695 56.0691 48.6087 55.4126 48.6087ZM54.198 37.0571H41.7752C41.5035 37.0571 41.2361 37.1241 40.9966 37.2522C40.7571 37.3803 40.5529 37.5655 40.4022 37.7915L40.2999 37.9697L38.2041 42.1579C40.7586 42.9237 44.201 43.658 47.9866 43.658C51.5214 43.658 54.7542 43.0177 57.2443 42.3098L57.7675 42.1579L55.6733 37.9697C55.5519 37.7268 55.3724 37.5176 55.1507 37.3607C54.9291 37.2039 54.6721 37.1041 54.4027 37.0703L54.1997 37.0571H54.198Z" fill="white"/>
</svg>
