<svg width="50" height="49" viewBox="0 0 50 49" fill="none" xmlns="http://www.w3.org/2000/svg">
<rect x="0.5" width="49" height="49" rx="7" fill="#FEEFE8"/>
<path d="M18.0321 23.8313L20.1321 27.4748L17.4756 30.8138L13.8006 24.4508L18.0321 23.8313ZM29.5506 30.0998V27.2543C30.4746 26.8448 31.1256 25.9313 31.1256 24.8498C31.1256 24.2513 30.9156 23.6948 30.5691 23.2748L32.6376 22.0673C33.6981 21.4478 34.0656 20.0933 33.4461 19.0328L31.9971 16.5128C31.7017 16.0036 31.2169 15.6317 30.6485 15.4783C30.0801 15.3249 29.4741 15.4024 28.9626 15.6938L20.4261 20.6498C19.4286 21.2063 19.0821 22.4873 19.6596 23.4953L21.2346 26.2253C21.8121 27.2228 23.1036 27.5693 24.1011 26.9918L26.0751 25.8578C26.3376 26.4773 26.8311 26.9813 27.4506 27.2543V30.0998C27.4506 31.2548 28.3956 32.1998 29.5506 32.1998H34.8006V30.0998H29.5506Z" fill="#F37648"/>
</svg>
