<svg width="18" height="18" viewBox="0 0 18 18" fill="none" xmlns="http://www.w3.org/2000/svg">
<path d="M9.00008 16.0833C12.9121 16.0833 16.0834 12.912 16.0834 9C16.0834 5.08799 12.9121 1.91667 9.00008 1.91667C5.08806 1.91667 1.91675 5.08799 1.91675 9C1.91675 12.912 5.08806 16.0833 9.00008 16.0833Z" fill="#0078FF"/>
<path d="M6.87508 12.5417V5.45834H9.70841C10.272 5.45834 10.8125 5.68222 11.211 6.08074C11.6095 6.47925 11.8334 7.01975 11.8334 7.58334C11.8334 8.14692 11.6095 8.68743 11.211 9.08594C10.8125 9.48446 10.272 9.70834 9.70841 9.70834H6.87508" fill="#0078FF"/>
<path d="M6.87508 12.5417V5.45834H9.70841C10.272 5.45834 10.8125 5.68222 11.211 6.08074C11.6095 6.47925 11.8334 7.01975 11.8334 7.58334C11.8334 8.14692 11.6095 8.68743 11.211 9.08594C10.8125 9.48446 10.272 9.70834 9.70841 9.70834H6.87508M16.0834 9C16.0834 12.912 12.9121 16.0833 9.00008 16.0833C5.08806 16.0833 1.91675 12.912 1.91675 9C1.91675 5.08799 5.08806 1.91667 9.00008 1.91667C12.9121 1.91667 16.0834 5.08799 16.0834 9Z" stroke="white" stroke-width="1.41667" stroke-linecap="round" stroke-linejoin="round"/>
</svg>
