<svg width="17" height="18" viewBox="0 0 17 18" fill="none" xmlns="http://www.w3.org/2000/svg">
<path d="M8.49996 16.0834C12.412 16.0834 15.5833 12.9121 15.5833 9.00008C15.5833 5.08806 12.412 1.91675 8.49996 1.91675C4.58794 1.91675 1.41663 5.08806 1.41663 9.00008C1.41663 12.9121 4.58794 16.0834 8.49996 16.0834Z" fill="#D52525"/>
<path d="M8.49996 4.75008V9.00008L11.3333 7.58341" fill="#D52525"/>
<path d="M8.49996 4.75008V9.00008L11.3333 7.58341M15.5833 9.00008C15.5833 12.9121 12.412 16.0834 8.49996 16.0834C4.58794 16.0834 1.41663 12.9121 1.41663 9.00008C1.41663 5.08806 4.58794 1.91675 8.49996 1.91675C12.412 1.91675 15.5833 5.08806 15.5833 9.00008Z" stroke="white" stroke-width="1.41667" stroke-linecap="round" stroke-linejoin="round"/>
</svg>
