<svg width="18" height="17" viewBox="0 0 18 17" fill="none" xmlns="http://www.w3.org/2000/svg">
<g clip-path="url(#clip0_9844_5449)">
<path d="M9.38888 15.5837C13.3009 15.5837 16.4722 12.4123 16.4722 8.50033C16.4722 4.58831 13.3009 1.41699 9.38888 1.41699C5.47686 1.41699 2.30554 4.58831 2.30554 8.50033C2.30554 12.4123 5.47686 15.5837 9.38888 15.5837Z" fill="#0078FF"/>
<path d="M9.38888 4.25033V8.50033L12.2222 7.08366" fill="#0078FF"/>
<path d="M9.38888 4.25033V8.50033L12.2222 7.08366M16.4722 8.50033C16.4722 12.4123 13.3009 15.5837 9.38888 15.5837C5.47686 15.5837 2.30554 12.4123 2.30554 8.50033C2.30554 4.58831 5.47686 1.41699 9.38888 1.41699C13.3009 1.41699 16.4722 4.58831 16.4722 8.50033Z" stroke="white" stroke-width="1.41667" stroke-linecap="round" stroke-linejoin="round"/>
</g>
<defs>
<clipPath id="clip0_9844_5449">
<rect width="17" height="17" fill="white" transform="translate(0.888874)"/>
</clipPath>
</defs>
</svg>
