<svg width="94" height="94" viewBox="0 0 94 94" fill="none" xmlns="http://www.w3.org/2000/svg">
<rect width="94" height="94" rx="45.7919" fill="#30D48F"/>
<circle cx="47.0006" cy="47.0001" r="37.361" fill="#30D48F" stroke="white" stroke-width="4.17778"/>
<path d="M55.6766 30.463C55.6766 30.0244 55.8508 29.6038 56.161 29.2937C56.4711 28.9836 56.8917 28.8093 57.3303 28.8093H63.5317C63.9703 28.8093 64.3909 28.9836 64.701 29.2937C65.0112 29.6038 65.1854 30.0244 65.1854 30.463V38.7315C65.1854 39.1701 65.0112 39.5908 64.701 39.9009C64.3909 40.211 63.9703 40.3853 63.5317 40.3853H61.878V63.9505C61.878 64.2795 61.7473 64.5949 61.5147 64.8275C61.2821 65.0601 60.9667 65.1908 60.6377 65.1908C60.3088 65.1908 59.9933 65.0601 59.7607 64.8275C59.5281 64.5949 59.3974 64.2795 59.3974 63.9505V40.3853H57.3303C56.8917 40.3853 56.4711 40.211 56.161 39.9009C55.8508 39.5908 55.6766 39.1701 55.6766 38.7315V30.463ZM53.2787 32.1167C53.5301 32.1167 53.7782 32.1338 54.0229 32.168V34.6965C53.78 34.6327 53.5299 34.5999 53.2787 34.5989H40.7122C40.0667 34.5989 39.4396 34.8147 38.9308 35.212C38.422 35.6094 38.0607 36.1654 37.9043 36.7918L36.5945 42.039H57.7437V57.7491H56.0884L56.09 59.8113C56.09 60.0395 56.2752 60.2247 56.5035 60.2247H57.7437V62.7053H56.5035C55.7359 62.7053 54.9998 62.4004 54.4571 61.8577C53.9144 61.3149 53.6095 60.5788 53.6095 59.8113L53.6078 57.7491H40.3865V59.8113C40.3865 60.5788 40.0816 61.3149 39.5388 61.8577C38.9961 62.4004 38.26 62.7053 37.4925 62.7053H35.0053C34.2378 62.7053 33.5017 62.4004 32.959 61.8577C32.4162 61.3149 32.1113 60.5788 32.1113 59.8113V45.7598C32.1113 44.412 32.8274 43.2313 33.9006 42.5797L34.243 41.2121H33.3516C33.0519 41.2121 32.7623 41.1036 32.5364 40.9066C32.3106 40.7096 32.1637 40.4374 32.1229 40.1405L32.1113 39.9718C32.1113 39.6721 32.2199 39.3825 32.4169 39.1567C32.6139 38.9308 32.886 38.7839 33.1829 38.7431L33.3516 38.7315H34.8614L35.4998 36.1882C35.7904 35.0253 36.4614 33.9929 37.4062 33.2552C38.351 32.5175 39.5152 32.1167 40.7139 32.1167H53.2787ZM37.9043 57.7491H34.5902L34.5919 59.8113C34.5919 60.0395 34.7771 60.2247 35.0053 60.2247H37.4925C37.6021 60.2247 37.7073 60.1812 37.7848 60.1036C37.8623 60.0261 37.9059 59.921 37.9059 59.8113L37.9043 57.7491ZM49.8886 50.3075H44.0974L43.9287 50.319C43.6318 50.3599 43.3598 50.5068 43.1629 50.7327C42.966 50.9586 42.8575 51.2481 42.8575 51.5478C42.8575 51.8474 42.966 52.1369 43.1629 52.3628C43.3598 52.5887 43.6318 52.7356 43.9287 52.7765L44.0974 52.788H49.8886L50.0557 52.7765C50.3667 52.7337 50.6499 52.5745 50.8482 52.3311C51.0465 52.0877 51.1451 51.7781 51.1242 51.4649C51.1032 51.1516 50.9642 50.858 50.7352 50.6432C50.5062 50.4284 50.2043 50.3084 49.8903 50.3075M55.2632 47.0001C54.8246 47.0001 54.404 47.1743 54.0938 47.4844C53.7837 47.7946 53.6095 48.2152 53.6095 48.6538C53.6095 49.0924 53.7837 49.513 54.0938 49.8231C54.404 50.1332 54.8246 50.3075 55.2632 50.3075C55.7018 50.3075 56.1224 50.1332 56.4325 49.8231C56.7427 49.513 56.9169 49.0924 56.9169 48.6538C56.9169 48.2152 56.7427 47.7946 56.4325 47.4844C56.1224 47.1743 55.7018 47.0001 55.2632 47.0001ZM38.7261 47.0001C38.2876 47.0001 37.8669 47.1743 37.5568 47.4844C37.2467 47.7946 37.0724 48.2152 37.0724 48.6538C37.0724 49.0924 37.2467 49.513 37.5568 49.8231C37.8669 50.1332 38.2876 50.3075 38.7261 50.3075C39.1647 50.3075 39.5854 50.1332 39.8955 49.8231C40.2056 49.513 40.3798 49.0924 40.3798 48.6538C40.3798 48.2152 40.2056 47.7946 39.8955 47.4844C39.5854 47.1743 39.1647 47.0001 38.7261 47.0001Z" fill="white"/>
</svg>
