<svg width="50" height="49" viewBox="0 0 50 49" fill="none" xmlns="http://www.w3.org/2000/svg">
<rect x="0.5" width="49" height="49" rx="7" fill="#D9D9D9"/>
<rect width="22" height="22" transform="translate(14.5 13)" fill="#D9D9D9"/>
<path d="M21.9085 14.7626C20.2125 14.7777 18.5248 15.0192 16.9786 15.3997C17.4123 16.0556 18.1461 16.5577 18.9938 16.8978C20.01 17.3055 21.1731 17.4707 22.0428 17.4263C22.9376 17.3805 24.0952 17.017 24.9975 16.5236C25.4487 16.2769 25.8372 15.9974 26.0997 15.7287C26.2389 15.5861 26.3368 15.45 26.4001 15.3284C25.0734 14.9512 23.6631 14.7756 22.2478 14.7626C22.1347 14.7616 22.0216 14.7616 21.9085 14.7626ZM26.7013 16.2183C26.6853 16.2353 26.6694 16.2523 26.6529 16.2691C26.314 16.6161 25.8696 16.9283 25.3686 17.2022C24.3669 17.7501 23.1441 18.1444 22.0822 18.1987C21.0842 18.2497 19.8411 18.0712 18.7057 17.6157C17.9283 17.3037 17.1937 16.8572 16.6535 16.2461C15.9524 21.8885 15.3304 28.1752 16.2184 33.3247C17.0605 33.5895 17.9798 33.7899 18.9258 33.9241V31.1758H21.6758V28.4258H26.4005C26.3995 28.2963 26.407 28.1553 26.4214 27.9974C26.4626 27.5442 26.5596 26.9653 26.6937 26.3213C26.9261 25.2055 27.27 23.9014 27.6368 22.7913C27.4241 20.6801 27.1155 18.4568 26.7013 16.2183ZM33.2618 16.2436C33.2228 16.2437 33.1789 16.2482 33.1385 16.2495L30.6915 19.3123C31.022 19.4185 31.3187 19.6297 31.5353 19.9161L33.9101 17.0782C33.9489 16.9897 33.9503 16.7425 33.8167 16.55C33.7122 16.3994 33.5603 16.273 33.2989 16.2453C33.2873 16.2441 33.2749 16.2436 33.2618 16.2436ZM30.2752 20.0138C30.2021 20.1023 30.1404 20.1997 30.0914 20.3036C29.926 20.6585 29.8972 21.0371 29.9275 21.3611L29.9284 21.3707L30.0791 22.4195C30.0008 22.4268 29.9226 22.4352 29.8445 22.4446C29.3654 22.5032 28.8394 22.6116 28.4779 22.7283C28.0858 23.8588 27.6991 25.2872 27.4509 26.479C27.3205 27.1047 27.2282 27.6653 27.1916 28.0674C27.1801 28.1939 27.1836 28.2675 27.1829 28.3565C27.2834 28.3048 27.3998 28.2392 27.5407 28.1472C27.9564 27.8758 28.5076 27.4503 29.0931 26.9628C30.1903 26.0493 31.4008 24.9261 32.1868 24.1348C32.0586 23.8072 31.8339 23.4368 31.5873 23.1243C31.3002 22.7604 30.9647 22.4736 30.877 22.4193C30.8746 22.4196 30.8658 22.4182 30.8602 22.4176L30.6976 21.2865C30.6784 21.0755 30.7078 20.812 30.7925 20.6304C30.8344 20.5405 30.8789 20.4702 30.9411 20.4176C30.7758 20.1864 30.5233 20.0355 30.2752 20.0138ZM30.6992 26.4492V28.4258H35.4258V26.4492H30.6992ZM22.4492 29.1992V31.1758H27.1758V29.1992H22.4492ZM27.9492 29.1992V31.1758H32.6758V29.1992H27.9492ZM33.4492 29.1992V31.1758H35.4258V29.1992H33.4492ZM19.6992 31.9492V33.9258H24.4258V31.9492H19.6992ZM25.1992 31.9492V33.9258H29.9258V31.9492H25.1992ZM30.6992 31.9492V33.9258H35.4258V31.9492H30.6992Z" fill="#5F5F5F"/>
</svg>
