<svg width="50" height="49" viewBox="0 0 50 49" fill="none" xmlns="http://www.w3.org/2000/svg">
<rect x="0.5" width="49" height="49" rx="7" fill="#FCF7EE"/>
<path d="M38.4999 36.25V22.0125C38.4999 20.36 38.4999 19.5325 38.0699 18.8925C37.6399 18.2525 36.8786 17.945 35.3574 17.33L27.8574 14.305C26.9399 13.935 26.4824 13.75 25.9999 13.75C25.5174 13.75 25.0599 13.935 24.1424 14.305L16.6424 17.33C15.1211 17.945 14.3599 18.2525 13.9299 18.8925C13.4999 19.5325 13.4999 20.36 13.4999 22.0125V36.25" stroke="#E99F22" stroke-width="1.77273" stroke-linecap="round" stroke-linejoin="round"/>
<g clip-path="url(#clip0_3747_2464)">
<path fill-rule="evenodd" clip-rule="evenodd" d="M28.5729 23.6367C28.9527 23.6367 29.3251 23.7425 29.6482 23.9422C29.9713 24.1419 30.2325 24.4276 30.4024 24.7673L31.3475 26.6568C31.5138 26.5886 31.6775 26.5149 31.8384 26.4358C32.0003 26.355 32.1876 26.3418 32.3592 26.3991C32.5308 26.4563 32.6727 26.5795 32.7535 26.7413C32.8343 26.9032 32.8476 27.0905 32.7903 27.2621C32.733 27.4337 32.6099 27.5756 32.448 27.6564C32.2841 27.7293 32.1193 27.8003 31.9537 27.8691L32.6089 29.1804C32.7512 29.4647 32.8252 29.7783 32.8251 30.0962V31.8193C32.8251 32.1071 32.7644 32.3917 32.6469 32.6544C32.5294 32.9171 32.3577 33.1521 32.1432 33.344V34.2059C32.1432 34.4771 32.0355 34.7373 31.8436 34.9291C31.6518 35.1209 31.3917 35.2287 31.1204 35.2287C30.8491 35.2287 30.589 35.1209 30.3972 34.9291C30.2053 34.7373 30.0976 34.4771 30.0976 34.2059V33.8649H21.915V34.2059C21.915 34.4771 21.8073 34.7373 21.6154 34.9291C21.4236 35.1209 21.1635 35.2287 20.8922 35.2287C20.6209 35.2287 20.3608 35.1209 20.169 34.9291C19.9771 34.7373 19.8694 34.4771 19.8694 34.2059V33.344C19.4507 32.9689 19.1875 32.4248 19.1875 31.8193V30.0955C19.1876 29.778 19.2616 29.465 19.4037 29.1811L20.0535 27.8801C19.8889 27.811 19.7264 27.7366 19.5659 27.6571C19.4049 27.5752 19.2825 27.4333 19.2251 27.262C19.1677 27.0907 19.1799 26.9037 19.2591 26.7413C19.2991 26.6611 19.3545 26.5896 19.4221 26.5309C19.4898 26.4722 19.5684 26.4273 19.6533 26.3989C19.7383 26.3706 19.8281 26.3592 19.9174 26.3656C20.0068 26.3719 20.094 26.3958 20.1742 26.4358C20.3356 26.5154 20.4992 26.589 20.6651 26.6568L21.6102 24.768C21.78 24.4281 22.0411 24.1423 22.3643 23.9425C22.6874 23.7427 23.0598 23.6368 23.4397 23.6367H28.5729ZM22.9378 29.7736C22.6666 29.7736 22.4064 29.8814 22.2146 30.0732C22.0228 30.265 21.915 30.5252 21.915 30.7965C21.915 31.0677 22.0228 31.3279 22.2146 31.5197C22.4064 31.7115 22.6666 31.8193 22.9378 31.8193C23.2091 31.8193 23.4693 31.7115 23.6611 31.5197C23.8529 31.3279 23.9607 31.0677 23.9607 30.7965C23.9607 30.5252 23.8529 30.265 23.6611 30.0732C23.4693 29.8814 23.2091 29.7736 22.9378 29.7736ZM29.0748 29.7736C28.8035 29.7736 28.5433 29.8814 28.3515 30.0732C28.1597 30.265 28.0519 30.5252 28.0519 30.7965C28.0519 31.0677 28.1597 31.3279 28.3515 31.5197C28.5433 31.7115 28.8035 31.8193 29.0748 31.8193C29.346 31.8193 29.6062 31.7115 29.798 31.5197C29.9898 31.3279 30.0976 31.0677 30.0976 30.7965C30.0976 30.5252 29.9898 30.265 29.798 30.0732C29.6062 29.8814 29.346 29.7736 29.0748 29.7736ZM28.5729 25.0005H23.4397C23.3275 25.0005 23.217 25.0281 23.118 25.0811C23.019 25.134 22.9347 25.2106 22.8724 25.3039L22.8301 25.3776L21.9641 27.1082C23.0197 27.4246 24.4421 27.728 26.0063 27.728C27.4669 27.728 28.8027 27.4634 29.8316 27.1709L30.0478 27.1082L29.1825 25.3776C29.1323 25.2772 29.0581 25.1908 28.9665 25.1259C28.875 25.0611 28.7688 25.0199 28.6574 25.0059L28.5736 25.0005H28.5729Z" fill="#E99F22"/>
</g>
<defs>
<clipPath id="clip0_3747_2464">
<rect width="16.3636" height="16.3636" fill="white" transform="translate(17.8218 20.9091)"/>
</clipPath>
</defs>
</svg>
