<svg width="29" height="29" viewBox="0 0 29 29" fill="none" xmlns="http://www.w3.org/2000/svg">
<path d="M5.29175 6C4.72816 6 4.18766 6.22388 3.78915 6.6224C3.39063 7.02091 3.16675 7.56141 3.16675 8.125L3.16675 10.9583H11.6667C11.8546 10.9583 12.0348 11.033 12.1676 11.1658C12.3005 11.2986 12.3751 11.4788 12.3751 11.6667C12.3751 12.0251 12.4884 12.579 12.8086 13.0238C13.1018 13.4318 13.5977 13.7917 14.5001 13.7917C15.4025 13.7917 15.8983 13.4318 16.1916 13.0238C16.5117 12.579 16.6251 12.0251 16.6251 11.6667C16.6251 11.4788 16.6997 11.2986 16.8325 11.1658C16.9654 11.033 17.1456 10.9583 17.3334 10.9583H25.8334V8.125C25.8334 7.56141 25.6095 7.02091 25.211 6.6224C24.8125 6.22388 24.272 6 23.7084 6H5.29175Z" fill="#0078FF"/>
<path d="M25.8334 12.375H17.9695C17.867 12.9059 17.6531 13.409 17.3419 13.8512C16.7852 14.6247 15.8643 15.2083 14.5001 15.2083C13.1358 15.2083 12.215 14.6247 11.6582 13.8512C11.3471 13.409 11.1332 12.9059 11.0307 12.375H3.16675V20.875C3.16675 21.4386 3.39063 21.9791 3.78915 22.3776C4.18766 22.7761 4.72816 23 5.29175 23H23.7084C24.272 23 24.8125 22.7761 25.211 22.3776C25.6095 21.9791 25.8334 21.4386 25.8334 20.875V12.375Z" fill="#0078FF"/>
</svg>
