<svg width="29" height="29" viewBox="0 0 29 29" fill="none" xmlns="http://www.w3.org/2000/svg">
<path d="M7.25 24.1667C6.90764 24.1667 6.62086 24.0507 6.38967 23.8187C6.15847 23.5867 6.04247 23.2999 6.04167 22.9583C6.04086 22.6168 6.15686 22.33 6.38967 22.098C6.62247 21.866 6.90925 21.75 7.25 21.75H7.975L10.3615 13.8052C10.5226 13.2816 10.8198 12.8639 11.2532 12.5522C11.6866 12.2404 12.1647 12.0841 12.6875 12.0833H16.3125C16.8361 12.0833 17.3146 12.2396 17.748 12.5522C18.1814 12.8647 18.4782 13.2824 18.6385 13.8052L21.025 21.75H21.75C22.0924 21.75 22.3795 21.866 22.6115 22.098C22.8435 22.33 22.9591 22.6168 22.9583 22.9583C22.9575 23.2999 22.8415 23.5871 22.6103 23.8199C22.3791 24.0527 22.0924 24.1683 21.75 24.1667H7.25ZM13.2917 8.45834V4.83334C13.2917 4.49098 13.4077 4.2042 13.6397 3.973C13.8717 3.74181 14.1584 3.62581 14.5 3.625C14.8416 3.6242 15.1287 3.7402 15.3615 3.973C15.5943 4.20581 15.7099 4.49259 15.7083 4.83334V8.45834C15.7083 8.8007 15.5923 9.08788 15.3603 9.31988C15.1283 9.55188 14.8416 9.66748 14.5 9.66667C14.1584 9.66586 13.8717 9.54986 13.6397 9.31867C13.4077 9.08748 13.2917 8.8007 13.2917 8.45834ZM19.6354 10.0896L22.2031 7.52188C22.4247 7.30035 22.7018 7.18435 23.0345 7.17388C23.3672 7.16341 23.6539 7.27941 23.8948 7.52188C24.1163 7.74341 24.2271 8.02535 24.2271 8.36771C24.2271 8.71007 24.1163 8.99202 23.8948 9.21355L21.3271 11.8115C21.0854 12.0531 20.8035 12.174 20.4813 12.174C20.159 12.174 19.8771 12.0531 19.6354 11.8115C19.3937 11.5698 19.2729 11.283 19.2729 10.9511C19.2729 10.6192 19.3937 10.3321 19.6354 10.0896ZM22.9583 15.7083H26.5833C26.9257 15.7083 27.2129 15.8243 27.4449 16.0563C27.6769 16.2883 27.7925 16.5751 27.7917 16.9167C27.7909 17.2582 27.6749 17.5454 27.4437 17.7782C27.2125 18.011 26.9257 18.1266 26.5833 18.125H22.9583C22.616 18.125 22.3292 18.009 22.098 17.777C21.8668 17.545 21.7508 17.2582 21.75 16.9167C21.7492 16.5751 21.8652 16.2883 22.098 16.0563C22.3308 15.8243 22.6176 15.7083 22.9583 15.7083ZM7.67292 11.7813L5.10521 9.21355C4.88368 8.99202 4.76808 8.71531 4.75842 8.38342C4.74875 8.05153 4.86435 7.76435 5.10521 7.52188C5.32674 7.30035 5.60868 7.18959 5.95104 7.18959C6.2934 7.18959 6.57535 7.30035 6.79687 7.52188L9.39479 10.0896C9.63646 10.3313 9.75729 10.6132 9.75729 10.9354C9.75729 11.2576 9.63646 11.5396 9.39479 11.7813C9.15312 12.0229 8.86635 12.1438 8.53446 12.1438C8.20257 12.1438 7.91539 12.0229 7.67292 11.7813ZM2.41667 18.125C2.0743 18.125 1.78753 18.009 1.55633 17.777C1.32514 17.545 1.20914 17.2582 1.20833 16.9167C1.20753 16.5751 1.32353 16.2883 1.55633 16.0563C1.78914 15.8243 2.07592 15.7083 2.41667 15.7083H6.04167C6.38403 15.7083 6.67121 15.8243 6.90321 16.0563C7.13521 16.2883 7.2508 16.5751 7.25 16.9167C7.24919 17.2582 7.13319 17.5454 6.902 17.7782C6.6708 18.011 6.38403 18.1266 6.04167 18.125H2.41667Z" fill="#0078FF"/>
</svg>
