<svg width="24" height="24" viewBox="0 0 24 24" fill="none" xmlns="http://www.w3.org/2000/svg">
<path d="M2.25625 22.0125C1.85347 22.1736 1.4809 22.1285 1.13854 21.8772C0.796181 21.6258 0.625 21.2883 0.625 20.8646V3.94792C0.625 3.68611 0.700722 3.45451 0.852167 3.25313C1.00361 3.05174 1.20983 2.90069 1.47083 2.8L7.875 0.625L15.125 3.1625L20.7437 0.9875C21.1465 0.826389 21.5191 0.871903 21.8615 1.12404C22.2038 1.37618 22.375 1.71331 22.375 2.13542V12.3156C21.6701 11.2885 20.7893 10.4931 19.7324 9.92917C18.6755 9.36528 17.5425 9.08333 16.3333 9.08333C15.9306 9.08333 15.5278 9.11878 15.125 9.18967C14.7222 9.26056 14.3194 9.36608 13.9167 9.50625V5.27708L9.08333 3.58542V19.3844L2.25625 22.0125ZM21.8917 23.5833L18.8104 20.5021C18.4479 20.7236 18.0604 20.89 17.648 21.0011C17.2356 21.1123 16.7973 21.1675 16.3333 21.1667C15.0042 21.1667 13.8663 20.6934 12.9198 19.7469C11.9733 18.8003 11.5 17.6625 11.5 16.3333C11.5 15.0042 11.9733 13.8663 12.9198 12.9198C13.8663 11.9733 15.0042 11.5 16.3333 11.5C17.6625 11.5 18.8003 11.9733 19.7469 12.9198C20.6934 13.8663 21.1667 15.0042 21.1667 16.3333C21.1667 16.7965 21.1115 17.2347 21.0011 17.648C20.8908 18.0613 20.7244 18.4487 20.5021 18.8104L23.5833 21.8917L21.8917 23.5833ZM16.3333 18.75C17.0181 18.75 17.5872 18.5486 18.0407 18.1458C18.4942 17.7431 18.7307 17.1389 18.75 16.3333C18.7701 15.6486 18.5438 15.0747 18.0709 14.6115C17.5981 14.1483 17.0189 13.9167 16.3333 13.9167C15.6478 13.9167 15.0738 14.1483 14.6115 14.6115C14.1491 15.0747 13.9175 15.6486 13.9167 16.3333C13.9159 17.0181 14.1475 17.592 14.6115 18.0552C15.0755 18.5184 15.6494 18.75 16.3333 18.75Z" fill="#0078FF"/>
</svg>
