<svg width="26" height="26" viewBox="0 0 26 26" fill="none" xmlns="http://www.w3.org/2000/svg">
<path fill-rule="evenodd" clip-rule="evenodd" d="M5.05666 3.62857C5.45815 3.22659 6.00285 3.0005 6.57099 3L20.8571 3C21.4254 3 21.9705 3.22576 22.3724 3.62763C22.7742 4.02949 23 4.57453 23 5.14285V19.4286C23 19.9969 22.7742 20.5419 22.3724 20.9438C21.9705 21.3456 21.4254 21.5714 20.8571 21.5714H9.51678L3.88806 22.9785C3.76388 23.0097 3.6336 23.0069 3.51087 22.9704C3.38814 22.934 3.27747 22.8652 3.19043 22.7713C3.1034 22.6774 3.0432 22.5618 3.01614 22.4367C2.98908 22.3116 2.99615 22.1814 3.03661 22.06L4.42808 17.8843V5.14285C4.42808 4.57428 4.6538 4.02857 5.05666 3.62857ZM13.1883 8.18571C13.3849 8.10346 13.5974 8.06594 13.8103 8.07584C14.0232 8.08575 14.2313 8.14284 14.4194 8.243C14.6076 8.34315 14.7711 8.48385 14.8982 8.65494C15.0253 8.82603 15.1129 9.02323 15.1544 9.23227C15.196 9.44132 15.1906 9.65699 15.1386 9.86369C15.0866 10.0704 14.9894 10.263 14.8539 10.4275C14.7183 10.592 14.548 10.7243 14.355 10.815C14.1621 10.9056 13.9515 10.9522 13.7383 10.9514C13.5015 10.9514 13.2744 11.0455 13.107 11.2129C12.9395 11.3804 12.8454 11.6075 12.8454 11.8443V13.4C12.8454 13.6368 12.9395 13.8639 13.107 14.0313C13.2744 14.1988 13.5015 14.2928 13.7383 14.2928C13.9751 14.2928 14.2022 14.1988 14.3697 14.0313C14.5371 13.8639 14.6312 13.6368 14.6312 13.4V12.6128C15.2066 12.4469 15.7245 12.124 16.1266 11.6802C16.5287 11.2364 16.7993 10.6894 16.9079 10.1004C17.0164 9.51151 16.9588 8.90396 16.7413 8.34597C16.5239 7.78797 16.1553 7.3016 15.6768 6.9414C15.1984 6.5812 14.629 6.36144 14.0326 6.30675C13.4363 6.25206 12.8364 6.36462 12.3005 6.6318C11.7645 6.89897 11.3135 7.3102 10.9982 7.81934C10.6829 8.32849 10.5157 8.91541 10.5154 9.51428C10.5154 9.75108 10.6095 9.97818 10.7769 10.1456C10.9443 10.3131 11.1715 10.4071 11.4083 10.4071C11.6451 10.4071 11.8722 10.3131 12.0396 10.1456C12.2071 9.97818 12.3011 9.75108 12.3011 9.51428C12.3017 9.23007 12.3862 8.95237 12.5441 8.71601C12.7019 8.47965 12.926 8.29517 13.1883 8.18571ZM13.7383 18.1771C13.3986 18.1767 13.0729 18.0415 12.8329 17.801C12.5928 17.5606 12.4581 17.2347 12.4583 16.895C12.4585 16.5553 12.5936 16.2295 12.8339 15.9893C13.0742 15.7492 13.4 15.6143 13.7398 15.6143C14.0795 15.6143 14.4053 15.7492 14.6456 15.9893C14.8859 16.2295 15.021 16.5553 15.0212 16.895C15.0214 17.2347 14.8867 17.5606 14.6466 17.801C14.4066 18.0415 14.0809 18.1767 13.7412 18.1771H13.7383Z" fill="#0078FF"/>
</svg>
