<svg width="28" height="28" viewBox="0 0 28 28" fill="none" xmlns="http://www.w3.org/2000/svg">
<path d="M4.66659 21H6.99992V25.7612L12.9511 21H18.6666C19.9534 21 20.9999 19.9535 20.9999 18.6667V9.33333C20.9999 8.0465 19.9534 7 18.6666 7H4.66659C3.37975 7 2.33325 8.0465 2.33325 9.33333V18.6667C2.33325 19.9535 3.37975 21 4.66659 21Z" fill="#0078FF"/>
<path d="M23.3333 2.33325H9.33333C8.0465 2.33325 7 3.37975 7 4.66659H21C22.2868 4.66659 23.3333 5.71309 23.3333 6.99992V16.3333C24.6202 16.3333 25.6667 15.2868 25.6667 13.9999V4.66659C25.6667 3.37975 24.6202 2.33325 23.3333 2.33325Z" fill="#0078FF"/>
</svg>
