<svg width="28" height="28" viewBox="0 0 28 28" fill="none" xmlns="http://www.w3.org/2000/svg">
<path d="M1.8667 24.2667V3.7334H10.2667C11.5393 3.73308 12.7842 4.1044 13.8487 4.80177C14.9131 5.49914 15.7508 6.4922 16.2587 7.659C15.894 8.03895 15.5779 8.46283 15.3179 8.92086C14.8886 9.6862 14.8848 10.4833 14.9931 11.075L15.5531 14.1083C14.9468 14.9423 14.1518 15.621 13.233 16.0888C12.3142 16.5566 11.2977 16.8004 10.2667 16.8001H5.60003V24.2667H1.8667ZM10.2667 13.0667C10.6344 13.0667 10.9985 12.9943 11.3382 12.8536C11.6779 12.7129 11.9866 12.5066 12.2466 12.2466C12.5066 11.9866 12.7128 11.678 12.8536 11.3382C12.9943 10.9985 13.0667 10.6344 13.0667 10.2667C13.0667 9.89903 12.9943 9.53493 12.8536 9.19522C12.7128 8.85551 12.5066 8.54684 12.2466 8.28683C11.9866 8.02683 11.6779 7.82058 11.3382 7.67987C10.9985 7.53916 10.6344 7.46673 10.2667 7.46673H5.60003V13.0667H10.2667ZM16.8299 10.7371C16.7621 10.4317 16.8031 10.1122 16.9456 9.83367C17.388 9.04967 18.6256 7.46673 21.4667 7.46673C24.3059 7.46673 25.5454 9.0478 25.9859 9.83367C26.1297 10.1117 26.172 10.4313 26.1054 10.7371L24.3022 20.5334H22.4V24.2667H20.5334V20.5334H18.6312L16.8299 10.7371ZM23.8 13.0667L24.2667 10.5561C23.9494 10.0969 23.184 9.3334 21.4667 9.3334C19.7494 9.3334 18.984 10.0987 18.6667 10.5561L19.1334 13.0667H23.8Z" fill="#0078FF"/>
</svg>
