<svg width="28" height="28" viewBox="0 0 28 28" fill="none" xmlns="http://www.w3.org/2000/svg">
<path fill-rule="evenodd" clip-rule="evenodd" d="M18.4005 4.6665C19.0504 4.66653 19.6875 4.84749 20.2403 5.18913C20.7932 5.53078 21.24 6.01959 21.5307 6.60084L23.1477 9.83367C23.4324 9.717 23.7124 9.591 23.9877 9.45567C24.2646 9.31736 24.5852 9.29472 24.8788 9.39274C25.1724 9.49076 25.4151 9.70141 25.5534 9.97834C25.6917 10.2553 25.7143 10.5758 25.6163 10.8694C25.5183 11.163 25.3076 11.4057 25.0307 11.544C24.7503 11.6688 24.4683 11.7902 24.1849 11.908L25.306 14.1515C25.5494 14.6379 25.676 15.1744 25.6759 15.7183V18.6665C25.6759 19.1589 25.5719 19.6458 25.3709 20.0953C25.1699 20.5448 24.8762 20.9469 24.5092 21.2752V22.7498C24.5092 23.214 24.3248 23.6591 23.9966 23.9873C23.6684 24.3155 23.2233 24.4998 22.7592 24.4998C22.2951 24.4998 21.85 24.3155 21.5218 23.9873C21.1936 23.6591 21.0092 23.214 21.0092 22.7498V22.1665H7.0092V22.7498C7.0092 23.214 6.82482 23.6591 6.49663 23.9873C6.16844 24.3155 5.72333 24.4998 5.2592 24.4998C4.79507 24.4998 4.34995 24.3155 4.02176 23.9873C3.69357 23.6591 3.5092 23.214 3.5092 22.7498V21.2752C2.79286 20.6335 2.34253 19.7025 2.34253 18.6665V15.7172C2.34275 15.174 2.46936 14.6384 2.71236 14.1527L3.8242 11.9267C3.54264 11.8084 3.26459 11.6813 2.99003 11.5452C2.7145 11.4051 2.50506 11.1623 2.40685 10.8692C2.30864 10.5761 2.32954 10.2562 2.46503 9.97834C2.53346 9.84117 2.62826 9.71883 2.744 9.61832C2.85974 9.51781 2.99415 9.44109 3.13955 9.39255C3.28495 9.34401 3.4385 9.3246 3.5914 9.33543C3.74431 9.34626 3.89359 9.38712 4.0307 9.45567C4.30681 9.59178 4.58681 9.71778 4.8707 9.83367L6.4877 6.602C6.77825 6.02054 7.22499 5.53148 7.77785 5.18963C8.33071 4.84778 8.96785 4.66663 9.61786 4.6665H18.4005ZM8.7592 15.1665C8.29507 15.1665 7.84995 15.3509 7.52176 15.6791C7.19357 16.0073 7.0092 16.4524 7.0092 16.9165C7.0092 17.3806 7.19357 17.8258 7.52176 18.1539C7.84995 18.4821 8.29507 18.6665 8.7592 18.6665C9.22333 18.6665 9.66845 18.4821 9.99663 18.1539C10.3248 17.8258 10.5092 17.3806 10.5092 16.9165C10.5092 16.4524 10.3248 16.0073 9.99663 15.6791C9.66845 15.3509 9.22333 15.1665 8.7592 15.1665ZM19.2592 15.1665C18.7951 15.1665 18.3499 15.3509 18.0218 15.6791C17.6936 16.0073 17.5092 16.4524 17.5092 16.9165C17.5092 17.3806 17.6936 17.8258 18.0218 18.1539C18.3499 18.4821 18.7951 18.6665 19.2592 18.6665C19.7233 18.6665 20.1684 18.4821 20.4966 18.1539C20.8248 17.8258 21.0092 17.3806 21.0092 16.9165C21.0092 16.4524 20.8248 16.0073 20.4966 15.6791C20.1684 15.3509 19.7233 15.1665 19.2592 15.1665ZM18.4005 6.99984H9.61786C9.42584 6.99981 9.23678 7.04718 9.06745 7.13774C8.89812 7.22831 8.75377 7.35927 8.6472 7.519L8.57486 7.645L7.0932 10.606C8.8992 11.1473 11.3329 11.6665 14.0092 11.6665C16.5082 11.6665 18.7937 11.2138 20.5542 10.7133L20.924 10.606L19.4435 7.645C19.3577 7.47329 19.2308 7.32541 19.0741 7.2145C18.9173 7.10359 18.7357 7.03306 18.5452 7.00917L18.4017 6.99984H18.4005Z" fill="#0078FF"/>
</svg>
