<svg width="28" height="28" viewBox="0 0 28 28" fill="none" xmlns="http://www.w3.org/2000/svg">
<path d="M12.8334 19.8333H15.1667V12.8333H12.8334V19.8333ZM14.0001 10.4999C14.3306 10.4999 14.6079 10.3879 14.8319 10.1639C15.0559 9.93992 15.1675 9.66303 15.1667 9.33325C15.166 9.00347 15.054 8.72659 14.8307 8.50259C14.6075 8.27859 14.3306 8.16659 14.0001 8.16659C13.6695 8.16659 13.3926 8.27859 13.1694 8.50259C12.9462 8.72659 12.8342 9.00347 12.8334 9.33325C12.8326 9.66303 12.9446 9.94031 13.1694 10.1651C13.3942 10.3899 13.6711 10.5015 14.0001 10.4999ZM14.0001 25.6666C11.2973 24.986 9.06586 23.4351 7.30575 21.0139C5.54564 18.5927 4.66597 15.9047 4.66675 12.9499V5.83325L14.0001 2.33325L23.3334 5.83325V12.9499C23.3334 15.9055 22.4537 18.5939 20.6944 21.0151C18.9351 23.4363 16.7036 24.9868 14.0001 25.6666Z" fill="#0078FF"/>
</svg>
