<svg width="29" height="29" viewBox="0 0 29 29" fill="none" xmlns="http://www.w3.org/2000/svg">
<path d="M6.14584 6C5.57673 6 5.03093 6.22608 4.6285 6.6285C4.22608 7.03093 4 7.57673 4 8.14584V12.4375C4.56911 12.4375 5.11492 12.6636 5.51734 13.066C5.91976 13.4685 6.14584 14.0143 6.14584 14.5834C6.14584 15.1525 5.91976 15.6983 5.51734 16.1007C5.11492 16.5031 4.56911 16.7292 4 16.7292V21.0209C4 21.59 4.22608 22.1358 4.6285 22.5382C5.03093 22.9407 5.57673 23.1667 6.14584 23.1667H23.3126C23.8817 23.1667 24.4275 22.9407 24.8299 22.5382C25.2324 22.1358 25.4584 21.59 25.4584 21.0209V16.7292C24.8893 16.7292 24.3435 16.5031 23.9411 16.1007C23.5387 15.6983 23.3126 15.1525 23.3126 14.5834C23.3126 14.0143 23.5387 13.4685 23.9411 13.066C24.3435 12.6636 24.8893 12.4375 25.4584 12.4375V8.14584C25.4584 7.57673 25.2324 7.03093 24.8299 6.6285C24.4275 6.22608 23.8817 6 23.3126 6H6.14584ZM18.4844 9.21877L20.0938 10.8281L10.974 19.948L9.36461 18.3386L18.4844 9.21877ZM11.3066 9.26168C12.3581 9.26168 13.2057 10.1093 13.2057 11.1608C13.2057 11.6644 13.0056 12.1475 12.6494 12.5036C12.2933 12.8597 11.8103 13.0598 11.3066 13.0598C10.2551 13.0598 9.40753 12.2122 9.40753 11.1608C9.40753 10.6571 9.60761 10.1741 9.96375 9.81791C10.3199 9.46176 10.8029 9.26168 11.3066 9.26168ZM18.1518 16.1069C19.2033 16.1069 20.0509 16.9545 20.0509 18.006C20.0509 18.5097 19.8508 18.9927 19.4947 19.3488C19.1385 19.705 18.6555 19.9051 18.1518 19.9051C17.1004 19.9051 16.2528 19.0575 16.2528 18.006C16.2528 17.5023 16.4528 17.0193 16.809 16.6631C17.1651 16.307 17.6482 16.1069 18.1518 16.1069Z" fill="#0078FF"/>
</svg>
