<svg width="72" height="76" viewBox="0 0 72 76" fill="none" xmlns="http://www.w3.org/2000/svg">
<rect width="72" height="76" rx="36" fill="#E5F1FF"/>
<path d="M58.2161 48.1063L42.0711 21.3313C41.4183 20.3101 40.5188 19.4696 39.4557 18.8874C38.3925 18.3052 37.1999 18 35.9878 18C34.7757 18 33.5831 18.3052 32.5199 18.8874C31.4568 19.4696 30.5573 20.3101 29.9045 21.3313L13.7595 48.1063C13.1892 49.057 12.8792 50.1411 12.8607 51.2497C12.8423 52.3582 13.116 53.452 13.6543 54.4212C14.2767 55.5121 15.1775 56.4182 16.2648 57.0469C17.3521 57.6756 18.5869 58.0044 19.8428 57.9996H52.1328C53.3805 58.0129 54.6097 57.6969 55.6962 57.0834C56.7828 56.4699 57.6883 55.5806 58.3213 54.5054C58.8755 53.5261 59.1579 52.4166 59.1394 51.2915C59.1209 50.1665 58.8021 49.0668 58.2161 48.1063ZM35.9878 49.5798C35.5715 49.5798 35.1645 49.4563 34.8184 49.225C34.4722 48.9938 34.2024 48.665 34.0431 48.2804C33.8838 47.8957 33.8421 47.4725 33.9233 47.0642C34.0045 46.6559 34.205 46.2808 34.4994 45.9864C34.7938 45.692 35.1688 45.4916 35.5772 45.4103C35.9855 45.3291 36.4087 45.3708 36.7933 45.5301C37.178 45.6894 37.5067 45.9592 37.738 46.3054C37.9693 46.6516 38.0928 47.0585 38.0928 47.4748C38.0928 48.0331 37.871 48.5685 37.4762 48.9633C37.0815 49.358 36.5461 49.5798 35.9878 49.5798ZM38.0928 41.16C38.0928 41.7183 37.871 42.2537 37.4762 42.6484C37.0815 43.0432 36.5461 43.2649 35.9878 43.2649C35.4295 43.2649 34.8941 43.0432 34.4994 42.6484C34.1046 42.2537 33.8829 41.7183 33.8829 41.16V32.7402C33.8829 32.1819 34.1046 31.6465 34.4994 31.2518C34.8941 30.857 35.4295 30.6352 35.9878 30.6352C36.5461 30.6352 37.0815 30.857 37.4762 31.2518C37.871 31.6465 38.0928 32.1819 38.0928 32.7402V41.16Z" fill="#5BA1F6"/>
</svg>
