<svg width="72" height="76" viewBox="0 0 72 76" fill="none" xmlns="http://www.w3.org/2000/svg">
<rect width="72" height="76" rx="36" fill="#E5F1FF"/>
<rect x="10" y="12" width="52" height="52" rx="26" fill="#5BA1F6"/>
<path fill-rule="evenodd" clip-rule="evenodd" d="M20.5933 33.1162C20.571 34.0419 20.571 35.0894 20.571 36.286V39.7147C20.571 44.5628 20.571 46.9886 22.0779 48.4938C23.5831 50.0007 26.0089 50.0007 30.857 50.0007H41.143C45.9912 50.0007 48.4169 50.0007 49.9221 48.4938C51.429 46.9886 51.429 44.5628 51.429 39.7147V36.286C51.429 35.0894 51.429 34.0402 51.4067 33.1162L37.6646 40.7501C37.1554 41.0329 36.5825 41.1813 36 41.1813C35.4175 41.1813 34.8447 41.0329 34.3354 40.7501L20.5933 33.1162ZM20.9876 29.4801C21.1305 29.5144 21.2693 29.5692 21.4042 29.6447L36 37.7535L50.5959 29.6447C50.7319 29.5704 50.8707 29.5155 51.0124 29.4801C50.7896 28.6675 50.4467 28.0315 49.9221 27.5069C48.4169 26 45.9912 26 41.143 26H30.857C26.0089 26 23.5831 26 22.0779 27.5069C21.5516 28.0315 21.2105 28.6675 20.9876 29.4784" fill="#E5F1FF"/>
</svg>
