<svg width="76" height="76" viewBox="0 0 76 76" fill="none" xmlns="http://www.w3.org/2000/svg">
<rect width="76" height="76" rx="38" fill="#E5F1FF"/>
<rect width="76" height="76" rx="38" fill="#E5F1FF"/>
<path d="M38 12C32.8577 12 27.8309 13.5249 23.5552 16.3818C19.2795 19.2387 15.947 23.2993 13.9791 28.0502C12.0113 32.8011 11.4964 38.0288 12.4996 43.0723C13.5028 48.1158 15.9791 52.7486 19.6152 56.3848C23.2514 60.0209 27.8842 62.4972 32.9277 63.5004C37.9712 64.5036 43.1989 63.9887 47.9498 62.0209C52.7007 60.053 56.7613 56.7205 59.6182 52.4448C62.4751 48.1691 64 43.1423 64 38C63.9933 31.1064 61.2519 24.4971 56.3774 19.6226C51.5029 14.7481 44.8936 12.0067 38 12ZM38 23.8966C38.6694 23.9066 39.3076 24.1809 39.7757 24.6595C40.2437 25.1382 40.5035 25.7825 40.4985 26.4519C40.4935 27.1213 40.224 27.7616 39.7489 28.2332C39.2737 28.7048 38.6314 28.9695 37.962 28.9695C37.2925 28.9695 36.6502 28.7048 36.1751 28.2332C35.6999 27.7616 35.4305 27.1213 35.4254 26.4519C35.4204 25.7825 35.6802 25.1382 36.1483 24.6595C36.6163 24.1809 37.2545 23.9066 37.9239 23.8966H38ZM40.5366 51.3678C40.5366 52.0405 40.2693 52.6857 39.7936 53.1614C39.3179 53.6371 38.6728 53.9044 38 53.9044C37.3273 53.9044 36.6821 53.6371 36.2064 53.1614C35.7307 52.6857 35.4634 52.0405 35.4634 51.3678V35.3112C35.4634 34.6385 35.7307 33.9933 36.2064 33.5176C36.6821 33.0419 37.3273 32.7746 38 32.7746C38.6728 32.7746 39.3179 33.0419 39.7936 33.5176C40.2693 33.9933 40.5366 34.6385 40.5366 35.3112V51.3678Z" fill="#5BA1F6"/>
</svg>
