<svg width="73" height="76" viewBox="0 0 73 76" fill="none" xmlns="http://www.w3.org/2000/svg">
<rect x="0.5" width="72" height="76" rx="36" fill="#E5F1FF"/>
<path d="M36.4968 17.52L36.7385 17.5344L36.8593 17.5507L36.9842 17.5774L37.2116 17.647C37.3685 17.705 37.5178 17.782 37.656 17.8764L37.869 18.0443L38.3913 18.4908C42.523 21.9223 47.7448 23.765 53.1152 23.6865L53.8157 23.6661C54.2736 23.6452 54.7253 23.7785 55.0985 24.0447C55.4717 24.311 55.7448 24.6947 55.874 25.1345C56.8805 28.5579 57.1884 32.1486 56.7796 35.6934C56.3709 39.2381 55.2536 42.6646 53.4944 45.769C51.7352 48.8735 49.3698 51.5927 46.5388 53.765C43.7079 55.9374 40.4691 57.5185 37.015 58.4145C36.6778 58.5019 36.3239 58.5019 35.9868 58.4145C32.5325 57.5187 29.2935 55.9377 26.4623 53.7655C23.6311 51.5933 21.2655 48.8741 19.5061 45.7696C17.7466 42.6651 16.6292 39.2386 16.2203 35.6938C15.8114 32.1489 16.1193 28.558 17.1257 25.1345C17.2549 24.6947 17.528 24.311 17.9012 24.0447C18.2744 23.7785 18.7261 23.6452 19.184 23.6661C24.7907 23.9223 30.2911 22.0768 34.6084 18.4908L35.1471 18.03L35.3437 17.8764C35.4819 17.782 35.6312 17.705 35.7881 17.647L36.0175 17.5774C36.0978 17.5581 36.1792 17.5438 36.2612 17.5344L36.4968 17.52ZM44.0953 32.4561C43.9051 32.2657 43.6792 32.1146 43.4306 32.0115C43.1819 31.9085 42.9154 31.8554 42.6462 31.8554C42.3771 31.8554 42.1106 31.9085 41.8619 32.0115C41.6133 32.1146 41.3874 32.2657 41.1972 32.4561L34.4528 39.1981L31.8045 36.5521L31.612 36.3821C31.2004 36.0638 30.683 35.9141 30.165 35.9635C29.647 36.0128 29.1671 36.2575 28.823 36.6478C28.4788 37.038 28.2962 37.5447 28.312 38.0648C28.3279 38.5848 28.5412 39.0794 28.9085 39.4479L33.0047 43.5439L33.1973 43.7139C33.5913 44.0196 34.0834 44.171 34.5811 44.1397C35.0789 44.1084 35.5481 43.8966 35.9008 43.5439L44.0932 35.3519L44.2632 35.1594C44.5689 34.7654 44.7203 34.2734 44.689 33.7756C44.6577 33.2779 44.4459 32.8087 44.0932 32.4561H44.0953Z" fill="#5BA1F6"/>
</svg>
