<svg width="73" height="76" viewBox="0 0 73 76" fill="none" xmlns="http://www.w3.org/2000/svg">
<rect x="0.5" width="72" height="76" rx="36" fill="#E5F1FF"/>
<path fill-rule="evenodd" clip-rule="evenodd" d="M36.4999 12.0001C50.8591 12.0001 62.4999 23.6406 62.4999 38C62.4999 52.3593 50.8593 64 36.4999 64C22.1406 64 10.5 52.3594 10.5 38C10.5 23.6406 22.1406 12.0001 36.4999 12.0001ZM36.4999 46.4501C34.7048 46.4501 33.2497 47.905 33.2497 49.7C33.2497 51.4949 34.7049 52.95 36.4998 52.95C38.2946 52.95 39.7498 51.4949 39.7498 49.7C39.7498 47.905 38.2946 46.4501 36.4998 46.4501M36.0659 23.3753C33.5352 23.3753 31.4081 24.0647 29.6872 25.4398C27.648 27.0871 26.6292 29.5197 26.6292 32.7399H32.1577V32.7028C32.1577 31.4742 32.4165 30.4664 32.9328 29.6803C33.6452 28.6237 34.8008 28.0948 36.3984 28.0948C37.3815 28.0948 38.2183 28.3529 38.9053 28.8682C39.765 29.5821 40.1963 30.6628 40.1963 32.113C40.1963 33.0225 39.974 33.8331 39.5321 34.5463C39.1634 35.1852 38.5737 35.8114 37.7615 36.4262C36.0414 37.6059 34.9228 38.7735 34.4075 39.9293C33.965 40.8877 33.7427 42.4115 33.7427 44.5001H38.9425C38.9425 43.1234 39.1254 42.0918 39.4958 41.4032C39.7902 40.838 40.4053 40.2363 41.3394 39.5968C42.9622 38.3921 44.1163 37.2734 44.805 36.2411C45.6402 35.0126 46.0589 33.5744 46.0589 31.9271C46.0589 28.5134 44.6705 26.092 41.8914 24.6658C40.2211 23.8057 38.2792 23.375 36.066 23.375" fill="#5BA1F6"/>
</svg>
