<svg width="76" height="76" viewBox="0 0 76 76" fill="none" xmlns="http://www.w3.org/2000/svg">
<rect width="76" height="76" rx="38" fill="#E5F1FF"/>
<rect x="12" y="12" width="52" height="52" rx="26" fill="#5BA1F6"/>
<path d="M32.1812 44.4752H35.6948C35.6139 45.0041 35.5728 45.5439 35.5718 46.0944C35.5718 48.7709 36.5708 51.2143 38.2159 53.0715C37.878 53.2755 37.5375 53.3781 37.1942 53.3792C35.256 53.3792 33.3065 49.9886 32.2751 44.9529L32.1812 44.4752ZM31.8087 42.0464H36.3781C36.9639 40.6449 37.8452 39.3863 38.9618 38.3566C40.0785 37.3268 41.4042 36.5502 42.8485 36.0796C42.8297 35.3691 42.793 34.6591 42.7384 33.9504H31.6484L31.595 34.7422C31.4544 37.1785 31.5259 39.6224 31.8087 42.0464ZM46.0966 35.5696C48.9027 35.5696 51.4529 36.6674 53.3393 38.4582C53.4544 36.9501 53.3617 35.4333 53.064 33.9504H45.1785L45.2416 35.0142L45.2643 35.602C45.5396 35.5804 45.817 35.5696 46.0966 35.5696ZM22.7266 44.4768H29.6989C30.2899 47.848 31.2906 50.7172 32.6005 52.7234C28.4844 51.5011 25.0199 48.6985 22.9647 44.9286L22.7266 44.4768ZM21.3228 33.952H29.2083C29.0375 36.3353 29.0554 38.7284 29.2617 41.1089L29.354 42.048H21.7405C20.9206 39.4278 20.7768 36.6427 21.3228 33.952ZM41.9611 21.931L41.7863 21.6558C44.1928 22.3704 46.4009 23.6332 48.2372 25.345C50.0734 27.0568 51.4879 29.171 52.3694 31.5216H44.9356C44.4239 27.6096 43.386 24.2481 41.9611 21.931ZM32.403 21.7157L32.6005 21.6558C31.1756 23.8417 30.1151 27.0461 29.5516 30.8107L29.4528 31.5232H22.019C22.8879 29.2052 24.2752 27.1164 26.075 25.4166C27.8747 23.7168 30.0391 22.4509 32.403 21.7157ZM37.1942 21C39.3283 21 41.477 25.116 42.3983 31.0115L42.4728 31.5216H31.914C32.7884 25.354 34.9986 21 37.1942 21ZM55.0022 46.0944C55.0022 48.4563 54.0639 50.7215 52.3938 52.3916C50.7237 54.0617 48.4585 55 46.0966 55C43.7347 55 41.4695 54.0617 39.7994 52.3916C38.1292 50.7215 37.191 48.4563 37.191 46.0944C37.191 43.7325 38.1292 41.4673 39.7994 39.7972C41.4695 38.127 43.7347 37.1888 46.0966 37.1888C48.4585 37.1888 50.7237 38.127 52.3938 39.7972C54.0639 41.4673 55.0022 43.7325 55.0022 46.0944ZM46.0966 40.4272C45.8819 40.4272 45.6759 40.5125 45.5241 40.6643C45.3723 40.8161 45.287 41.0221 45.287 41.2368V47.7136C45.287 47.9283 45.3723 48.1342 45.5241 48.2861C45.6759 48.4379 45.8819 48.5232 46.0966 48.5232C46.3113 48.5232 46.5172 48.4379 46.6691 48.2861C46.8209 48.1342 46.9062 47.9283 46.9062 47.7136V41.2368C46.9062 41.0221 46.8209 40.8161 46.6691 40.6643C46.5172 40.5125 46.3113 40.4272 46.0966 40.4272ZM46.0966 51.964C46.365 51.964 46.6224 51.8574 46.8122 51.6676C47.002 51.4778 47.1086 51.2204 47.1086 50.952C47.1086 50.6836 47.002 50.4262 46.8122 50.2364C46.6224 50.0466 46.365 49.94 46.0966 49.94C45.8282 49.94 45.5708 50.0466 45.381 50.2364C45.1912 50.4262 45.0846 50.6836 45.0846 50.952C45.0846 51.2204 45.1912 51.4778 45.381 51.6676C45.5708 51.8574 45.8282 51.964 46.0966 51.964Z" fill="#E5F1FF"/>
</svg>
