<svg width="76" height="76" viewBox="0 0 76 76" fill="none" xmlns="http://www.w3.org/2000/svg">
<rect width="76" height="76" rx="38" fill="#E5F1FF"/>
<rect x="12" y="12" width="52" height="52" rx="26" fill="#5BA1F6"/>
<path d="M55.6234 31.2713H46.3412V43.7992L39.6147 50.5414C39.0032 51.1529 38.0154 51.1529 37.3882 50.5414L20.8307 33.9525C20.1878 33.3096 20.2349 32.2591 20.9247 31.6476C25.6129 27.5082 31.7593 24.9995 38.5014 24.9995C45.0241 24.9995 50.998 27.3671 55.6234 31.2713ZM51.045 46.9508C50.1827 46.9508 49.4771 47.6564 49.4771 48.5187C49.4771 49.3811 50.1827 50.0867 51.045 50.0867C51.9074 50.0867 52.613 49.3811 52.613 48.5187C52.613 47.6564 51.9074 46.9508 51.045 46.9508ZM51.045 34.4072C50.1827 34.4072 49.4771 35.1128 49.4771 35.9752V42.2469C49.4771 43.1093 50.1827 43.8149 51.045 43.8149C51.9074 43.8149 52.613 43.1093 52.613 42.2469V35.9752C52.613 35.1128 51.9074 34.4072 51.045 34.4072Z" fill="#E5F1FF"/>
</svg>
