<svg width="72" height="76" viewBox="0 0 72 76" fill="none" xmlns="http://www.w3.org/2000/svg">
<rect width="72" height="76" rx="36" fill="#E5F1FF"/>
<path d="M36 15.25C42.0337 15.25 47.8202 17.6469 52.0867 21.9133C56.3531 26.1798 58.75 31.9663 58.75 38C58.75 44.0337 56.3531 49.8202 52.0867 54.0867C47.8202 58.3531 42.0337 60.75 36 60.75C29.9663 60.75 24.1798 58.3531 19.9133 54.0867C15.6469 49.8202 13.25 44.0337 13.25 38C13.25 31.9663 15.6469 26.1798 19.9133 21.9133C24.1798 17.6469 29.9663 15.25 36 15.25ZM33.166 42.4882L28.1122 37.4312C27.9311 37.2501 27.716 37.1064 27.4793 37.0083C27.2426 36.9103 26.9888 36.8598 26.7326 36.8598C26.4764 36.8598 26.2227 36.9103 25.986 37.0083C25.7493 37.1064 25.5342 37.2501 25.353 37.4312C24.9871 37.7971 24.7815 38.2934 24.7815 38.8109C24.7815 39.3283 24.9871 39.8246 25.353 40.1905L31.788 46.6255C31.9687 46.8076 32.1836 46.9521 32.4204 47.0508C32.6571 47.1494 32.9111 47.2002 33.1676 47.2002C33.4241 47.2002 33.6781 47.1494 33.9149 47.0508C34.1517 46.9521 34.3666 46.8076 34.5473 46.6255L47.8722 33.2973C48.0558 33.1168 48.2019 32.9018 48.302 32.6647C48.4021 32.4275 48.4542 32.1729 48.4554 31.9155C48.4566 31.6581 48.4069 31.403 48.309 31.1649C48.2111 30.9268 48.067 30.7105 47.8851 30.5284C47.7032 30.3463 47.487 30.202 47.2491 30.1038C47.0111 30.0056 46.7561 29.9556 46.4987 29.9564C46.2413 29.9573 45.9866 30.0092 45.7493 30.109C45.5121 30.2088 45.2969 30.3546 45.1163 30.538L33.166 42.4882Z" fill="#5BA1F6"/>
</svg>
