<svg width="43" height="34" viewBox="0 0 43 34" fill="none" xmlns="http://www.w3.org/2000/svg">
<path d="M12.283 14.4958L3.1785 21.0095C3.09736 21.0677 3.03122 21.1444 2.98553 21.2332C2.93985 21.322 2.91593 21.4204 2.91575 21.5203V21.5218C2.91596 21.622 2.94009 21.7208 2.98614 21.8098C3.03218 21.8989 3.09882 21.9756 3.1805 22.0338L12.285 28.5055C12.3791 28.5725 12.4898 28.6122 12.6051 28.6203C12.7203 28.6284 12.8355 28.6045 12.938 28.5513C13.0407 28.4984 13.1267 28.4183 13.1868 28.3196C13.2468 28.221 13.2785 28.1077 13.2782 27.9923V24.9465L21.4555 24.9468C21.5381 24.9468 21.6199 24.9305 21.6962 24.8989C21.7725 24.8673 21.8419 24.821 21.9003 24.7626C21.9586 24.7042 22.005 24.6348 22.0365 24.5585C22.0681 24.4822 22.0843 24.4004 22.0842 24.3178L22.084 18.6825C22.084 18.5999 22.0678 18.5181 22.0362 18.4418C22.0046 18.3654 21.9583 18.2961 21.8998 18.2377C21.8414 18.1793 21.7721 18.1329 21.6957 18.1013C21.6194 18.0697 21.5376 18.0535 21.455 18.0535H13.2785V15.007C13.2785 14.772 13.146 14.5563 12.9367 14.4478C12.8339 14.3947 12.7185 14.3711 12.6031 14.3796C12.4877 14.3881 12.377 14.4283 12.283 14.4958Z" fill="#0078FF"/>
<path d="M30.717 14.4958L39.8215 21.0095C39.9026 21.0677 39.9688 21.1444 40.0145 21.2332C40.0602 21.322 40.0841 21.4204 40.0843 21.5203V21.5218C40.084 21.622 40.0599 21.7208 40.0139 21.8098C39.9678 21.8989 39.9012 21.9756 39.8195 22.0338L30.715 28.5055C30.6209 28.5725 30.5102 28.6122 30.3949 28.6203C30.2797 28.6284 30.1645 28.6045 30.062 28.5513C29.9593 28.4984 29.8733 28.4183 29.8132 28.3196C29.7532 28.221 29.7215 28.1077 29.7218 27.9923V24.9465L21.5445 24.9468C21.4619 24.9468 21.3801 24.9305 21.3038 24.8989C21.2275 24.8673 21.1581 24.821 21.0997 24.7626C21.0414 24.7042 20.995 24.6348 20.9635 24.5585C20.9319 24.4822 20.9157 24.4004 20.9158 24.3178L20.916 18.6825C20.916 18.5999 20.9322 18.5181 20.9638 18.4418C20.9954 18.3654 21.0417 18.2961 21.1002 18.2377C21.1586 18.1793 21.2279 18.1329 21.3043 18.1013C21.3806 18.0697 21.4624 18.0535 21.545 18.0535H29.7215V15.007C29.7215 14.772 29.854 14.5563 30.0633 14.4478C30.1661 14.3947 30.2815 14.3711 30.3969 14.3796C30.5123 14.3881 30.623 14.4283 30.717 14.4958Z" fill="#0078FF"/>
</svg>
