<svg width="82" height="82" viewBox="0 0 82 82" fill="none" xmlns="http://www.w3.org/2000/svg">
<rect width="82" height="82" rx="41" fill="#F5F5F5"/>
<g clip-path="url(#clip0_1240_469)">
<path d="M59.8204 53.4081L42.5795 19.3033C42.3225 18.7965 41.8791 18.5454 41.4315 18.5454C40.9839 18.5454 40.5363 18.7965 40.2835 19.3033L23.0425 53.4081C22.5328 54.4218 23.171 55.6818 24.1906 55.6818H58.6724C59.6919 55.6818 60.3302 54.4218 59.8204 53.4081ZM40.1052 32.5663C40.1052 32.3579 40.2544 32.1873 40.4368 32.1873H42.4261C42.6085 32.1873 42.7577 32.3579 42.7577 32.5663V41.282C42.7577 41.4904 42.6085 41.6609 42.4261 41.6609H40.4368C40.2544 41.6609 40.1052 41.4904 40.1052 41.282V32.5663ZM41.4315 49.2398C40.9109 49.2276 40.4152 48.9827 40.0508 48.5577C39.6864 48.1326 39.4823 47.5612 39.4823 46.9661C39.4823 46.371 39.6864 45.7996 40.0508 45.3745C40.4152 44.9495 40.9109 44.7046 41.4315 44.6924C41.952 44.7046 42.4477 44.9495 42.8121 45.3745C43.1765 45.7996 43.3806 46.371 43.3806 46.9661C43.3806 47.5612 43.1765 48.1326 42.8121 48.5577C42.4477 48.9827 41.952 49.2276 41.4315 49.2398Z" fill="#0078FF"/>
</g>
<defs>
<clipPath id="clip0_1240_469">
<rect width="38" height="38" fill="white" transform="translate(22 22)"/>
</clipPath>
</defs>
</svg>
