<svg width="39" height="38" viewBox="0 0 39 38" fill="none" xmlns="http://www.w3.org/2000/svg">
<path d="M17.5547 34.7544V33.171C14.2561 32.8016 11.4256 31.4362 9.06329 29.075C6.70096 26.7137 5.3356 23.8832 4.96721 20.5835H3.38388C2.93526 20.5835 2.55949 20.4315 2.25654 20.1275C1.9536 19.8235 1.8016 19.4478 1.80054 19.0002C1.79949 18.5527 1.95149 18.1769 2.25654 17.8729C2.5616 17.5689 2.93738 17.4169 3.38388 17.4169H4.96721C5.33665 14.1183 6.70254 11.2878 9.06488 8.92546C11.4272 6.56313 14.2572 5.19777 17.5547 4.82938V3.24604C17.5547 2.79743 17.7067 2.42165 18.0107 2.11871C18.3147 1.81577 18.6905 1.66377 19.138 1.66271C19.5856 1.66165 19.9619 1.81365 20.267 2.11871C20.572 2.42377 20.7235 2.79954 20.7214 3.24604V4.82938C24.02 5.19882 26.8505 6.56471 29.2128 8.92704C31.5751 11.2894 32.9405 14.1193 33.3089 17.4169H34.8922C35.3408 17.4169 35.7171 17.5689 36.0211 17.8729C36.3251 18.1769 36.4766 18.5527 36.4755 19.0002C36.4745 19.4478 36.323 19.8241 36.0211 20.1291C35.7192 20.4342 35.3429 20.5857 34.8922 20.5835H33.3089C32.9394 23.8822 31.5741 26.7126 29.2128 29.075C26.8515 31.4373 24.021 32.8027 20.7214 33.171V34.7544C20.7214 35.203 20.5694 35.5793 20.2654 35.8833C19.9614 36.1873 19.5856 36.3388 19.138 36.3377C18.6905 36.3367 18.3147 36.1852 18.0107 35.8833C17.7067 35.5814 17.5547 35.2051 17.5547 34.7544ZM19.138 30.0835C22.1992 30.0835 24.8117 29.0016 26.9755 26.8377C29.1394 24.6738 30.2214 22.0613 30.2214 19.0002C30.2214 15.9391 29.1394 13.3266 26.9755 11.1627C24.8117 8.99882 22.1992 7.91688 19.138 7.91688C16.0769 7.91688 13.4644 8.99882 11.3005 11.1627C9.13665 13.3266 8.05471 15.9391 8.05471 19.0002C8.05471 22.0613 9.13665 24.6738 11.3005 26.8377C13.4644 29.0016 16.0769 30.0835 19.138 30.0835ZM19.138 25.3335C17.3964 25.3335 15.9054 24.7134 14.6651 23.4731C13.4248 22.2328 12.8047 20.7419 12.8047 19.0002C12.8047 17.2585 13.4248 15.7676 14.6651 14.5273C15.9054 13.287 17.3964 12.6669 19.138 12.6669C20.8797 12.6669 22.3707 13.287 23.611 14.5273C24.8512 15.7676 25.4714 17.2585 25.4714 19.0002C25.4714 20.7419 24.8512 22.2328 23.611 23.4731C22.3707 24.7134 20.8797 25.3335 19.138 25.3335Z" fill="#0078FF"/>
</svg>
