<svg width="50" height="49" viewBox="0 0 50 49" fill="none" xmlns="http://www.w3.org/2000/svg">
<rect x="0.5" width="49" height="49" rx="7" fill="#D1EFE1"/>
<g clip-path="url(#clip0_3747_2487)">
<path fill-rule="evenodd" clip-rule="evenodd" d="M19.8264 16.9654C19.9738 16.8413 20.1566 16.7667 20.3488 16.7524C20.541 16.7381 20.7328 16.7847 20.897 16.8857C24.065 18.8354 25.8012 21.3022 26.727 24.0174C26.9562 24.6893 27.1349 25.374 27.2734 26.067C28.2166 24.4812 29.7236 23.2235 31.9933 22.316C32.1533 22.2521 32.3281 22.2346 32.4977 22.2655C32.6672 22.2964 32.8246 22.3745 32.9518 22.4908C33.0789 22.607 33.1708 22.7568 33.2167 22.9229C33.2627 23.089 33.2609 23.2647 33.2115 23.4298L33.0456 23.9834C31.7989 28.1341 31.4167 29.4055 31.4167 32.3334C31.4167 32.5765 31.3201 32.8096 31.1482 32.9815C30.9763 33.1534 30.7431 33.25 30.5 33.25H19.5C19.2569 33.25 19.0238 33.1534 18.8519 32.9815C18.6799 32.8096 18.5834 32.5765 18.5834 32.3334C18.5834 28.7914 18.1507 26.5996 16.7968 22.5397C16.7417 22.3739 16.7351 22.1958 16.7778 22.0264C16.8206 21.857 16.9108 21.7033 17.038 21.5835C17.1651 21.4637 17.3239 21.3827 17.4955 21.35C17.6671 21.3174 17.8445 21.3345 18.0068 21.3994C19.2855 21.9099 20.2572 22.5919 20.9905 23.3977C20.7462 21.5479 20.2675 19.7367 19.566 18.0077C19.4943 17.8287 19.4808 17.6316 19.5275 17.4444C19.5743 17.2573 19.6788 17.0897 19.8264 16.9654Z" fill="#3E9A6B"/>
</g>
<defs>
<clipPath id="clip0_3747_2487">
<rect width="22" height="22" fill="white" transform="translate(14 14)"/>
</clipPath>
</defs>
</svg>
