<svg width="83" height="83" viewBox="0 0 83 83" fill="none" xmlns="http://www.w3.org/2000/svg">
<rect x="30" y="18" width="26" height="50" fill="#0078FF"/>
<path d="M41.2119 0.466309C33.1029 0.466309 25.176 2.87092 18.4335 7.37605C11.6911 11.8812 6.43606 18.2845 3.33287 25.7763C0.229679 33.2681 -0.582258 41.5118 0.999736 49.465C2.58173 57.4182 6.4866 64.7237 12.2206 70.4577C17.9545 76.1916 25.26 80.0965 33.2132 81.6785C41.1664 83.2605 49.4102 82.4485 56.9019 79.3454C64.3937 76.2422 70.797 70.9871 75.3022 64.2447C79.8073 57.5023 82.2119 49.5753 82.2119 41.4663C82.2013 30.5957 77.8783 20.1733 70.1916 12.4866C62.5049 4.79993 52.0826 0.476899 41.2119 0.466309ZM41.2119 19.2263C42.2675 19.2421 43.274 19.6746 44.012 20.4294C44.75 21.1842 45.1597 22.2002 45.1518 23.2559C45.1439 24.3115 44.719 25.3212 43.9697 26.0649C43.2205 26.8085 42.2076 27.2259 41.1519 27.2259C40.0963 27.2259 39.0834 26.8085 38.3341 26.0649C37.5849 25.3212 37.16 24.3115 37.152 23.2559C37.1441 22.2002 37.5538 21.1842 38.2919 20.4294C39.0299 19.6746 40.0364 19.2421 41.0919 19.2263H41.2119ZM45.2119 62.5463C45.2119 63.6072 44.7905 64.6246 44.0404 65.3747C43.2902 66.1249 42.2728 66.5463 41.2119 66.5463C40.1511 66.5463 39.1336 66.1249 38.3835 65.3747C37.6334 64.6246 37.2119 63.6072 37.2119 62.5463V37.2263C37.2119 36.1654 37.6334 35.148 38.3835 34.3979C39.1336 33.6477 40.1511 33.2263 41.2119 33.2263C42.2728 33.2263 43.2902 33.6477 44.0404 34.3979C44.7905 35.148 45.2119 36.1654 45.2119 37.2263V62.5463Z" fill="#F5F5F5"/>
</svg>
