<svg width="22" height="22" viewBox="0 0 22 22" fill="none" xmlns="http://www.w3.org/2000/svg">
<path fill-rule="evenodd" clip-rule="evenodd" d="M19.1181 7.93278C20.1645 8.68651 20.875 9.85457 20.875 11.221C20.875 12.5874 20.1645 13.7563 19.1181 14.5092C19.3297 15.7804 19 17.1168 18.0364 18.0795C17.0711 19.0448 15.7356 19.3657 14.4696 19.1594C13.7194 20.2093 12.5408 20.9181 11.1779 20.9181C9.81151 20.9181 8.6408 20.2067 7.88884 19.1585C6.62116 19.3657 5.28473 19.0457 4.31854 18.0795C3.35324 17.1142 3.03236 15.7777 3.24569 14.5092C2.20017 13.7572 1.48082 12.5883 1.48082 11.221C1.48082 9.85369 2.20017 8.68387 3.24569 7.93278C3.03236 6.66422 3.35324 5.32779 4.31942 4.36248C5.28296 3.39806 6.62028 3.06924 7.89589 3.28082C8.64345 2.23265 9.81415 1.52388 11.1779 1.52388C12.5399 1.52388 13.7168 2.23177 14.4679 3.28082C15.7391 3.06924 17.0738 3.39983 18.0364 4.36248C18.9991 5.32514 19.3305 6.66158 19.1181 7.93278ZM15.2163 7.85873C15.3106 7.92598 15.3906 8.01115 15.452 8.10935C15.5133 8.20755 15.5547 8.31687 15.5737 8.43107C15.5928 8.54527 15.5892 8.6621 15.5631 8.7749C15.537 8.88771 15.489 8.99427 15.4217 9.0885L11.0139 15.2594C10.9395 15.3636 10.8433 15.4503 10.732 15.5136C10.6207 15.5769 10.4969 15.6151 10.3693 15.6257C10.2417 15.6363 10.1133 15.6189 9.99305 15.5748C9.87282 15.5307 9.76364 15.461 9.6731 15.3705L7.02844 12.7258C6.86786 12.5595 6.779 12.3368 6.78101 12.1057C6.78302 11.8746 6.87573 11.6535 7.03918 11.49C7.20263 11.3266 7.42373 11.2339 7.65487 11.2318C7.88601 11.2298 8.1087 11.3187 8.27496 11.4793L10.1835 13.3878L13.9865 8.06325C14.1225 7.87306 14.3285 7.74467 14.5591 7.70631C14.7897 7.66796 15.0261 7.72278 15.2163 7.85873Z" fill="#00DEEB"/>
</svg>
