<svg width="49" height="49" viewBox="0 0 49 49" fill="none" xmlns="http://www.w3.org/2000/svg">
<circle cx="24.498" cy="24.5008" r="19.4754" fill="#0038FF" stroke="#0038FF" stroke-width="2.17778"/>
<path d="M15.0002 18.9688C15.0002 17.3285 16.3287 16 17.9689 16H31.0314C32.6717 16 34.0002 17.3285 34.0002 18.9688V29.6562C34.0002 30.6285 33.5326 31.4895 32.8127 32.0312V33.8125C32.8127 34.4693 32.282 35 31.6252 35H30.4377C29.7808 35 29.2502 34.4693 29.2502 33.8125V32.625H19.7502V33.8125C19.7502 34.4693 19.2195 35 18.5627 35H17.3752C16.7183 35 16.1877 34.4693 16.1877 33.8125V32.0312C15.4678 31.4895 15.0002 30.6285 15.0002 29.6562V18.9688ZM19.8207 21.648L19.1564 24.3125H29.8439L29.1797 21.648C29.0461 21.1211 28.5711 20.75 28.0256 20.75H20.9748C20.4293 20.75 19.9543 21.1211 19.8244 21.648H19.8207ZM19.7502 27.875C19.7502 27.5601 19.6251 27.258 19.4024 27.0353C19.1797 26.8126 18.8776 26.6875 18.5627 26.6875C18.2477 26.6875 17.9457 26.8126 17.723 27.0353C17.5003 27.258 17.3752 27.5601 17.3752 27.875C17.3752 28.1899 17.5003 28.492 17.723 28.7147C17.9457 28.9374 18.2477 29.0625 18.5627 29.0625C18.8776 29.0625 19.1797 28.9374 19.4024 28.7147C19.6251 28.492 19.7502 28.1899 19.7502 27.875ZM30.4377 29.0625C30.7526 29.0625 31.0547 28.9374 31.2774 28.7147C31.5001 28.492 31.6252 28.1899 31.6252 27.875C31.6252 27.5601 31.5001 27.258 31.2774 27.0353C31.0547 26.8126 30.7526 26.6875 30.4377 26.6875C30.1227 26.6875 29.8207 26.8126 29.598 27.0353C29.3753 27.258 29.2502 27.5601 29.2502 27.875C29.2502 28.1899 29.3753 28.492 29.598 28.7147C29.8207 28.9374 30.1227 29.0625 30.4377 29.0625Z" fill="white"/>
</svg>
