<svg width="18" height="18" viewBox="0 0 18 18" fill="none" xmlns="http://www.w3.org/2000/svg">
<path fill-rule="evenodd" clip-rule="evenodd" d="M1.73114e-07 6.75C0.000258468 5.74373 0.2897 4.75873 0.833862 3.91229C1.37802 3.06585 2.15398 2.39362 3.06934 1.97566C3.98469 1.55769 5.00089 1.41159 5.99692 1.55475C6.99295 1.69791 7.92686 2.12431 8.68744 2.78316C9.44802 3.44201 10.0032 4.30557 10.287 5.27101C10.5707 6.23645 10.571 7.26309 10.2879 8.22869C10.0047 9.1943 9.44999 10.0582 8.68979 10.7175C7.9296 11.3768 6.99595 11.8037 6 11.9475V15.75C6 15.9489 5.92098 16.1397 5.78033 16.2803C5.63968 16.421 5.44891 16.5 5.25 16.5C5.05109 16.5 4.86032 16.421 4.71967 16.2803C4.57902 16.1397 4.5 15.9489 4.5 15.75V11.9475C3.25027 11.7671 2.10742 11.1424 1.28093 10.1878C0.454439 9.23317 -0.000323926 8.01267 1.73114e-07 6.75ZM4.455 5.955C4.66578 5.74396 4.95173 5.62526 5.25 5.625C5.44891 5.625 5.63968 5.54598 5.78033 5.40533C5.92098 5.26468 6 5.07391 6 4.875C6 4.67609 5.92098 4.48532 5.78033 4.34467C5.63968 4.20402 5.44891 4.125 5.25 4.125C4.55381 4.125 3.88613 4.40156 3.39384 4.89384C2.90156 5.38613 2.625 6.05381 2.625 6.75C2.625 6.94891 2.70402 7.13968 2.84467 7.28033C2.98532 7.42098 3.17609 7.5 3.375 7.5C3.57391 7.5 3.76468 7.42098 3.90533 7.28033C4.04598 7.13968 4.125 6.94891 4.125 6.75C4.125 6.4515 4.2435 6.165 4.455 5.955Z" fill="#0078FF"/>
</svg>
