<svg width="94" height="94" viewBox="0 0 94 94" fill="none" xmlns="http://www.w3.org/2000/svg">
<rect width="94" height="94" rx="45.7919" fill="#269DF1"/>
<circle cx="47.0006" cy="46.9999" r="37.361" fill="#269DF1" stroke="white" stroke-width="4.17778"/>
<g clip-path="url(#clip0_4970_4598)">
<path d="M36.0731 59.1702C33.7903 59.1702 31.8448 58.3654 30.2364 56.756C28.6281 55.1465 27.8234 53.201 27.8223 50.9194C27.8212 48.6378 28.6259 46.6922 30.2364 45.0828C31.847 43.4733 33.7925 42.6686 36.0731 42.6686H55.2149L51.9146 39.3683H45.974V36.068H51.8733C52.3133 36.068 52.733 36.1505 53.1324 36.3155C53.5317 36.4805 53.8821 36.7143 54.1835 37.0168L59.9178 42.7511C62.063 42.9161 63.8507 43.7824 65.2808 45.3501C66.711 46.9177 67.426 48.7742 67.426 50.9194C67.426 53.2021 66.6213 55.1482 65.0119 56.7576C63.4024 58.3671 61.4569 59.1713 59.1752 59.1702C56.8936 59.1691 54.9481 58.3643 53.3386 56.756C51.7292 55.1476 50.9245 53.2021 50.9245 50.9194C50.9245 50.4243 50.9591 49.9359 51.0284 49.454C51.0977 48.9722 51.2281 48.498 51.4195 48.0316L46.8816 52.5695H44.1588C43.7738 54.4947 42.8249 56.0761 41.3123 57.3137C39.7997 58.5513 38.0532 59.1702 36.0731 59.1702ZM59.1752 55.8698C60.5504 55.8698 61.7192 55.3885 62.6818 54.426C63.6444 53.4634 64.1257 52.2945 64.1257 50.9194C64.1257 49.5442 63.6444 48.3754 62.6818 47.4128C61.7192 46.4502 60.5504 45.9689 59.1752 45.9689C57.8001 45.9689 56.6313 46.4502 55.6687 47.4128C54.7061 48.3754 54.2248 49.5442 54.2248 50.9194C54.2248 52.2945 54.7061 53.4634 55.6687 54.426C56.6313 55.3885 57.8001 55.8698 59.1752 55.8698ZM36.0731 55.8698C37.1181 55.8698 38.0604 55.5673 38.8998 54.9623C39.7391 54.3572 40.3371 53.5596 40.6935 52.5695H36.0731V49.2692H40.6935C40.336 48.2791 39.738 47.4815 38.8998 46.8765C38.0615 46.2714 37.1193 45.9689 36.0731 45.9689C34.6979 45.9689 33.5291 46.4502 32.5665 47.4128C31.6039 48.3754 31.1226 49.5442 31.1226 50.9194C31.1226 52.2945 31.6039 53.4634 32.5665 54.426C33.5291 55.3885 34.6979 55.8698 36.0731 55.8698Z" fill="white"/>
</g>
<defs>
<clipPath id="clip0_4970_4598">
<rect width="39.6038" height="39.6038" fill="white" transform="translate(27.8184 27.8171)"/>
</clipPath>
</defs>
</svg>
