<svg width="34" height="34" viewBox="0 0 34 34" fill="none" xmlns="http://www.w3.org/2000/svg">
<path d="M0.414296 5.21C0.282966 5.34106 0.178773 5.49674 0.107683 5.66812C0.0365924 5.83949 0 6.02321 0 6.20875C0 6.39429 0.0365924 6.57801 0.107683 6.74939C0.178773 6.92076 0.282966 7.07644 0.414296 7.2075L3.91346 10.7067C3.75763 11.4292 3.65846 12.1658 3.65846 12.9167C3.65846 18.8242 9.92013 26.97 12.4843 30.0725C13.051 30.7525 14.0851 30.7525 14.6518 30.0725C15.5726 28.9675 16.9468 27.225 18.3493 25.1708L22.1035 28.925C22.2346 29.0562 22.3903 29.1602 22.5617 29.2312C22.7331 29.3022 22.9167 29.3387 23.1022 29.3387C23.2877 29.3387 23.4714 29.3022 23.6427 29.2312C23.8141 29.1602 23.9698 29.0562 24.101 28.925C24.2321 28.7938 24.3362 28.6381 24.4071 28.4668C24.4781 28.2954 24.5147 28.1117 24.5147 27.9263C24.5147 27.7408 24.4781 27.5571 24.4071 27.3857C24.3362 27.2144 24.2321 27.0587 24.101 26.9275L2.4118 5.21C2.28073 5.07867 2.12506 4.97448 1.95368 4.90339C1.7823 4.8323 1.59858 4.7957 1.41305 4.7957C1.22751 4.7957 1.04379 4.8323 0.872411 4.90339C0.701032 4.97448 0.545357 5.07867 0.414296 5.21ZM13.5751 3C10.9685 3 8.6168 4.00583 6.84596 5.635L11.3651 10.1542C11.9743 9.6725 12.7393 9.375 13.5751 9.375C14.5144 9.375 15.4153 9.74814 16.0795 10.4123C16.7437 11.0765 17.1168 11.9774 17.1168 12.9167C17.1168 13.7525 16.8193 14.5175 16.3235 15.1267L21.3526 20.1558C22.5993 17.6767 23.4918 15.1408 23.4918 12.9167C23.4918 7.43417 19.0576 3 13.5751 3Z" fill="#0078FF"/>
</svg>
