<svg width="99" height="99" viewBox="0 0 99 99" fill="none" xmlns="http://www.w3.org/2000/svg">
<circle opacity="0.8" cx="39.8278" cy="39.8263" r="31.8219" fill="#0078FF" fill-opacity="0.12"/>
<path opacity="0.78" d="M27.7608 29.1737C27.7543 29.3197 27.779 29.4653 27.8334 29.6017C27.8878 29.7381 27.9707 29.8624 28.077 29.9669C28.1833 30.0715 28.3107 30.154 28.4515 30.2096C28.5923 30.2651 28.7434 30.2924 28.8955 30.2898H32.7802C33.4299 30.2898 33.9479 29.7792 34.0327 29.1602C34.4564 26.1961 36.5753 24.0363 40.3516 24.0363C43.5817 24.0363 46.5388 25.5861 46.5388 29.3138C46.5388 32.183 44.7777 33.5023 41.9949 35.5085C38.826 37.718 36.3163 40.298 36.4953 44.4865L36.5094 45.467C36.5143 45.7635 36.6405 46.0461 36.8608 46.2541C37.081 46.462 37.3776 46.5786 37.6865 46.5785H41.5052C41.8174 46.5785 42.1169 46.4595 42.3376 46.2477C42.5584 46.0358 42.6824 45.7485 42.6824 45.4489V44.9745C42.6824 41.7303 43.9678 40.786 47.4381 38.2602C50.3057 36.1682 53.2956 33.8457 53.2956 28.9704C53.2956 22.1431 47.2874 18.8447 40.7095 18.8447C34.7437 18.8447 28.2081 21.5106 27.7608 29.1737ZM35.0921 55.2131C35.0921 57.6214 37.0933 59.4017 39.8478 59.4017C42.7154 59.4017 44.6883 57.6214 44.6883 55.2131C44.6883 52.719 42.7106 50.9659 39.8431 50.9659C37.0933 50.9659 35.0921 52.719 35.0921 55.2131Z" fill="#0078FF" fill-opacity="0.82"/>
<rect opacity="0.8" x="64.041" y="16.634" width="10.7871" height="65.128" transform="rotate(41.4423 64.041 16.634)" fill="white" fill-opacity="0.35"/>
<path d="M94 94L64.3333 64.3333M5 39.6111C5 44.1563 5.89524 48.657 7.63461 52.8562C9.37399 57.0554 11.9234 60.8709 15.1374 64.0849C18.3513 67.2988 22.1668 69.8482 26.366 71.5876C30.5652 73.327 35.0659 74.2222 39.6111 74.2222C44.1563 74.2222 48.657 73.327 52.8562 71.5876C57.0554 69.8482 60.8709 67.2988 64.0849 64.0849C67.2988 60.8709 69.8482 57.0554 71.5876 52.8562C73.327 48.657 74.2222 44.1563 74.2222 39.6111C74.2222 35.0659 73.327 30.5652 71.5876 26.366C69.8482 22.1668 67.2988 18.3513 64.0849 15.1374C60.8709 11.9234 57.0554 9.37398 52.8562 7.63461C48.657 5.89524 44.1563 5 39.6111 5C35.0659 5 30.5652 5.89524 26.366 7.63461C22.1668 9.37398 18.3513 11.9234 15.1374 15.1374C11.9234 18.3513 9.37399 22.1668 7.63461 26.366C5.89524 30.5652 5 35.0659 5 39.6111Z" stroke="#3C92F4" stroke-width="8.32543" stroke-linecap="round" stroke-linejoin="round"/>
</svg>
