<svg width="68" height="60" viewBox="0 0 68 60" fill="none" xmlns="http://www.w3.org/2000/svg">
<g clip-path="url(#clip0_10808_1769)">
<path d="M60.25 7.5C64.3867 7.5 67.75 10.8633 67.75 15V22.5C67.75 23.5312 66.8828 24.3398 65.9102 24.6797C63.707 25.4414 62.125 27.5391 62.125 30C62.125 32.4609 63.707 34.5586 65.9102 35.3203C66.8828 35.6602 67.75 36.4688 67.75 37.5V45C67.75 49.1367 64.3867 52.5 60.25 52.5H7.75C3.61328 52.5 0.25 49.1367 0.25 45V37.5C0.25 36.4688 1.11719 35.6602 2.08984 35.3203C4.29297 34.5586 5.875 32.4609 5.875 30C5.875 27.5391 4.29297 25.4414 2.08984 24.6797C1.11719 24.3398 0.25 23.5312 0.25 22.5V15C0.25 10.8633 3.61328 7.5 7.75 7.5H60.25ZM31.2578 35.5859C31.0626 35.586 30.8916 35.6593 30.7451 35.8057C30.5986 35.9522 30.5254 36.1239 30.5254 36.3193V40.7158C30.5255 40.9111 30.5986 41.082 30.7451 41.2285C30.8916 41.375 31.0625 41.4482 31.2578 41.4482H35.6543C35.8497 41.4482 36.0214 41.3751 36.168 41.2285C36.3143 41.0821 36.3876 40.911 36.3877 40.7158V36.3193C36.3877 36.1239 36.3145 35.9522 36.168 35.8057C36.0214 35.6591 35.8497 35.5859 35.6543 35.5859H31.2578ZM33.8594 18C30.1467 18 27.3134 19.6245 25.3594 22.873C25.2617 23.0318 25.2283 23.2026 25.2588 23.3857C25.2893 23.5689 25.3842 23.7216 25.543 23.8438L28.5469 26.1338C28.7056 26.2315 28.8584 26.2803 29.0049 26.2803C29.2246 26.2803 29.4136 26.1824 29.5723 25.9873C30.4516 24.8882 31.1058 24.1862 31.5332 23.8809C32.0583 23.5267 32.7179 23.3496 33.5117 23.3496C34.2565 23.3497 34.9127 23.5448 35.4805 23.9355C36.0484 24.3264 36.332 24.7781 36.332 25.291C36.332 25.865 36.1793 26.3294 35.874 26.6836C35.5687 27.0376 35.056 27.3794 34.3359 27.709C33.3834 28.1364 32.5096 28.7987 31.7158 29.6963C30.922 30.5939 30.5254 31.5499 30.5254 32.5635V33.3877C30.5254 33.6197 30.5895 33.8493 30.7178 34.0752C30.8459 34.3009 31.0016 34.414 31.1846 34.4141H35.5811C35.7765 34.4141 35.9482 34.3192 36.0947 34.1299C36.2412 33.9406 36.3145 33.7417 36.3145 33.5342C36.3146 33.2289 36.4826 32.8194 36.8184 32.3066C37.1541 31.7941 37.5718 31.397 38.0723 31.1162C38.5486 30.8475 38.9218 30.6307 39.1904 30.4658C39.4591 30.3009 39.8098 30.0352 40.2432 29.6689C40.6767 29.3026 41.0128 28.9394 41.251 28.5791C41.4891 28.2188 41.7033 27.7517 41.8926 27.1777C42.0818 26.6038 42.1758 25.9866 42.1758 25.3271C42.1757 24.3137 41.9254 23.3457 41.4248 22.4238C40.9241 21.5019 40.2771 20.7229 39.4834 20.0879C38.6896 19.4529 37.7977 18.9469 36.8086 18.5684C35.8194 18.1898 34.8364 18 33.8594 18Z" fill="#BCDCFF"/>
</g>
<defs>
<clipPath id="clip0_10808_1769">
<rect width="67.5" height="60" fill="white" transform="translate(0.25)"/>
</clipPath>
</defs>
</svg>
