<svg width="20" height="20" viewBox="0 0 20 20" fill="none" xmlns="http://www.w3.org/2000/svg">
<path d="M10.0001 1.66016C8.49152 1.66043 7.01131 2.07022 5.71737 2.84579C4.42343 3.62137 3.36429 4.73365 2.65293 6.06397C1.94157 7.3943 1.60468 8.89278 1.6782 10.3996C1.75171 11.9064 2.23287 13.3649 3.07034 14.6197C3.90782 15.8745 5.0702 16.8783 6.4335 17.5243C7.79679 18.1702 9.30986 18.434 10.8113 18.2874C12.3127 18.1408 13.7462 17.5894 14.9589 16.692C16.1715 15.7946 17.1178 14.5849 17.6968 13.1918C17.9809 12.5085 17.3001 11.8218 16.6151 12.1002C15.4411 12.5757 14.1375 12.6248 12.9311 12.2388C11.7246 11.8529 10.6916 11.0563 10.0116 9.98767C9.33153 8.919 9.04755 7.6458 9.20897 6.38945C9.37039 5.1331 9.96701 3.97304 10.8951 3.11099L10.9593 3.04432C11.4184 2.51932 11.0534 1.66682 10.3276 1.66682H10.1059L10.0493 1.66182L10.0001 1.66016Z" fill="#0078FF"/>
</svg>
