<svg width="94" height="94" viewBox="0 0 94 94" fill="none" xmlns="http://www.w3.org/2000/svg">
<rect width="94" height="94" rx="45.7919" fill="#F4AD22"/>
<circle cx="47.0006" cy="47" r="37.361" fill="#F4AD22" stroke="white" stroke-width="4.17778"/>
<path d="M49.6048 24.8057C49.6048 25.2208 49.4434 25.5984 49.1794 25.8788L51.2349 28.4482C51.2628 28.4832 51.3019 28.5076 51.3457 28.5173C51.3895 28.527 51.4352 28.5214 51.4754 28.5014L53.5512 27.4627C53.5063 27.2355 53.5123 27.0011 53.5688 26.7764C53.6252 26.5517 53.7306 26.3423 53.8775 26.1632C54.0245 25.9841 54.2092 25.8398 54.4185 25.7405C54.6278 25.6412 54.8564 25.5895 55.0881 25.589C55.4732 25.5891 55.8449 25.731 56.132 25.9877C56.4191 26.2444 56.6016 26.5979 56.6446 26.9807C56.6876 27.3634 56.5882 27.7486 56.3652 28.0626C56.1422 28.3767 55.8114 28.5976 55.4359 28.6832L54.0228 36.2212C53.9637 36.5354 53.7968 36.819 53.5508 37.0232C53.3047 37.2273 52.9951 37.339 52.6754 37.339H43.4008C43.0811 37.339 42.7714 37.2273 42.5254 37.0232C42.2794 36.819 42.1124 36.5354 42.0534 36.2212L40.6403 28.6832C40.34 28.6147 40.0665 28.4592 39.8541 28.2361C39.6416 28.0131 39.4997 27.7324 39.4459 27.4291C39.3922 27.1257 39.429 26.8133 39.5519 26.5309C39.6747 26.2484 39.8781 26.0084 40.1366 25.8409C40.3951 25.6734 40.6973 25.5858 41.0053 25.5891C41.3133 25.5924 41.6135 25.6864 41.8684 25.8594C42.1232 26.0324 42.3214 26.2767 42.4382 26.5617C42.555 26.8467 42.5852 27.1598 42.525 27.4619L44.6008 28.5006C44.6409 28.5206 44.6867 28.5262 44.7305 28.5165C44.7743 28.5068 44.8134 28.4824 44.8413 28.4474L46.8968 25.878C46.7216 25.6918 46.5948 25.4655 46.5272 25.219C46.4596 24.9725 46.4533 24.7131 46.509 24.4636C46.5647 24.2141 46.6806 23.982 46.8466 23.7876C47.0125 23.5932 47.2236 23.4423 47.4613 23.3482C47.6989 23.2541 47.956 23.2195 48.2101 23.2476C48.4642 23.2757 48.7076 23.3655 48.919 23.5092C49.1304 23.653 49.3034 23.8463 49.4229 24.0722C49.5425 24.2982 49.6049 24.55 49.6048 24.8057ZM48.0381 34.2057C48.4536 34.2057 48.8521 34.0406 49.1459 33.7468C49.4397 33.453 49.6048 33.0545 49.6048 32.639C49.6048 32.2235 49.4397 31.825 49.1459 31.5312C48.8521 31.2374 48.4536 31.0723 48.0381 31.0723C47.6226 31.0723 47.2241 31.2374 46.9303 31.5312C46.6365 31.825 46.4714 32.2235 46.4714 32.639C46.4714 33.0545 46.6365 33.453 46.9303 33.7468C47.2241 34.0406 47.6226 34.2057 48.0381 34.2057Z" fill="white"/>
<path fill-rule="evenodd" clip-rule="evenodd" d="M53.157 40.0229C54.0763 40.023 54.9774 40.2789 55.7594 40.7622C56.5413 41.2454 57.1733 41.9368 57.5846 42.759L59.8718 47.3318C60.2744 47.1667 60.6705 46.9885 61.0599 46.7971C61.4516 46.6015 61.905 46.5694 62.3203 46.7081C62.7357 46.8467 63.0789 47.1447 63.2745 47.5364C63.4702 47.9281 63.5022 48.3815 63.3635 48.7968C63.2249 49.2121 62.9269 49.5554 62.5352 49.751C62.1386 49.9275 61.7397 50.0992 61.3388 50.2659L62.9247 53.4392C63.2689 54.1273 63.448 54.8861 63.4478 55.6555V59.8256C63.4478 60.5221 63.3008 61.2108 63.0164 61.8466C62.7321 62.4825 62.3167 63.0511 61.7976 63.5155V65.6014C61.7976 66.2579 61.5368 66.8875 61.0726 67.3517C60.6084 67.8159 59.9787 68.0767 59.3222 68.0767C58.6657 68.0767 58.0361 67.8159 57.5719 67.3517C57.1077 66.8875 56.8469 66.2579 56.8469 65.6014V64.7763H37.0442V65.6014C37.0442 66.2579 36.7835 66.8875 36.3192 67.3517C35.855 67.8159 35.2254 68.0767 34.5689 68.0767C33.9124 68.0767 33.2828 67.8159 32.8186 67.3517C32.3544 66.8875 32.0936 66.2579 32.0936 65.6014V63.5155C31.0803 62.6079 30.4434 61.291 30.4434 59.8256V55.6538C30.4437 54.8856 30.6228 54.128 30.9665 53.4409L32.5391 50.2923C32.1409 50.125 31.7476 49.9452 31.3592 49.7526C30.9695 49.5545 30.6733 49.2111 30.5343 48.7965C30.3954 48.3819 30.425 47.9294 30.6166 47.5364C30.7134 47.3424 30.8475 47.1693 31.0112 47.0272C31.1749 46.885 31.3651 46.7765 31.5707 46.7078C31.7764 46.6392 31.9936 46.6117 32.2099 46.627C32.4261 46.6423 32.6373 46.7001 32.8312 46.7971C33.2218 46.9896 33.6178 47.1678 34.0194 47.3318L36.3066 42.7607C36.7176 41.9382 37.3495 41.2464 38.1315 40.7629C38.9135 40.2793 39.8147 40.0231 40.7341 40.0229H53.157ZM39.5196 54.8749C38.8631 54.8749 38.2335 55.1357 37.7693 55.5999C37.305 56.0642 37.0442 56.6938 37.0442 57.3503C37.0442 58.0068 37.305 58.6364 37.7693 59.1006C38.2335 59.5648 38.8631 59.8256 39.5196 59.8256C40.1761 59.8256 40.8057 59.5648 41.2699 59.1006C41.7341 58.6364 41.9949 58.0068 41.9949 57.3503C41.9949 56.6938 41.7341 56.0642 41.2699 55.5999C40.8057 55.1357 40.1761 54.8749 39.5196 54.8749ZM54.3716 54.8749C53.7151 54.8749 53.0855 55.1357 52.6213 55.5999C52.157 56.0642 51.8962 56.6938 51.8962 57.3503C51.8962 58.0068 52.157 58.6364 52.6213 59.1006C53.0855 59.5648 53.7151 59.8256 54.3716 59.8256C55.0281 59.8256 55.6577 59.5648 56.1219 59.1006C56.5861 58.6364 56.8469 58.0068 56.8469 57.3503C56.8469 56.6938 56.5861 56.0642 56.1219 55.5999C55.6577 55.1357 55.0281 54.8749 54.3716 54.8749ZM53.157 43.3234H40.7341C40.4625 43.3233 40.1951 43.3903 39.9556 43.5184C39.7161 43.6465 39.5119 43.8318 39.3612 44.0577L39.2588 44.236L37.1631 48.4242C39.7176 49.1899 43.16 49.9243 46.9456 49.9243C50.4804 49.9243 53.7131 49.284 56.2033 48.576L56.7264 48.4242L54.6323 44.236C54.5109 43.9931 54.3314 43.7839 54.1097 43.627C53.888 43.4701 53.6311 43.3704 53.3616 43.3366L53.1587 43.3234H53.157Z" fill="white"/>
</svg>
