<svg width="325" height="243" viewBox="0 0 325 243" fill="none" xmlns="http://www.w3.org/2000/svg">
<path d="M292.434 223.506H270.906V223.668H292.434V223.506Z" fill="#EBEBEB"/>
<path d="M215.293 225.273H209.644V225.436H215.293V225.273Z" fill="#EBEBEB"/>
<path d="M270.257 217.474H257.783V217.636H270.257V217.474Z" fill="#EBEBEB"/>
<path d="M62.1731 218.565H34.0996V218.728H62.1731V218.565Z" fill="#EBEBEB"/>
<path d="M72.0779 218.565H67.9634V218.728H72.0779V218.565Z" fill="#EBEBEB"/>
<path d="M146.348 221.309H85.4556V221.471H146.348V221.309Z" fill="#EBEBEB"/>
<path d="M154.96 184.057H29.4454C28.461 184.057 27.517 183.666 26.821 182.97C26.1249 182.274 25.7339 181.33 25.7339 180.346V3.9163C25.7425 2.9376 26.1373 2.00189 26.8324 1.31286C27.5275 0.623835 28.4666 0.237267 29.4454 0.237305H154.96C155.448 0.237305 155.93 0.333305 156.381 0.519825C156.831 0.706345 157.24 0.979733 157.585 1.32438C157.929 1.66902 158.203 2.07818 158.389 2.52848C158.576 2.97878 158.672 3.4614 158.672 3.9488V180.346C158.672 180.833 158.576 181.316 158.389 181.766C158.203 182.216 157.929 182.626 157.585 182.97C157.24 183.315 156.831 183.588 156.381 183.775C155.93 183.961 155.448 184.057 154.96 184.057ZM29.4454 0.367305C28.5047 0.369023 27.603 0.743486 26.9378 1.40868C26.2726 2.07387 25.8981 2.97558 25.8964 3.9163V180.346C25.8981 181.286 26.2726 182.188 26.9378 182.853C27.603 183.519 28.5047 183.893 29.4454 183.895H154.96C155.901 183.893 156.803 183.519 157.468 182.853C158.133 182.188 158.508 181.286 158.509 180.346V3.9163C158.508 2.97558 158.133 2.07387 157.468 1.40868C156.803 0.743486 155.901 0.369023 154.96 0.367305H29.4454Z" fill="#EBEBEB"/>
<path d="M295.556 184.057H170.041C169.056 184.057 168.112 183.666 167.416 182.97C166.72 182.274 166.329 181.33 166.329 180.346V3.9163C166.338 2.9376 166.732 2.00189 167.428 1.31286C168.123 0.623835 169.062 0.237267 170.041 0.237305H295.556C296.54 0.237305 297.484 0.628337 298.18 1.32438C298.876 2.02042 299.267 2.96445 299.267 3.9488V180.346C299.267 181.33 298.876 182.274 298.18 182.97C297.484 183.666 296.54 184.057 295.556 184.057ZM170.041 0.367305C169.1 0.369023 168.198 0.743486 167.533 1.40868C166.868 2.07387 166.493 2.97558 166.492 3.9163V180.346C166.493 181.286 166.868 182.188 167.533 182.853C168.198 183.519 169.1 183.893 170.041 183.895H295.556C296.496 183.893 297.398 183.519 298.063 182.853C298.728 182.188 299.103 181.286 299.105 180.346V3.9163C299.103 2.97558 298.728 2.07387 298.063 1.40868C297.398 0.743486 296.496 0.369023 295.556 0.367305H170.041Z" fill="#EBEBEB"/>
<path d="M325 213.047H0V213.209H325V213.047Z" fill="#EBEBEB"/>
<path d="M77.5641 169.075C77.0181 162.796 70.6091 160.449 63.0106 161.112C55.4121 161.775 49.5166 165.201 50.0496 171.48L77.5641 169.075Z" fill="#F0F0F0"/>
<path d="M62.7623 158.245C66.2853 157.933 67.4098 154.956 67.1043 151.433C66.7988 147.91 65.1543 145.174 61.6443 145.479C58.1343 145.785 56.9968 148.768 57.3023 152.291C57.6078 155.814 59.2393 158.551 62.7623 158.245Z" fill="#F0F0F0"/>
<path d="M221.068 35.3376C221.129 36.0344 220.983 36.7339 220.647 37.3476C220.311 37.9612 219.8 38.4613 219.18 38.7848C218.56 39.1082 217.857 39.2403 217.162 39.1644C216.466 39.0886 215.809 38.8081 215.273 38.3585C214.737 37.909 214.346 37.3105 214.151 36.6389C213.955 35.9673 213.963 35.2526 214.173 34.5855C214.384 33.9183 214.787 33.3285 215.333 32.8908C215.879 32.4531 216.542 32.1872 217.239 32.1266C218.172 32.0454 219.1 32.338 219.818 32.94C220.535 33.5421 220.985 34.4044 221.068 35.3376Z" fill="#F5F5F5"/>
<path d="M240.611 33.6085C240.671 34.3039 240.524 35.0017 240.188 35.6134C239.852 36.2252 239.342 36.7236 238.722 37.0455C238.103 37.3674 237.402 37.4985 236.708 37.422C236.014 37.3456 235.359 37.0651 234.824 36.6161C234.29 36.1671 233.9 35.5697 233.705 34.8994C233.51 34.2291 233.519 33.5161 233.729 32.8505C233.939 32.1849 234.342 31.5965 234.887 31.1599C235.431 30.7233 236.093 30.458 236.789 30.3975C237.721 30.3182 238.647 30.6116 239.363 31.2134C240.079 31.8153 240.528 32.6765 240.611 33.6085Z" fill="#F5F5F5"/>
<path d="M260.16 31.8991C260.222 32.596 260.076 33.2955 259.74 33.9091C259.404 34.5227 258.893 35.0229 258.273 35.3463C257.652 35.6697 256.95 35.8018 256.255 35.726C255.559 35.6501 254.902 35.3696 254.366 34.9201C253.83 34.4705 253.439 33.872 253.243 33.2004C253.048 32.5288 253.055 31.8142 253.266 31.147C253.476 30.4798 253.88 29.8901 254.426 29.4524C254.972 29.0147 255.635 28.7487 256.332 28.6881C257.265 28.607 258.193 28.8995 258.91 29.5016C259.628 30.1036 260.078 30.9659 260.16 31.8991Z" fill="#F5F5F5"/>
<path d="M222.808 55.2399C222.87 55.9368 222.723 56.6363 222.387 57.2499C222.051 57.8635 221.541 58.3637 220.921 58.6871C220.3 59.0105 219.598 59.1427 218.903 59.0668C218.207 58.9909 217.55 58.7105 217.014 58.2609C216.478 57.8113 216.087 57.2129 215.891 56.5412C215.696 55.8696 215.703 55.155 215.914 54.4878C216.124 53.8206 216.528 53.2309 217.074 52.7932C217.619 52.3555 218.283 52.0895 218.98 52.0289C219.913 51.9478 220.84 52.2403 221.558 52.8424C222.276 53.4444 222.726 54.3067 222.808 55.2399Z" fill="#F5F5F5"/>
<path d="M242.351 53.5377C242.412 54.2332 242.265 54.9309 241.928 55.5427C241.592 56.1544 241.082 56.6528 240.463 56.9747C239.844 57.2967 239.143 57.4277 238.449 57.3513C237.755 57.2748 237.099 56.9944 236.565 56.5454C236.03 56.0963 235.641 55.4989 235.446 54.8286C235.251 54.1584 235.259 53.4453 235.47 52.7797C235.68 52.1141 236.083 51.5258 236.628 51.0891C237.172 50.6525 237.834 50.3872 238.529 50.3267C238.991 50.2866 239.456 50.3378 239.898 50.4774C240.34 50.6171 240.751 50.8424 241.106 51.1406C241.46 51.4388 241.753 51.8039 241.967 52.2152C242.181 52.6266 242.311 53.0759 242.351 53.5377Z" fill="#F5F5F5"/>
<path d="M261.905 51.821C261.967 52.5178 261.821 53.2173 261.485 53.831C261.149 54.4446 260.638 54.9447 260.018 55.2682C259.397 55.5916 258.695 55.7237 258 55.6478C257.304 55.572 256.647 55.2915 256.111 54.8419C255.575 54.3924 255.184 53.7939 254.988 53.1223C254.793 52.4507 254.801 51.736 255.011 51.0689C255.221 50.4017 255.625 49.8119 256.171 49.3742C256.717 48.9365 257.38 48.6706 258.077 48.61C259.01 48.5288 259.938 48.8214 260.655 49.4234C261.373 50.0255 261.823 50.8878 261.905 51.821Z" fill="#F5F5F5"/>
<path d="M224.551 75.1691C224.612 75.8646 224.464 76.5623 224.128 77.1741C223.792 77.7859 223.282 78.2842 222.663 78.6061C222.043 78.9281 221.342 79.0591 220.648 78.9827C219.955 78.9062 219.299 78.6258 218.765 78.1768C218.23 77.7277 217.841 77.1303 217.646 76.46C217.451 75.7898 217.459 75.0767 217.669 74.4111C217.88 73.7455 218.283 73.1572 218.827 72.7206C219.372 72.2839 220.034 72.0186 220.729 71.9581C221.191 71.9171 221.657 71.9677 222.099 72.107C222.541 72.2463 222.952 72.4716 223.307 72.7699C223.662 73.0683 223.955 73.4338 224.168 73.8455C224.382 74.2572 224.512 74.707 224.551 75.1691Z" fill="#F5F5F5"/>
<path d="M244.101 73.4528C244.162 74.1497 244.016 74.8492 243.68 75.4628C243.344 76.0764 242.833 76.5766 242.213 76.9C241.593 77.2234 240.89 77.3555 240.195 77.2797C239.5 77.2038 238.842 76.9233 238.306 76.4738C237.77 76.0242 237.38 75.4258 237.184 74.7541C236.988 74.0825 236.996 73.3679 237.206 72.7007C237.417 72.0335 237.82 71.4438 238.366 71.0061C238.912 70.5684 239.575 70.3024 240.272 70.2418C241.206 70.1607 242.133 70.4532 242.851 71.0553C243.569 71.6573 244.018 72.5196 244.101 73.4528Z" fill="#F5F5F5"/>
<path d="M263.646 71.737C263.708 72.4339 263.561 73.1334 263.225 73.747C262.889 74.3606 262.379 74.8608 261.759 75.1842C261.138 75.5076 260.436 75.6397 259.74 75.5638C259.045 75.488 258.388 75.2075 257.852 74.758C257.316 74.3084 256.925 73.7099 256.729 73.0383C256.533 72.3667 256.541 71.6521 256.752 70.9849C256.962 70.3177 257.366 69.728 257.912 69.2903C258.457 68.8526 259.121 68.5866 259.818 68.526C260.751 68.4448 261.678 68.7374 262.396 69.3395C263.114 69.9415 263.564 70.8038 263.646 71.737Z" fill="#F5F5F5"/>
<path d="M259.42 72.8939L219.263 76.4039L254.87 33.1399L218.399 36.3314C218.297 36.3412 218.194 36.3305 218.096 36.3C217.999 36.2695 217.908 36.2198 217.83 36.1538C217.752 36.0878 217.688 36.0068 217.641 35.9156C217.595 35.8245 217.567 35.7249 217.56 35.6229C217.542 35.4186 217.606 35.2156 217.738 35.0583C217.869 34.9011 218.058 34.8026 218.262 34.7844L258.426 31.2744L222.812 74.5384L259.297 71.3469C259.502 71.3306 259.706 71.3957 259.864 71.5283C260.022 71.6608 260.122 71.8501 260.142 72.0554C260.15 72.1579 260.137 72.2609 260.105 72.3586C260.073 72.4563 260.022 72.5467 259.955 72.6247C259.888 72.7026 259.806 72.7665 259.715 72.8127C259.623 72.8589 259.523 72.8865 259.42 72.8939Z" fill="#E6E6E6"/>
<path d="M260.039 150.134C259.977 149.944 259.861 149.777 259.705 149.654C259.549 149.53 259.36 149.455 259.161 149.438C257.415 149.358 255.762 148.627 254.527 147.391C252.921 145.772 251.979 143.322 251.823 140.41C251.808 140.147 251.693 139.9 251.503 139.719C251.312 139.537 251.059 139.436 250.796 139.435C250.654 139.435 250.513 139.465 250.382 139.521C250.252 139.578 250.134 139.66 250.036 139.763C249.939 139.867 249.863 139.989 249.813 140.122C249.764 140.256 249.742 140.398 249.749 140.54C249.931 143.959 251.088 146.884 253.058 148.853C254.6 150.398 256.646 151.337 258.823 151.499H258.973C259.144 151.512 259.315 151.482 259.472 151.413C259.629 151.344 259.766 151.237 259.872 151.102C259.977 150.967 260.048 150.808 260.077 150.639C260.106 150.47 260.093 150.296 260.039 150.134Z" fill="#F0F0F0"/>
<path d="M257.958 162.607C249.346 161.853 243.132 155.984 241.169 146.819C241.137 146.681 241.134 146.538 241.159 146.4C241.185 146.261 241.238 146.128 241.316 146.011C241.393 145.893 241.494 145.792 241.612 145.714C241.729 145.636 241.862 145.583 242.001 145.558C242.264 145.511 242.535 145.567 242.757 145.715C242.98 145.862 243.137 146.09 243.197 146.351C244.958 154.586 250.483 159.864 258.147 160.534C266.545 161.268 275.56 155.743 277.179 141.82C277.206 141.549 277.34 141.299 277.55 141.125C277.761 140.951 278.031 140.867 278.303 140.891C278.441 140.902 278.575 140.941 278.697 141.005C278.82 141.069 278.928 141.157 279.016 141.263C279.104 141.37 279.169 141.493 279.209 141.626C279.248 141.758 279.261 141.897 279.246 142.035C277.692 155.165 269.06 163.576 257.958 162.607Z" fill="#F0F0F0"/>
<path d="M241.709 137.687C241.571 137.675 241.437 137.636 241.315 137.572C241.192 137.508 241.084 137.42 240.996 137.314C240.908 137.207 240.843 137.084 240.803 136.951C240.764 136.819 240.751 136.68 240.767 136.543C242.314 123.413 250.946 114.995 262.041 115.97C271.791 116.822 278.324 124.102 279.344 135.067C279.355 135.205 279.338 135.343 279.294 135.474C279.251 135.605 279.182 135.726 279.091 135.831C279 135.935 278.89 136.02 278.766 136.08C278.642 136.141 278.507 136.177 278.369 136.185C278.098 136.198 277.832 136.105 277.628 135.925C277.425 135.746 277.299 135.494 277.277 135.223C276.335 125.343 270.504 118.798 261.866 118.044C253.5 117.309 244.446 122.828 242.834 136.738C242.822 136.874 242.784 137.006 242.721 137.128C242.658 137.249 242.572 137.357 242.468 137.445C242.364 137.533 242.243 137.6 242.113 137.641C241.982 137.683 241.845 137.698 241.709 137.687Z" fill="#F0F0F0"/>
<path d="M258.383 157.036C256.839 156.913 255.325 156.535 253.904 155.918C253.772 155.86 253.653 155.775 253.555 155.669C253.457 155.563 253.382 155.437 253.335 155.3C253.288 155.163 253.269 155.018 253.281 154.874C253.293 154.73 253.335 154.59 253.404 154.462C253.525 154.239 253.726 154.069 253.966 153.985C254.206 153.901 254.469 153.909 254.704 154.007C256.059 154.589 257.507 154.924 258.981 154.995C265.344 155.359 272.065 150.848 272.728 139.954C273.131 133.24 270.83 127.819 266.54 125.225C266.318 125.091 266.154 124.879 266.081 124.63C266.008 124.381 266.03 124.113 266.144 123.88C266.208 123.751 266.299 123.637 266.409 123.544C266.52 123.452 266.649 123.383 266.787 123.342C266.925 123.301 267.071 123.289 267.214 123.307C267.357 123.324 267.495 123.371 267.619 123.444C272.592 126.447 275.257 132.544 274.802 140.078C274.152 150.582 267.613 157.576 258.857 157.075L258.383 157.036Z" fill="#F0F0F0"/>
<path d="M249.128 150.556C249.008 150.637 248.873 150.692 248.731 150.719C248.589 150.745 248.443 150.742 248.302 150.71C248.161 150.678 248.028 150.617 247.912 150.531C247.796 150.445 247.698 150.336 247.626 150.211C245.699 146.629 244.853 142.565 245.189 138.511C245.8 128.456 251.825 121.611 260.009 121.494C260.153 121.491 260.296 121.518 260.429 121.573C260.562 121.628 260.683 121.71 260.783 121.814C260.883 121.918 260.961 122.041 261.011 122.176C261.061 122.311 261.083 122.455 261.075 122.599C261.058 122.859 260.945 123.104 260.757 123.284C260.57 123.465 260.321 123.568 260.061 123.574C253.99 123.691 247.893 128.28 247.269 138.635C246.953 142.294 247.707 145.966 249.44 149.204C249.57 149.429 249.61 149.694 249.552 149.948C249.494 150.201 249.343 150.423 249.128 150.569V150.556Z" fill="#F0F0F0"/>
<path d="M263.336 149.738C263.237 149.506 263.226 149.247 263.303 149.008C263.381 148.769 263.542 148.567 263.758 148.438C266.495 146.793 268.172 143.342 268.198 139.175C268.198 135.841 267.255 133.02 265.474 131.232C264.782 130.547 263.958 130.01 263.052 129.655C262.145 129.299 261.176 129.133 260.203 129.165C256.998 129.165 254.398 130.927 252.962 134.021C252.851 134.256 252.655 134.441 252.414 134.538C252.174 134.636 251.905 134.639 251.662 134.547C251.526 134.497 251.402 134.419 251.298 134.319C251.194 134.218 251.112 134.097 251.057 133.964C251.002 133.83 250.975 133.686 250.979 133.542C250.982 133.397 251.015 133.255 251.077 133.124C252.858 129.334 256.192 127.092 260.177 127.085C261.425 127.053 262.666 127.274 263.827 127.734C264.988 128.194 266.043 128.884 266.93 129.763C269.108 131.947 270.291 135.295 270.265 139.195C270.226 144.102 268.159 148.223 264.792 150.245C264.664 150.314 264.523 150.356 264.379 150.368C264.234 150.38 264.088 150.362 263.951 150.314C263.814 150.266 263.688 150.19 263.582 150.091C263.476 149.992 263.392 149.871 263.336 149.738Z" fill="#F0F0F0"/>
<path d="M255.848 142.061C255.709 142.118 255.559 142.144 255.409 142.137C255.26 142.131 255.113 142.092 254.98 142.023C254.846 141.955 254.729 141.858 254.637 141.74C254.544 141.622 254.478 141.486 254.444 141.34C254.372 141.06 254.32 140.768 254.275 140.469C253.683 136.569 255.776 133.195 259.137 132.591C259.919 132.421 260.73 132.436 261.506 132.636C262.281 132.836 262.999 133.214 263.602 133.741C263.715 133.842 263.804 133.967 263.862 134.106C263.921 134.246 263.947 134.397 263.939 134.548C263.93 134.699 263.888 134.847 263.815 134.979C263.743 135.112 263.641 135.226 263.518 135.314L263.453 135.36C263.258 135.495 263.022 135.56 262.785 135.542C262.548 135.524 262.325 135.425 262.153 135.262C261.788 134.954 261.357 134.736 260.893 134.623C260.43 134.51 259.946 134.506 259.481 134.612C256.92 135.074 255.945 137.739 256.309 140.131C256.348 140.365 256.387 140.592 256.446 140.781C256.508 141.026 256.48 141.285 256.367 141.511C256.253 141.736 256.062 141.914 255.828 142.009L255.848 142.061Z" fill="#F0F0F0"/>
<path d="M259.284 146.065C259.12 146.049 258.963 145.992 258.827 145.898C258.692 145.804 258.582 145.678 258.51 145.53C258.437 145.382 258.403 145.218 258.411 145.054C258.419 144.889 258.469 144.73 258.556 144.59L258.647 144.447C258.74 144.298 258.872 144.177 259.029 144.098C259.186 144.019 259.362 143.984 259.537 143.998C259.863 144.017 260.191 143.997 260.512 143.94C262.748 143.537 263.762 141.457 263.762 139.338C263.756 139.083 263.842 138.835 264.004 138.639C264.167 138.443 264.395 138.312 264.646 138.272C264.791 138.25 264.938 138.258 265.079 138.297C265.219 138.335 265.35 138.403 265.463 138.496C265.576 138.588 265.668 138.704 265.733 138.834C265.799 138.965 265.836 139.107 265.842 139.253C265.901 142.646 263.892 145.448 260.883 145.987C260.356 146.085 259.818 146.111 259.284 146.065Z" fill="#F0F0F0"/>
<path d="M259.746 142.224C259.221 142.18 258.723 141.972 258.322 141.631C257.921 141.289 257.637 140.83 257.51 140.319C257.474 140.175 257.472 140.024 257.505 139.879C257.539 139.734 257.606 139.599 257.702 139.485C257.798 139.371 257.92 139.282 258.057 139.225C258.194 139.168 258.343 139.144 258.492 139.156H258.732C258.914 139.175 259.087 139.246 259.229 139.362C259.371 139.477 259.476 139.631 259.532 139.806C259.554 139.896 259.605 139.978 259.676 140.038C259.747 140.099 259.835 140.136 259.928 140.144C260.429 140.189 260.513 139.494 260.526 139.325C260.556 139.072 260.509 138.816 260.39 138.59C260.21 138.373 260.118 138.098 260.13 137.817C260.146 137.61 260.224 137.413 260.353 137.251C260.482 137.089 260.657 136.969 260.854 136.907C261.052 136.845 261.264 136.843 261.462 136.902C261.661 136.961 261.838 137.078 261.969 137.238C262.476 137.879 262.71 138.694 262.619 139.507C262.45 141.216 261.248 142.354 259.746 142.224Z" fill="#F0F0F0"/>
<path d="M240.193 118.959C240.058 118.948 239.925 118.91 239.804 118.847C239.683 118.784 239.576 118.698 239.488 118.593C239.4 118.489 239.334 118.368 239.294 118.238C239.253 118.108 239.238 117.971 239.251 117.835L240.037 108.819L249.053 109.612C249.189 109.624 249.321 109.662 249.442 109.725C249.563 109.788 249.671 109.874 249.758 109.978C249.846 110.083 249.912 110.204 249.953 110.334C249.993 110.464 250.008 110.601 249.995 110.737C249.984 110.873 249.946 111.006 249.883 111.127C249.82 111.248 249.734 111.356 249.63 111.444C249.525 111.533 249.405 111.599 249.274 111.641C249.144 111.682 249.007 111.697 248.871 111.686L241.929 111.075L241.324 118.017C241.312 118.153 241.273 118.285 241.21 118.407C241.146 118.528 241.059 118.635 240.954 118.723C240.849 118.81 240.728 118.876 240.597 118.917C240.467 118.957 240.33 118.972 240.193 118.959Z" fill="#F0F0F0"/>
<path d="M283.049 122.71C282.913 122.698 282.781 122.66 282.66 122.597C282.539 122.534 282.431 122.448 282.344 122.344C282.256 122.239 282.19 122.118 282.149 121.988C282.109 121.858 282.094 121.721 282.107 121.585L282.711 114.643L275.769 114.039C275.633 114.027 275.5 113.988 275.379 113.924C275.258 113.861 275.151 113.774 275.063 113.669C274.976 113.564 274.91 113.442 274.869 113.312C274.829 113.181 274.814 113.044 274.827 112.908C274.838 112.772 274.876 112.64 274.939 112.518C275.002 112.397 275.088 112.29 275.193 112.202C275.297 112.115 275.418 112.049 275.548 112.008C275.678 111.967 275.815 111.953 275.951 111.965L284.967 112.752L284.18 121.787C284.151 122.058 284.015 122.307 283.804 122.48C283.592 122.653 283.321 122.735 283.049 122.71Z" fill="#F0F0F0"/>
<path d="M279.855 171.187L270.84 170.401C270.704 170.389 270.571 170.35 270.45 170.286C270.329 170.223 270.222 170.136 270.134 170.031C270.047 169.926 269.981 169.804 269.94 169.674C269.899 169.543 269.885 169.406 269.897 169.27C269.909 169.134 269.947 169.002 270.01 168.88C270.073 168.759 270.159 168.652 270.263 168.564C270.368 168.477 270.489 168.411 270.619 168.37C270.749 168.329 270.886 168.315 271.022 168.327L277.964 168.932L278.568 161.996C278.58 161.86 278.618 161.726 278.681 161.605C278.745 161.483 278.831 161.374 278.936 161.286C279.041 161.198 279.163 161.132 279.294 161.091C279.425 161.049 279.563 161.035 279.699 161.047C279.835 161.059 279.968 161.097 280.089 161.16C280.21 161.223 280.317 161.309 280.405 161.413C280.492 161.518 280.559 161.639 280.599 161.769C280.64 161.899 280.654 162.036 280.642 162.172L279.855 171.187Z" fill="#F0F0F0"/>
<path d="M243.945 168.029L234.93 167.236L235.716 158.227C235.743 157.952 235.876 157.698 236.088 157.521C236.299 157.343 236.572 157.256 236.847 157.278C236.983 157.29 237.116 157.329 237.237 157.392C237.358 157.456 237.465 157.543 237.553 157.648C237.641 157.753 237.707 157.874 237.747 158.005C237.788 158.135 237.802 158.272 237.79 158.409L237.185 165.338L244.121 165.949C244.257 165.96 244.389 165.998 244.511 166.061C244.632 166.124 244.74 166.21 244.828 166.314C244.916 166.419 244.983 166.539 245.024 166.67C245.066 166.8 245.081 166.937 245.07 167.073C245.046 167.349 244.915 167.604 244.705 167.783C244.494 167.962 244.221 168.05 243.945 168.029Z" fill="#F0F0F0"/>
<path d="M48.5749 148.522C48.4056 148.534 48.2379 148.48 48.108 148.371C47.978 148.261 47.896 148.106 47.8794 147.937L47.3984 142.398L52.9364 141.911C53.1058 141.898 53.2734 141.952 53.4034 142.062C53.5334 142.171 53.6154 142.327 53.6319 142.496C53.6429 142.664 53.588 142.83 53.4788 142.959C53.3696 143.087 53.2148 143.169 53.0469 143.185L48.7829 143.562L49.1534 147.826C49.1662 147.994 49.113 148.161 49.005 148.291C48.8971 148.421 48.7428 148.503 48.5749 148.522Z" fill="#E0E0E0"/>
<path d="M74.9254 146.214C74.7571 146.227 74.5903 146.174 74.4605 146.066C74.3307 145.958 74.248 145.803 74.2299 145.635L73.8594 141.365L69.5889 141.742C69.4195 141.755 69.2519 141.701 69.1219 141.591C68.992 141.482 68.9099 141.326 68.8934 141.157C68.8807 140.988 68.9348 140.82 69.0442 140.69C69.1535 140.56 69.3094 140.478 69.4784 140.461L75.0164 139.98L75.5039 145.518C75.5167 145.687 75.4635 145.854 75.3555 145.983C75.2475 146.113 75.0933 146.196 74.9254 146.214Z" fill="#E0E0E0"/>
<path d="M77.6539 170.076L72.1094 170.564C71.9401 170.576 71.7724 170.522 71.6424 170.413C71.5125 170.303 71.4304 170.148 71.4139 169.979C71.4012 169.809 71.4553 169.642 71.5647 169.512C71.674 169.382 71.8299 169.3 71.9989 169.283L76.2629 168.913L75.8924 164.649C75.8796 164.48 75.9329 164.313 76.0408 164.184C76.1488 164.054 76.3031 163.971 76.4709 163.953C76.6393 163.94 76.806 163.993 76.9358 164.101C77.0656 164.209 77.1483 164.364 77.1664 164.532L77.6539 170.076Z" fill="#E0E0E0"/>
<path d="M55.5689 172.006L50.0504 172.487L49.5629 166.942C49.552 166.774 49.6069 166.608 49.716 166.48C49.8252 166.351 49.98 166.27 50.1479 166.253C50.3152 166.242 50.4803 166.296 50.6086 166.404C50.737 166.512 50.8188 166.665 50.8369 166.832L51.2139 171.102L55.4779 170.725C55.6473 170.713 55.8149 170.767 55.9449 170.876C56.0749 170.985 56.1569 171.141 56.1734 171.31C56.1796 171.396 56.1688 171.482 56.1418 171.563C56.1147 171.644 56.0719 171.719 56.0157 171.784C55.9595 171.848 55.8911 171.901 55.8144 171.939C55.7378 171.977 55.6543 172 55.5689 172.006Z" fill="#E0E0E0"/>
<path d="M74.4745 56.1378L53.2975 57.9578L52.862 52.9983C52.8302 50.6313 53.6945 48.3398 55.2816 46.5835C56.8688 44.8272 59.0613 43.7359 61.4194 43.5287C63.7775 43.3214 66.1267 44.0134 67.9959 45.466C69.8651 46.9185 71.1159 49.024 71.4975 51.3603L71.7445 54.2463L74.806 53.9798L74.5525 51.0938C74.4099 49.466 73.9482 47.8822 73.1935 46.4328C72.4389 44.9835 71.4062 43.697 70.1544 42.6468C68.9025 41.5965 67.4561 40.8032 65.8977 40.3119C64.3392 39.8207 62.6993 39.6412 61.0715 39.7838C57.784 40.0717 54.7455 41.6537 52.6245 44.1819C51.5743 45.4337 50.7809 46.8801 50.2896 48.4386C49.7984 49.997 49.6189 51.637 49.7615 53.2648L50.197 58.2568C48.9911 58.4928 47.9151 59.1663 47.176 60.1479C46.4368 61.1294 46.0867 62.3496 46.193 63.5738L47.7075 80.8898C47.7615 81.5433 47.9441 82.1798 48.2448 82.7625C48.5455 83.3453 48.9583 83.8629 49.4596 84.2857C49.9609 84.7085 50.5408 85.0281 51.1659 85.2261C51.7911 85.4242 52.4492 85.4968 53.1025 85.4398L76.847 83.3663C77.5005 83.3122 78.137 83.1297 78.7197 82.829C79.3025 82.5283 79.8202 82.1155 80.243 81.6142C80.6657 81.1129 80.9853 80.533 81.1834 79.9078C81.3814 79.2827 81.454 78.6246 81.397 77.9713L79.8825 60.6553C79.8245 60.0034 79.6385 59.3693 79.3353 58.7893C79.032 58.2094 78.6174 57.6949 78.1151 57.2753C77.6128 56.8557 77.0327 56.5393 76.408 56.3441C75.7833 56.1489 75.1263 56.0788 74.4745 56.1378ZM65.4655 69.4823L65.9855 75.4428C66.0205 75.6827 66.0061 75.9272 65.9433 76.1613C65.8805 76.3955 65.7705 76.6143 65.6202 76.8045C65.4698 76.9947 65.2822 77.1521 65.0689 77.2672C64.8555 77.3824 64.6209 77.4527 64.3794 77.474C64.1379 77.4953 63.8946 77.467 63.6644 77.3909C63.4342 77.3149 63.222 77.1926 63.0407 77.0317C62.8594 76.8707 62.7129 76.6745 62.6101 76.4549C62.5073 76.2353 62.4505 75.9971 62.443 75.7548L61.923 69.7878C61.3868 69.4585 60.9681 68.9684 60.7266 68.3873C60.4851 67.8062 60.4331 67.1637 60.578 66.5514C60.7229 65.939 61.0573 65.388 61.5336 64.9767C62.0099 64.5655 62.6038 64.315 63.2308 64.2609C63.8577 64.2068 64.4858 64.352 65.0254 64.6756C65.5651 64.9992 65.9889 65.4849 66.2365 66.0634C66.4841 66.6419 66.5429 67.2838 66.4044 67.8976C66.266 68.5115 65.9374 69.066 65.4655 69.4823Z" fill="#EBEBEB"/>
<path d="M110.783 66.1407L108.645 62.6372C107.567 62.7907 106.473 62.7907 105.395 62.6372L103.25 66.1276L102.84 66.0172C101.45 65.651 100.116 65.0977 98.8753 64.3727L98.5113 64.1647L99.4148 60.3687C99.4324 60.295 99.4643 60.2256 99.5089 60.1644C99.5534 60.1032 99.6097 60.0514 99.6744 60.0121C99.739 59.9728 99.8109 59.9468 99.8857 59.9354C99.9606 59.9241 100.037 59.9278 100.11 59.9462C100.258 59.9816 100.385 60.0741 100.464 60.2033C100.543 60.3324 100.568 60.4878 100.533 60.6352L99.8179 63.5927C100.742 64.0959 101.715 64.5011 102.723 64.8017L104.816 61.3827L105.2 61.4477C106.414 61.6427 107.652 61.6427 108.866 61.4477L109.243 61.3827L111.336 64.8017C112.345 64.5034 113.319 64.0981 114.241 63.5927L113.312 59.6927L113.624 59.4652C114.471 58.8545 115.229 58.1306 115.879 57.3137C115.97 57.196 116.102 57.118 116.249 57.0961C116.396 57.0743 116.545 57.1104 116.666 57.1967C116.729 57.2405 116.783 57.2968 116.823 57.3621C116.864 57.4274 116.891 57.5002 116.903 57.5763C116.914 57.6524 116.91 57.73 116.891 57.8044C116.871 57.8788 116.837 57.9485 116.789 58.0092C116.151 58.8158 115.415 59.5406 114.599 60.1672L115.554 64.1517L115.184 64.3596C113.944 65.0836 112.613 65.6367 111.225 66.0041L110.783 66.1407ZM97.6403 58.5097C97.4648 58.3082 97.2893 58.0937 97.1203 57.8596L93.1358 58.8152L92.9214 58.4512C92.2016 57.2073 91.6487 55.8742 91.2768 54.4862L91.1729 54.0767L94.6633 51.9317C94.5098 50.8538 94.5098 49.7595 94.6633 48.6817L91.1729 46.5432L91.2768 46.1272C91.6487 44.7411 92.2017 43.4102 92.9214 42.1687L93.1358 41.7982L97.1203 42.7537C97.7856 41.8831 98.5638 41.1049 99.4343 40.4397L98.7128 37.4237C98.6776 37.2763 98.7024 37.1209 98.7816 36.9918C98.8608 36.8626 98.988 36.7701 99.1354 36.7347C99.2079 36.7173 99.2832 36.7145 99.3569 36.7263C99.4305 36.7382 99.5011 36.7645 99.5646 36.8038C99.628 36.8431 99.683 36.8945 99.7265 36.9552C99.77 37.0158 99.801 37.0845 99.8179 37.1572L100.721 40.9142L100.409 41.1352C99.4079 41.8557 98.5299 42.7337 97.8093 43.7352L97.5819 44.0472L93.6819 43.1177C93.1764 44.0403 92.7711 45.0143 92.4729 46.0232L95.8854 48.1162L95.8268 48.4932C95.6098 49.7055 95.6098 50.9468 95.8268 52.1592L95.8854 52.5427L92.4729 54.6357C92.7723 55.642 93.1775 56.6138 93.6819 57.5347L97.5819 56.6052L97.8093 56.9172C98.0114 57.2119 98.2283 57.4961 98.4593 57.7687C98.5595 57.8738 98.6153 58.0134 98.6153 58.1587C98.6153 58.3039 98.5595 58.4435 98.4593 58.5487C98.4039 58.6017 98.3383 58.6429 98.2665 58.6698C98.1946 58.6966 98.1181 58.7086 98.0415 58.7049C97.9649 58.7013 97.8898 58.6821 97.8208 58.6485C97.7519 58.615 97.6905 58.5677 97.6403 58.5097ZM120.871 58.8282L119.402 58.4772C119.255 58.4417 119.128 58.3492 119.049 58.22C118.969 58.0909 118.945 57.9355 118.98 57.7882C119.015 57.6408 119.108 57.5136 119.237 57.4344C119.366 57.3552 119.521 57.3305 119.669 57.3657L120.319 57.5152C120.821 56.5941 121.224 55.6223 121.521 54.6162L118.109 52.5232L118.174 52.1397C118.391 50.9273 118.391 49.686 118.174 48.4737L118.109 48.0967L121.521 46.0037C121.225 44.995 120.822 44.021 120.319 43.0982L116.419 44.0277L116.198 43.7157C115.476 42.7157 114.598 41.8379 113.598 41.1157L113.286 40.8947L114.215 36.9947C113.293 36.4913 112.318 36.0881 111.31 35.7922L109.197 39.2372L108.82 39.1722C107.606 38.9771 106.369 38.9771 105.154 39.1722L104.771 39.2372L102.697 35.8052L102.307 35.9222C102.169 35.9679 102.017 35.9575 101.886 35.8931C101.755 35.8287 101.654 35.7155 101.605 35.5777C101.579 35.5064 101.566 35.4306 101.569 35.3545C101.572 35.2785 101.59 35.2038 101.622 35.1348C101.654 35.0658 101.7 35.0039 101.756 34.9527C101.812 34.9015 101.878 34.862 101.95 34.8367C102.236 34.7457 102.528 34.6612 102.814 34.5832L103.224 34.4727L105.369 37.9697C106.446 37.8095 107.541 37.8095 108.619 37.9697L110.757 34.4727L111.173 34.5832C112.56 34.9534 113.891 35.5064 115.132 36.2277L115.502 36.4422L114.547 40.4267C115.419 41.0905 116.197 41.8688 116.861 42.7407L120.845 41.7852L121.06 42.1557C121.782 43.3959 122.335 44.7272 122.704 46.1142L122.815 46.5302L119.318 48.6687C119.48 49.7459 119.48 50.8414 119.318 51.9187L122.815 54.0637L122.704 54.4732C122.335 55.8622 121.782 57.1957 121.06 58.4382L120.871 58.8282ZM106.844 55.8772C105.428 55.821 104.085 55.2333 103.083 54.231C102.08 53.2287 101.492 51.8855 101.436 50.4692C101.398 49.0761 101.882 47.719 102.794 46.6652C103.706 45.6113 104.979 44.937 106.363 44.7752C106.445 44.765 106.527 44.7723 106.605 44.7964C106.683 44.8205 106.756 44.8609 106.817 44.9149C106.878 44.969 106.928 45.0355 106.962 45.11C106.995 45.1845 107.013 45.2653 107.013 45.3472C107.013 45.4854 106.961 45.6186 106.869 45.7216C106.777 45.8246 106.65 45.8903 106.513 45.9062C105.55 46.016 104.649 46.439 103.95 47.1102C103.25 47.7815 102.79 48.6637 102.641 49.6216C102.491 50.5794 102.66 51.5599 103.122 52.4123C103.584 53.2648 104.313 53.9421 105.197 54.3402C106.081 54.7383 107.071 54.8352 108.015 54.6161C108.959 54.3969 109.806 53.8738 110.424 53.1271C111.042 52.3803 111.398 51.4513 111.437 50.4826C111.476 49.514 111.196 48.5593 110.64 47.7652C110.56 47.6526 110.525 47.5141 110.542 47.377C110.559 47.2398 110.626 47.1139 110.731 47.0242C110.792 46.9703 110.863 46.9299 110.941 46.9058C111.018 46.8816 111.1 46.8742 111.181 46.884C111.261 46.8939 111.339 46.9207 111.408 46.9628C111.477 47.0049 111.537 47.0613 111.583 47.1282C112.174 47.9741 112.518 48.9678 112.577 49.9981C112.636 51.0285 112.407 52.055 111.917 52.9628C111.426 53.8706 110.692 54.6239 109.797 55.1386C108.903 55.6533 107.882 55.909 106.851 55.8772H106.844Z" fill="#F0F0F0"/>
<path d="M70.4034 113.721L69.0189 111.465C68.3185 111.569 67.6067 111.569 66.9064 111.465L65.5219 113.721L65.2554 113.649C64.358 113.413 63.4967 113.056 62.6944 112.59L62.4604 112.453L63.0454 109.996C63.0685 109.902 63.1278 109.82 63.2105 109.769C63.2932 109.718 63.3926 109.702 63.4874 109.723C63.5348 109.735 63.5795 109.755 63.6189 109.784C63.6583 109.813 63.6917 109.849 63.717 109.891C63.7424 109.932 63.7593 109.979 63.7667 110.027C63.7741 110.075 63.772 110.124 63.7604 110.172L63.3054 112.083C63.9017 112.409 64.5315 112.671 65.1839 112.863L66.5359 110.659L66.7764 110.698C67.5619 110.828 68.3634 110.828 69.1489 110.698L69.3894 110.659L70.7479 112.863C71.3967 112.667 72.0239 112.406 72.6199 112.083L72.0219 109.574L72.2234 109.424C72.7698 109.032 73.2597 108.566 73.6794 108.04C73.7365 107.962 73.8218 107.911 73.9168 107.896C74.0118 107.882 74.1087 107.905 74.1864 107.962C74.2263 107.99 74.2601 108.026 74.286 108.068C74.3119 108.109 74.3293 108.156 74.3371 108.204C74.345 108.253 74.3432 108.302 74.3318 108.35C74.3204 108.397 74.2997 108.442 74.2709 108.482C73.8568 109.003 73.3809 109.472 72.8539 109.879L73.5039 112.479L73.2634 112.616C72.4616 113.083 71.6001 113.44 70.7024 113.675L70.4034 113.721ZM61.9144 108.787L61.5764 108.378L58.9764 108.989L58.8399 108.755C58.3819 107.949 58.0343 107.086 57.8064 106.187L57.7349 105.921L59.9904 104.536C59.8863 103.836 59.8863 103.124 59.9904 102.424L57.7349 101.039L57.8064 100.773C58.042 99.8751 58.3984 99.0136 58.8659 98.2118L59.0024 97.9713L61.6024 98.6213C62.0205 98.0522 62.5073 97.5369 63.0519 97.0873L62.5904 95.1373C62.5788 95.0903 62.5767 95.0415 62.5842 94.9937C62.5917 94.946 62.6087 94.9002 62.6341 94.859C62.6595 94.8179 62.6929 94.7822 62.7323 94.7541C62.7716 94.726 62.8162 94.706 62.8634 94.6953C62.9581 94.6737 63.0576 94.6903 63.1402 94.7413C63.2229 94.7924 63.2822 94.8739 63.3054 94.9683L63.8904 97.3928L63.6824 97.5423C63.0382 98.0044 62.4739 98.5686 62.0119 99.2128L61.8624 99.4143L59.3534 98.8163C59.0306 99.4122 58.7692 100.039 58.5734 100.688L60.7769 102.04L60.7379 102.287C60.6708 102.678 60.636 103.074 60.6339 103.47C60.636 103.869 60.6708 104.267 60.7379 104.66L60.7769 104.9L58.5734 106.252C58.768 106.904 59.0294 107.533 59.3534 108.131L61.8624 107.526L62.0119 107.728C62.1462 107.92 62.2916 108.105 62.4474 108.28C62.5114 108.348 62.547 108.437 62.547 108.531C62.547 108.624 62.5114 108.713 62.4474 108.781C62.4137 108.818 62.3729 108.848 62.3272 108.868C62.2816 108.889 62.2323 108.899 62.1823 108.9C62.1323 108.901 62.0827 108.891 62.0366 108.872C61.9905 108.852 61.9489 108.823 61.9144 108.787ZM76.9229 108.989L75.9739 108.768C75.9264 108.756 75.8817 108.736 75.8423 108.707C75.8029 108.678 75.7696 108.642 75.7442 108.6C75.7188 108.559 75.7019 108.512 75.6945 108.464C75.6871 108.416 75.6892 108.367 75.7009 108.319C75.7115 108.272 75.7315 108.228 75.7596 108.188C75.7878 108.149 75.8234 108.115 75.8646 108.09C75.9057 108.065 75.9515 108.048 75.9993 108.04C76.0471 108.033 76.0959 108.035 76.1429 108.046L76.5524 108.144C76.879 107.547 77.1405 106.918 77.3324 106.265L75.1289 104.913L75.1679 104.673C75.2349 104.28 75.2697 103.882 75.2719 103.483C75.2697 103.087 75.2349 102.691 75.1679 102.3L75.1289 102.053L77.3324 100.701C77.1393 100.051 76.8778 99.4239 76.5524 98.8293L74.0434 99.4273L73.8939 99.2258C73.4318 98.5816 72.8675 98.0174 72.2234 97.5553L72.0219 97.4058L72.6199 94.8968C72.0252 94.5713 71.3977 94.3098 70.7479 94.1168L69.3894 96.3203L69.1489 96.2813C68.3634 96.1513 67.5619 96.1513 66.7764 96.2813L66.5359 96.3203L65.1839 94.1168L64.9304 94.1948C64.8398 94.2238 64.7415 94.2162 64.6565 94.1737C64.5715 94.1312 64.5065 94.0571 64.4754 93.9673C64.4579 93.9217 64.4497 93.873 64.4514 93.8242C64.4531 93.7754 64.4646 93.7274 64.4852 93.6832C64.5058 93.6389 64.5352 93.5992 64.5714 93.5665C64.6077 93.5338 64.6502 93.5087 64.6964 93.4928L65.2554 93.3238L65.5219 93.2588L66.9064 95.5143C67.6067 95.4103 68.3185 95.4103 69.0189 95.5143L70.4034 93.2588L70.6699 93.3238C71.5668 93.5645 72.428 93.9229 73.2309 94.3898L73.4714 94.5263L72.8214 97.1263C73.3811 97.5592 73.8834 98.0616 74.3164 98.6213L76.9164 97.9713L77.0529 98.2118C77.5203 99.0136 77.8768 99.8751 78.1124 100.773L78.1839 101.039L75.9284 102.424C76.0324 103.124 76.0324 103.836 75.9284 104.536L78.1839 105.921L78.1124 106.187C77.8756 107.085 77.5193 107.946 77.0529 108.748L76.9229 108.989ZM67.8619 107.084C66.9786 107.024 66.1487 106.64 65.5305 106.006C64.9123 105.372 64.5493 104.533 64.5107 103.649C64.4721 102.764 64.7607 101.897 65.3213 101.211C65.8819 100.526 66.6753 100.072 67.5499 99.9343C67.602 99.9289 67.6547 99.9344 67.7046 99.9505C67.7545 99.9665 67.8005 99.9929 67.8396 100.028C67.8788 100.063 67.9102 100.105 67.932 100.153C67.9537 100.201 67.9652 100.252 67.9659 100.305C67.9664 100.395 67.9334 100.482 67.8734 100.549C67.8133 100.617 67.7305 100.659 67.6409 100.669C67.0926 100.731 66.5742 100.951 66.1481 101.302C65.7221 101.653 65.4066 102.119 65.2398 102.645C65.0729 103.171 65.0618 103.734 65.2077 104.267C65.3536 104.799 65.6504 105.277 66.0623 105.645C66.4741 106.012 66.9834 106.252 67.5288 106.337C68.0741 106.421 68.6322 106.346 69.1358 106.12C69.6393 105.894 70.0668 105.528 70.3667 105.064C70.6666 104.601 70.826 104.061 70.8259 103.509C70.8271 102.922 70.6453 102.35 70.3059 101.871C70.2562 101.797 70.2348 101.708 70.2456 101.62C70.2563 101.532 70.2985 101.45 70.3644 101.39C70.4035 101.355 70.4497 101.329 70.4999 101.313C70.55 101.297 70.603 101.292 70.6553 101.298C70.7076 101.304 70.7579 101.321 70.803 101.348C70.8481 101.376 70.8869 101.412 70.9169 101.455C71.297 102.002 71.5181 102.644 71.5554 103.309C71.5927 103.974 71.4449 104.636 71.1283 105.222C70.8117 105.808 70.3388 106.295 69.7621 106.628C69.1855 106.962 68.5277 107.128 67.8619 107.11V107.084Z" fill="#E6E6E6"/>
<path d="M162.502 242.044C232.106 242.044 288.531 238.75 288.531 234.686C288.531 230.622 232.106 227.328 162.502 227.328C92.8985 227.328 36.4736 230.622 36.4736 234.686C36.4736 238.75 92.8985 242.044 162.502 242.044Z" fill="#F5F5F5"/>
<path d="M236.24 59.2772H215.076L200.126 230.39H221.29C224.261 230.332 227.108 229.19 229.294 227.179C231.48 225.167 232.855 222.425 233.159 219.47L246.218 70.1907C246.37 68.7998 246.223 67.3926 245.788 66.0627C245.354 64.7329 244.64 63.5109 243.696 62.4783C242.752 61.4457 241.599 60.6261 240.313 60.0741C239.028 59.5221 237.639 59.2505 236.24 59.2772Z" fill="#407BFF"/>
<path d="M231.925 59.2774H160.295C157.324 59.333 154.477 60.4736 152.289 62.484C150.102 64.4943 148.725 67.2356 148.419 70.1909L135.361 219.47C135.211 220.86 135.357 222.266 135.792 223.594C136.226 224.923 136.938 226.144 137.88 227.177C138.823 228.21 139.974 229.03 141.257 229.584C142.541 230.138 143.928 230.413 145.325 230.39H216.949C219.916 230.326 222.757 229.182 224.939 227.171C227.121 225.16 228.493 222.421 228.798 219.47L241.857 70.1909C242.008 68.8039 241.863 67.4006 241.431 66.074C240.999 64.7474 240.29 63.5277 239.35 62.4958C238.411 61.464 237.264 60.6434 235.984 60.0886C234.703 59.5337 233.32 59.2572 231.925 59.2774Z" fill="#407BFF"/>
<path opacity="0.3" d="M231.925 59.2774H160.295C157.324 59.333 154.477 60.4736 152.289 62.484C150.102 64.4943 148.725 67.2356 148.419 70.1909L135.361 219.47C135.211 220.86 135.357 222.266 135.792 223.594C136.226 224.923 136.938 226.144 137.88 227.177C138.823 228.21 139.974 229.03 141.257 229.584C142.541 230.138 143.928 230.413 145.325 230.39H216.949C219.916 230.326 222.757 229.182 224.939 227.171C227.121 225.16 228.493 222.421 228.798 219.47L241.857 70.1909C242.008 68.8039 241.863 67.4006 241.431 66.074C240.999 64.7474 240.29 63.5277 239.35 62.4958C238.411 61.464 237.264 60.6434 235.984 60.0886C234.703 59.5337 233.32 59.2572 231.925 59.2774Z" fill="white"/>
<path opacity="0.4" d="M231.619 62.7745H212.73C212.167 62.7791 211.618 62.9525 211.155 63.2724C210.691 63.5922 210.334 64.0437 210.13 64.5685C209.385 66.4963 208.083 68.1584 206.389 69.3428C204.695 70.5271 202.687 71.18 200.62 71.218H189.479C187.533 71.2572 185.634 70.6166 184.11 69.4064C182.585 68.1962 181.53 66.4923 181.127 64.588C181.019 64.0728 180.735 63.6114 180.323 63.2838C179.911 62.9562 179.398 62.7829 178.871 62.794H159.989C157.97 62.8297 156.034 63.6042 154.548 64.9709C153.061 66.3375 152.127 68.2017 151.922 70.2105L138.857 219.49C138.753 220.435 138.851 221.391 139.145 222.296C139.44 223.2 139.924 224.031 140.565 224.733C141.205 225.436 141.989 225.994 142.862 226.369C143.736 226.745 144.68 226.93 145.63 226.913H217.26C219.28 226.875 221.216 226.099 222.702 224.732C224.189 223.364 225.122 221.499 225.327 219.49L238.385 70.2105C238.492 69.2649 238.395 68.3074 238.102 67.402C237.809 66.4966 237.326 65.6642 236.686 64.9604C236.045 64.2566 235.262 63.6975 234.388 63.3205C233.515 62.9436 232.57 62.7574 231.619 62.7745Z" fill="white"/>
<path d="M213.773 143.888H163.645C163.301 143.894 162.959 143.826 162.643 143.69C162.326 143.553 162.042 143.351 161.81 143.097C161.578 142.842 161.402 142.541 161.295 142.214C161.188 141.886 161.151 141.54 161.188 141.197L161.442 138.324C161.516 137.596 161.855 136.92 162.394 136.424C162.933 135.928 163.635 135.647 164.367 135.633H214.501C214.846 135.627 215.188 135.695 215.504 135.832C215.82 135.968 216.104 136.17 216.337 136.425C216.569 136.679 216.744 136.98 216.852 137.308C216.959 137.635 216.995 137.982 216.958 138.324L216.711 141.197C216.635 141.927 216.294 142.604 215.753 143.1C215.211 143.596 214.507 143.876 213.773 143.888Z" fill="white"/>
<path d="M212.692 156.238H162.558C162.214 156.244 161.872 156.176 161.556 156.039C161.24 155.903 160.956 155.701 160.725 155.446C160.493 155.191 160.318 154.89 160.211 154.563C160.105 154.235 160.07 153.889 160.108 153.547L160.354 150.674C160.43 149.946 160.769 149.271 161.308 148.775C161.847 148.28 162.548 147.998 163.279 147.983H213.414C213.759 147.977 214.1 148.045 214.417 148.181C214.733 148.318 215.017 148.52 215.249 148.774C215.482 149.029 215.657 149.33 215.764 149.657C215.872 149.985 215.908 150.331 215.871 150.674L215.617 153.547C215.542 154.275 215.202 154.95 214.664 155.445C214.125 155.941 213.424 156.223 212.692 156.238Z" fill="white"/>
<path opacity="0.1" d="M198.542 65.5689C198.46 66.3778 198.083 67.1283 197.484 67.6782C196.885 68.228 196.105 68.5391 195.292 68.5524C194.91 68.5593 194.531 68.4847 194.18 68.3336C193.829 68.1825 193.514 67.9584 193.256 67.6761C192.999 67.3938 192.804 67.0599 192.685 66.6966C192.567 66.3332 192.527 65.9488 192.569 65.5689C192.651 64.76 193.028 64.0095 193.627 63.4596C194.226 62.9097 195.006 62.5987 195.819 62.5854C196.201 62.5785 196.58 62.6531 196.931 62.8042C197.282 62.9553 197.597 63.1794 197.855 63.4617C198.112 63.744 198.307 64.0779 198.425 64.4412C198.544 64.8046 198.584 65.189 198.542 65.5689Z" fill="black"/>
<path opacity="0.1" d="M197.19 65.5691C197.144 66.0107 196.938 66.4203 196.611 66.7208C196.284 67.0213 195.859 67.1919 195.415 67.2007C195.206 67.2047 194.999 67.1641 194.806 67.0816C194.614 66.999 194.442 66.8765 194.301 66.722C194.16 66.5676 194.054 66.3849 193.989 66.186C193.925 65.9872 193.903 65.7769 193.927 65.5691C193.971 65.127 194.176 64.7167 194.503 64.4159C194.831 64.1152 195.257 63.945 195.701 63.9377C195.91 63.9346 196.117 63.976 196.308 64.0588C196.5 64.1417 196.672 64.2643 196.812 64.4185C196.953 64.5727 197.059 64.755 197.124 64.9534C197.189 65.1517 197.212 65.3616 197.19 65.5691Z" fill="black"/>
<g opacity="0.8">
<path d="M222.798 70.5478C222.685 70.5493 222.574 70.5271 222.471 70.4824C222.368 70.4378 222.276 70.3719 222.2 70.2889C222.125 70.206 222.068 70.1079 222.033 70.0013C221.998 69.8946 221.986 69.7818 221.998 69.6703L222.141 68.0713C222.165 67.835 222.275 67.6157 222.45 67.4551C222.625 67.2945 222.853 67.2038 223.09 67.2003C223.202 67.1988 223.312 67.2209 223.415 67.2651C223.517 67.3094 223.609 67.3747 223.685 67.4569C223.76 67.5392 223.817 67.6364 223.853 67.7422C223.888 67.8481 223.901 67.9602 223.89 68.0713L223.747 69.6703C223.723 69.9072 223.613 70.1272 223.438 70.2889C223.264 70.4505 223.036 70.5426 222.798 70.5478Z" fill="white"/>
<path d="M229.793 70.5479C229.681 70.5494 229.569 70.5272 229.466 70.4826C229.363 70.4379 229.271 70.372 229.196 70.289C229.12 70.2061 229.063 70.1081 229.028 70.0014C228.993 69.8948 228.981 69.782 228.993 69.6704L229.325 65.9199C229.349 65.6836 229.459 65.4643 229.634 65.3038C229.808 65.1432 230.036 65.0525 230.274 65.0489C230.385 65.0474 230.496 65.0695 230.598 65.1138C230.701 65.158 230.793 65.2234 230.868 65.3056C230.944 65.3878 231.001 65.485 231.036 65.5909C231.072 65.6967 231.084 65.8088 231.073 65.9199L230.742 69.6704C230.718 69.9073 230.608 70.1273 230.434 70.289C230.259 70.4506 230.031 70.5427 229.793 70.5479Z" fill="white"/>
<path d="M226.294 70.5477C226.182 70.5492 226.071 70.527 225.968 70.4824C225.865 70.4377 225.773 70.3718 225.697 70.2888C225.621 70.2059 225.564 70.1079 225.529 70.0012C225.495 69.8946 225.483 69.7817 225.495 69.6702L225.729 66.9987C225.753 66.7607 225.863 66.5398 226.039 66.378C226.216 66.2162 226.445 66.1248 226.684 66.1212C226.796 66.1195 226.907 66.1417 227.01 66.1864C227.113 66.2311 227.204 66.2972 227.28 66.3803C227.355 66.4633 227.411 66.5615 227.445 66.6681C227.479 66.7748 227.49 66.8875 227.477 66.9987L227.243 69.6702C227.219 69.9071 227.11 70.1271 226.935 70.2888C226.76 70.4504 226.532 70.5425 226.294 70.5477Z" fill="white"/>
</g>
<g opacity="0.8">
<path d="M162.914 70.5478H158.52C158.457 70.5492 158.394 70.5369 158.336 70.512C158.278 70.487 158.226 70.4498 158.184 70.403C158.141 70.3562 158.109 70.3008 158.09 70.2405C158.071 70.1803 158.064 70.1166 158.072 70.0538L158.273 67.6943C158.288 67.5603 158.35 67.4362 158.45 67.3452C158.549 67.2542 158.678 67.2027 158.813 67.2003H163.207C163.27 67.1989 163.333 67.2111 163.391 67.2361C163.449 67.2611 163.501 67.2983 163.544 67.3451C163.586 67.3919 163.618 67.4473 163.638 67.5076C163.657 67.5678 163.663 67.6315 163.655 67.6943L163.447 70.0538C163.436 70.1877 163.375 70.3126 163.277 70.404C163.178 70.4954 163.049 70.5467 162.914 70.5478Z" fill="white"/>
<path d="M164.949 69.904C164.885 69.9053 164.822 69.893 164.764 69.8681C164.705 69.8432 164.653 69.8062 164.61 69.7595C164.567 69.7128 164.534 69.6575 164.514 69.5972C164.494 69.537 164.487 69.4732 164.494 69.41L164.591 68.331C164.604 68.1965 164.666 68.0716 164.766 67.9803C164.865 67.8891 164.995 67.838 165.131 67.837C165.194 67.8356 165.257 67.8479 165.315 67.8728C165.373 67.8978 165.425 67.935 165.467 67.9818C165.51 68.0286 165.542 68.084 165.561 68.1443C165.58 68.2045 165.586 68.2682 165.579 68.331L165.488 69.41C165.474 69.544 165.411 69.6681 165.312 69.7591C165.212 69.8501 165.083 69.9016 164.949 69.904Z" fill="white"/>
</g>
<path d="M205.512 124.993C214.258 116.62 215.131 103.336 207.46 95.3232C199.789 87.3103 186.48 87.6024 177.733 95.9756C168.987 104.349 168.114 117.632 175.785 125.645C183.456 133.658 196.765 133.366 205.512 124.993Z" fill="white"/>
<path d="M191.699 109.685C186.187 109.685 181.527 111.784 181.13 116.341L180.688 121.404H200.663L201.105 116.341C201.501 111.784 197.218 109.685 191.699 109.685Z" fill="#407BFF"/>
<path d="M191.879 107.598C194.44 107.598 195.623 105.525 195.844 102.964C196.065 100.403 195.253 98.3291 192.692 98.3291C190.131 98.3291 188.954 100.409 188.727 102.964C188.499 105.518 189.318 107.598 191.879 107.598Z" fill="#407BFF"/>
<path d="M211.48 139.585C210.121 139.585 208.971 140.105 208.88 141.229L208.769 142.484H213.703L213.813 141.229C213.904 140.105 212.845 139.585 211.48 139.585Z" fill="#407BFF"/>
<path d="M211.529 139.071C212.179 139.071 212.452 138.558 212.511 137.927C212.569 137.297 212.361 136.783 211.731 136.783C211.1 136.783 210.808 137.297 210.749 137.927C210.691 138.558 210.899 139.071 211.529 139.071Z" fill="#407BFF"/>
<path d="M196.299 168.588H176.799C176.27 168.597 175.746 168.494 175.26 168.285C174.774 168.076 174.338 167.766 173.982 167.375C173.625 166.985 173.356 166.523 173.191 166.02C173.027 165.518 172.972 164.986 173.029 164.46C173.145 163.342 173.666 162.306 174.493 161.545C175.32 160.785 176.397 160.354 177.521 160.333H197.021C197.549 160.324 198.073 160.428 198.559 160.637C199.044 160.847 199.479 161.157 199.836 161.547C200.192 161.937 200.462 162.399 200.626 162.901C200.791 163.403 200.847 163.934 200.791 164.46C200.676 165.578 200.156 166.616 199.329 167.376C198.501 168.137 197.423 168.568 196.299 168.588Z" fill="#407BFF"/>
<path d="M193.939 214.62H173.068C172.508 214.636 171.951 214.53 171.436 214.311C170.92 214.092 170.458 213.764 170.081 213.35C169.703 212.936 169.419 212.446 169.248 211.912C169.077 211.379 169.023 210.815 169.09 210.259L170.422 195.036C170.541 193.855 171.089 192.759 171.963 191.955C172.836 191.151 173.974 190.695 175.161 190.674H196.039C196.597 190.665 197.151 190.774 197.664 190.995C198.177 191.216 198.637 191.544 199.013 191.956C199.389 192.369 199.674 192.857 199.847 193.388C200.02 193.919 200.078 194.481 200.017 195.036L198.684 210.259C198.562 211.44 198.012 212.535 197.138 213.339C196.264 214.142 195.126 214.598 193.939 214.62Z" fill="#407BFF"/>
<g opacity="0.6">
<path d="M187.504 198.878C187.538 198.546 187.501 198.21 187.396 197.893C187.291 197.576 187.119 197.285 186.893 197.039C186.667 196.794 186.391 196.599 186.084 196.467C185.777 196.336 185.446 196.271 185.112 196.278C184.401 196.288 183.718 196.558 183.193 197.037C182.667 197.516 182.335 198.171 182.258 198.878C182.217 199.273 182.276 199.673 182.429 200.04C182.582 200.406 182.826 200.729 183.136 200.977L182.681 206.223C182.659 206.421 182.679 206.623 182.741 206.813C182.803 207.003 182.904 207.178 183.039 207.325C183.174 207.473 183.339 207.59 183.522 207.669C183.706 207.748 183.905 207.787 184.104 207.783C184.528 207.774 184.934 207.61 185.245 207.323C185.556 207.036 185.752 206.644 185.794 206.223L186.256 200.977C186.604 200.739 186.896 200.428 187.112 200.065C187.327 199.703 187.461 199.297 187.504 198.878Z" fill="white"/>
</g>
<path d="M196.223 193.847H193.532L194.182 186.313C194.296 185.267 194.185 184.21 193.859 183.21C193.532 182.21 192.997 181.291 192.288 180.514C191.579 179.737 190.713 179.12 189.748 178.703C188.782 178.286 187.739 178.08 186.688 178.097C184.453 178.141 182.311 179 180.666 180.514C179.021 182.027 177.986 184.09 177.757 186.313L177.107 193.847H174.416L175.066 186.313C175.368 183.362 176.741 180.625 178.924 178.616C181.107 176.608 183.949 175.469 186.915 175.413C188.311 175.389 189.696 175.662 190.978 176.215C192.26 176.767 193.409 177.586 194.351 178.617C195.292 179.648 196.003 180.867 196.437 182.194C196.871 183.521 197.017 184.925 196.867 186.313L196.223 193.847Z" fill="#407BFF"/>
<path d="M211.815 151.122L211.899 150.388C211.917 150.218 211.898 150.046 211.844 149.883C211.791 149.721 211.703 149.571 211.588 149.445C211.473 149.319 211.332 149.218 211.175 149.15C211.018 149.081 210.849 149.047 210.677 149.049C210.313 149.056 209.964 149.197 209.696 149.443C209.428 149.69 209.259 150.026 209.221 150.388L209.156 151.109C209.011 151.113 208.872 151.17 208.765 151.27C208.659 151.369 208.592 151.504 208.578 151.649L208.409 153.599C208.4 153.667 208.407 153.736 208.428 153.802C208.448 153.867 208.483 153.927 208.53 153.978C208.576 154.029 208.633 154.069 208.696 154.095C208.759 154.122 208.828 154.134 208.896 154.132H211.574C211.719 154.129 211.858 154.074 211.965 153.975C212.072 153.877 212.139 153.743 212.153 153.599L212.322 151.649C212.328 151.58 212.318 151.511 212.295 151.446C212.272 151.38 212.235 151.321 212.187 151.271C212.139 151.221 212.081 151.182 212.017 151.157C211.953 151.131 211.884 151.119 211.815 151.122ZM210.599 149.393C210.728 149.392 210.856 149.418 210.975 149.469C211.093 149.52 211.199 149.596 211.286 149.691C211.373 149.786 211.439 149.898 211.48 150.021C211.521 150.143 211.535 150.273 211.522 150.401L211.457 151.122H209.442L209.507 150.401C209.536 150.129 209.662 149.877 209.863 149.691C210.064 149.506 210.326 149.4 210.599 149.393Z" fill="#407BFF"/>
<path d="M171.501 151.896L170.565 151.701C170.539 151.695 170.514 151.684 170.493 151.668C170.472 151.652 170.455 151.631 170.443 151.607C170.431 151.583 170.425 151.557 170.424 151.531C170.424 151.504 170.43 151.478 170.441 151.454L170.831 150.531C170.848 150.491 170.849 150.446 170.836 150.406C170.822 150.365 170.795 150.33 170.758 150.307C170.722 150.285 170.678 150.276 170.636 150.282C170.593 150.288 170.554 150.31 170.526 150.342L169.817 151.07C169.8 151.092 169.779 151.109 169.754 151.121C169.729 151.133 169.702 151.14 169.674 151.14C169.647 151.14 169.62 151.133 169.595 151.121C169.57 151.109 169.548 151.092 169.531 151.07L168.953 150.342C168.829 150.186 168.563 150.342 168.608 150.531L168.836 151.454C168.842 151.481 168.843 151.509 168.839 151.536C168.834 151.563 168.824 151.589 168.808 151.613C168.793 151.636 168.773 151.656 168.75 151.671C168.727 151.686 168.701 151.696 168.673 151.701L167.705 151.896C167.497 151.935 167.471 152.227 167.672 152.266L168.608 152.461C168.634 152.466 168.659 152.477 168.68 152.493C168.701 152.51 168.718 152.531 168.73 152.555C168.741 152.579 168.747 152.605 168.746 152.632C168.745 152.659 168.738 152.685 168.725 152.708L168.348 153.638C168.332 153.678 168.33 153.722 168.344 153.763C168.357 153.804 168.385 153.839 168.421 153.861C168.458 153.884 168.501 153.893 168.544 153.886C168.587 153.88 168.625 153.859 168.654 153.826L169.362 153.098C169.381 153.078 169.403 153.063 169.427 153.052C169.452 153.041 169.478 153.036 169.505 153.036C169.532 153.036 169.559 153.041 169.583 153.052C169.608 153.063 169.63 153.078 169.648 153.098L170.227 153.826C170.35 153.982 170.617 153.826 170.565 153.638L170.337 152.715C170.328 152.66 170.34 152.603 170.372 152.557C170.403 152.511 170.451 152.479 170.506 152.468L171.475 152.273C171.676 152.227 171.702 151.935 171.501 151.896Z" fill="#263238"/>
<path d="M177.65 151.896L176.714 151.701C176.688 151.695 176.664 151.684 176.643 151.668C176.621 151.652 176.604 151.631 176.592 151.607C176.58 151.583 176.574 151.557 176.574 151.531C176.574 151.504 176.579 151.478 176.591 151.454L176.981 150.531C176.997 150.491 176.998 150.446 176.985 150.406C176.972 150.365 176.944 150.33 176.908 150.307C176.871 150.285 176.828 150.276 176.785 150.282C176.742 150.288 176.704 150.31 176.675 150.342L175.967 151.07C175.95 151.092 175.928 151.109 175.903 151.121C175.878 151.133 175.851 151.14 175.824 151.14C175.796 151.14 175.769 151.133 175.744 151.121C175.719 151.109 175.698 151.092 175.681 151.07L175.102 150.342C174.979 150.186 174.712 150.342 174.764 150.531L174.992 151.454C174.997 151.481 174.997 151.509 174.992 151.537C174.986 151.564 174.975 151.59 174.96 151.613C174.944 151.636 174.924 151.656 174.9 151.671C174.877 151.686 174.85 151.696 174.823 151.701L173.854 151.896C173.646 151.935 173.62 152.227 173.822 152.266L174.758 152.461C174.784 152.466 174.808 152.478 174.829 152.494C174.85 152.51 174.868 152.531 174.88 152.555C174.891 152.578 174.898 152.605 174.898 152.631C174.898 152.658 174.893 152.684 174.881 152.708L174.491 153.631C174.475 153.671 174.473 153.715 174.487 153.756C174.5 153.797 174.528 153.832 174.564 153.855C174.601 153.877 174.644 153.886 174.687 153.88C174.729 153.873 174.768 153.852 174.797 153.82L175.505 153.092C175.523 153.072 175.546 153.056 175.57 153.046C175.595 153.035 175.621 153.029 175.648 153.029C175.675 153.029 175.702 153.035 175.726 153.046C175.751 153.056 175.773 153.072 175.791 153.092L176.37 153.82C176.493 153.976 176.76 153.82 176.714 153.631L176.487 152.708C176.481 152.681 176.481 152.653 176.486 152.626C176.491 152.599 176.501 152.574 176.516 152.551C176.532 152.528 176.551 152.508 176.574 152.493C176.597 152.477 176.622 152.467 176.649 152.461L177.618 152.266C177.826 152.227 177.852 151.935 177.65 151.896Z" fill="#263238"/>
<path d="M183.799 151.895L182.869 151.7C182.843 151.696 182.817 151.686 182.795 151.67C182.774 151.654 182.756 151.633 182.744 151.609C182.732 151.585 182.725 151.558 182.726 151.531C182.726 151.504 182.733 151.477 182.746 151.453L183.136 150.53C183.161 150.489 183.168 150.439 183.157 150.392C183.145 150.346 183.116 150.305 183.074 150.28C183.033 150.255 182.983 150.248 182.936 150.259C182.889 150.271 182.849 150.301 182.824 150.342L182.122 151.07C182.104 151.092 182.082 151.109 182.057 151.121C182.031 151.133 182.004 151.139 181.976 151.139C181.948 151.139 181.92 151.133 181.895 151.121C181.869 151.109 181.847 151.092 181.829 151.07L181.251 150.342C181.127 150.186 180.861 150.342 180.913 150.53L181.14 151.453C181.146 151.48 181.146 151.508 181.141 151.535C181.136 151.562 181.126 151.588 181.111 151.611C181.096 151.634 181.076 151.654 181.053 151.669C181.031 151.684 181.005 151.695 180.978 151.7L180.009 151.895C179.801 151.934 179.775 152.227 179.977 152.266L180.906 152.461C180.933 152.466 180.957 152.477 180.978 152.494C180.999 152.51 181.016 152.531 181.028 152.554C181.04 152.578 181.047 152.604 181.047 152.631C181.047 152.658 181.041 152.684 181.03 152.708L180.64 153.631C180.615 153.672 180.607 153.722 180.619 153.769C180.631 153.816 180.66 153.856 180.702 153.881C180.743 153.906 180.793 153.914 180.84 153.902C180.887 153.891 180.927 153.861 180.952 153.819L181.654 153.091C181.672 153.072 181.694 153.056 181.719 153.045C181.744 153.035 181.77 153.029 181.797 153.029C181.824 153.029 181.85 153.035 181.875 153.045C181.9 153.056 181.922 153.072 181.94 153.091L182.525 153.819C182.648 153.975 182.915 153.819 182.863 153.631L182.635 152.708C182.626 152.654 182.637 152.598 182.667 152.552C182.698 152.506 182.744 152.473 182.798 152.461L183.766 152.266C183.948 152.227 184 151.934 183.799 151.895Z" fill="#263238"/>
<path d="M189.956 151.896L189.02 151.701C188.994 151.695 188.969 151.684 188.948 151.668C188.927 151.652 188.91 151.631 188.898 151.607C188.886 151.583 188.88 151.557 188.88 151.531C188.879 151.504 188.885 151.478 188.897 151.454L189.287 150.531C189.303 150.491 189.304 150.446 189.291 150.406C189.278 150.365 189.25 150.33 189.214 150.307C189.177 150.285 189.133 150.276 189.091 150.282C189.048 150.288 189.009 150.31 188.981 150.342L188.273 151.07C188.256 151.092 188.234 151.109 188.209 151.121C188.184 151.133 188.157 151.14 188.13 151.14C188.102 151.14 188.075 151.133 188.05 151.121C188.025 151.109 188.004 151.092 187.987 151.07L187.408 150.342C187.285 150.186 187.018 150.342 187.064 150.531L187.291 151.454C187.298 151.481 187.299 151.509 187.294 151.536C187.289 151.563 187.279 151.589 187.264 151.613C187.248 151.636 187.229 151.656 187.205 151.671C187.182 151.686 187.156 151.696 187.129 151.701L186.16 151.896C185.952 151.935 185.926 152.227 186.16 152.266L187.096 152.461C187.122 152.466 187.147 152.477 187.168 152.493C187.189 152.51 187.206 152.531 187.217 152.555C187.229 152.579 187.234 152.605 187.234 152.632C187.233 152.659 187.226 152.685 187.213 152.708L186.83 153.631C186.813 153.671 186.812 153.715 186.825 153.756C186.838 153.797 186.866 153.832 186.903 153.855C186.939 153.877 186.983 153.886 187.025 153.88C187.068 153.873 187.107 153.852 187.135 153.82L187.844 153.092C187.862 153.072 187.884 153.056 187.909 153.046C187.933 153.035 187.96 153.029 187.987 153.029C188.013 153.029 188.04 153.035 188.065 153.046C188.089 153.056 188.111 153.072 188.13 153.092L188.708 153.82C188.832 153.976 189.098 153.82 189.046 153.631L188.819 152.708C188.809 152.653 188.821 152.596 188.853 152.55C188.884 152.504 188.933 152.472 188.988 152.461L189.956 152.266C190.132 152.227 190.158 151.935 189.956 151.896Z" fill="#263238"/>
<path d="M196.101 151.896L195.165 151.701C195.139 151.695 195.115 151.684 195.094 151.668C195.073 151.652 195.055 151.631 195.044 151.607C195.032 151.583 195.025 151.557 195.025 151.531C195.025 151.504 195.03 151.478 195.042 151.454L195.432 150.531C195.448 150.491 195.45 150.446 195.436 150.406C195.423 150.365 195.395 150.33 195.359 150.307C195.322 150.285 195.279 150.276 195.236 150.282C195.194 150.288 195.155 150.31 195.126 150.342L194.418 151.07C194.401 151.092 194.379 151.109 194.354 151.121C194.33 151.133 194.302 151.14 194.275 151.14C194.247 151.14 194.22 151.133 194.195 151.121C194.171 151.109 194.149 151.092 194.132 151.07L193.553 150.342C193.43 150.186 193.163 150.342 193.215 150.531L193.443 151.454C193.448 151.481 193.449 151.509 193.443 151.537C193.438 151.564 193.427 151.59 193.411 151.613C193.395 151.636 193.375 151.656 193.351 151.671C193.328 151.686 193.301 151.696 193.274 151.701L192.305 151.896C192.097 151.935 192.071 152.227 192.273 152.266L193.209 152.461C193.235 152.466 193.259 152.478 193.281 152.494C193.302 152.51 193.319 152.531 193.331 152.555C193.343 152.578 193.349 152.605 193.349 152.631C193.349 152.658 193.344 152.684 193.332 152.708L192.942 153.631C192.926 153.671 192.925 153.715 192.938 153.756C192.951 153.797 192.979 153.832 193.015 153.855C193.052 153.877 193.095 153.886 193.138 153.88C193.181 153.873 193.22 153.852 193.248 153.82L193.956 153.092C193.975 153.072 193.997 153.056 194.021 153.046C194.046 153.035 194.073 153.029 194.099 153.029C194.126 153.029 194.153 153.035 194.177 153.046C194.202 153.056 194.224 153.072 194.242 153.092L194.821 153.82C194.944 153.976 195.211 153.82 195.165 153.631L194.938 152.708C194.932 152.681 194.932 152.653 194.937 152.626C194.942 152.599 194.952 152.574 194.968 152.551C194.983 152.528 195.002 152.508 195.025 152.493C195.048 152.477 195.073 152.467 195.1 152.461L196.069 152.266C196.296 152.227 196.296 151.935 196.101 151.896Z" fill="#263238"/>
<path d="M202.255 151.895L201.319 151.7C201.292 151.695 201.268 151.684 201.247 151.668C201.226 151.652 201.209 151.631 201.197 151.607C201.186 151.583 201.18 151.556 201.181 151.53C201.182 151.503 201.189 151.477 201.202 151.453L201.592 150.53C201.604 150.51 201.612 150.487 201.616 150.464C201.619 150.44 201.618 150.416 201.612 150.392C201.607 150.369 201.596 150.347 201.582 150.328C201.568 150.309 201.55 150.293 201.53 150.28C201.509 150.268 201.487 150.26 201.463 150.256C201.439 150.252 201.415 150.253 201.392 150.259C201.369 150.265 201.347 150.275 201.327 150.289C201.308 150.304 201.292 150.321 201.28 150.342L200.578 151.07C200.56 151.092 200.538 151.109 200.512 151.121C200.487 151.133 200.459 151.139 200.431 151.139C200.403 151.139 200.376 151.133 200.35 151.121C200.325 151.109 200.303 151.092 200.285 151.07L199.707 150.342C199.583 150.186 199.317 150.342 199.369 150.53L199.596 151.453C199.602 151.48 199.602 151.508 199.597 151.535C199.592 151.562 199.581 151.588 199.566 151.611C199.551 151.634 199.532 151.654 199.509 151.669C199.486 151.684 199.46 151.695 199.434 151.7L198.465 151.895C198.257 151.934 198.231 152.227 198.433 152.266L199.362 152.461C199.388 152.466 199.413 152.477 199.434 152.494C199.455 152.51 199.472 152.531 199.484 152.554C199.496 152.578 199.502 152.604 199.502 152.631C199.503 152.658 199.497 152.684 199.486 152.708L199.096 153.631C199.071 153.672 199.063 153.722 199.075 153.769C199.086 153.816 199.116 153.856 199.157 153.881C199.199 153.906 199.248 153.914 199.295 153.902C199.342 153.891 199.383 153.861 199.408 153.819L200.11 153.091C200.128 153.072 200.15 153.056 200.175 153.045C200.199 153.035 200.226 153.029 200.253 153.029C200.279 153.029 200.306 153.035 200.331 153.045C200.355 153.056 200.377 153.072 200.396 153.091L200.974 153.819C201.004 153.853 201.045 153.876 201.09 153.884C201.135 153.892 201.181 153.884 201.221 153.862C201.261 153.84 201.293 153.806 201.31 153.764C201.328 153.722 201.331 153.675 201.319 153.631L201.091 152.708C201.081 152.654 201.093 152.598 201.123 152.552C201.153 152.506 201.2 152.473 201.254 152.461L202.222 152.266C202.43 152.227 202.456 151.934 202.255 151.895Z" fill="#263238"/>
<path d="M187.427 138.435H175.883C175.529 138.441 175.189 138.576 174.928 138.816C174.667 139.055 174.503 139.382 174.466 139.735C174.448 139.901 174.465 140.069 174.516 140.227C174.568 140.386 174.653 140.532 174.766 140.655C174.878 140.778 175.016 140.876 175.17 140.941C175.323 141.007 175.489 141.039 175.656 141.035H187.2C187.554 141.029 187.894 140.893 188.155 140.654C188.416 140.414 188.58 140.087 188.617 139.735C188.634 139.569 188.616 139.402 188.564 139.243C188.512 139.085 188.427 138.94 188.315 138.817C188.202 138.694 188.065 138.596 187.912 138.53C187.759 138.465 187.594 138.432 187.427 138.435Z" fill="#263238"/>
<path d="M199.152 138.435H192.45C192.097 138.441 191.758 138.577 191.498 138.816C191.238 139.056 191.075 139.383 191.04 139.735C191.021 139.9 191.038 140.067 191.09 140.225C191.141 140.384 191.225 140.529 191.337 140.652C191.449 140.775 191.586 140.873 191.739 140.939C191.892 141.005 192.057 141.037 192.223 141.035H198.898C199.252 141.028 199.591 140.893 199.851 140.653C200.111 140.413 200.274 140.086 200.309 139.735C200.327 139.571 200.311 139.406 200.261 139.25C200.211 139.094 200.129 138.949 200.02 138.827C199.911 138.704 199.777 138.606 199.628 138.538C199.478 138.471 199.316 138.435 199.152 138.435Z" fill="#263238"/>
<path d="M208 197.357C203.919 198.911 200.236 201.354 197.216 204.507C195.382 203.084 193.196 202.185 190.892 201.907L190.586 201.862L190.456 203.396L190.625 203.461C193.153 204.391 195.29 206.151 196.69 208.453L196.911 208.817L197.151 208.427C199.843 204.129 203.642 200.636 208.149 198.313L208.299 198.235L208.383 197.221L208 197.357Z" fill="#263238"/>
<path opacity="0.2" d="M149.914 69.3779C149.086 70.8243 148.576 72.431 148.419 74.0904L138.741 184.733H168.693L174.712 161.665L172.729 138.59L178.748 115.521L176.798 92.4529L182.817 69.3779H149.914Z" fill="black"/>
<path d="M174.167 85.9529L180.186 62.8779H104.441L98.429 85.9529L100.405 109.021L94.3925 132.09L96.3685 155.165L90.356 178.233H166.094L172.113 155.165L170.13 132.09L176.149 109.021L174.167 85.9529Z" fill="#407BFF"/>
<path opacity="0.7" d="M174.167 85.9529L180.186 62.8779H104.441L98.429 85.9529L100.405 109.021L94.3925 132.09L96.3685 155.165L90.356 178.233H166.094L172.113 155.165L170.13 132.09L176.149 109.021L174.167 85.9529Z" fill="white"/>
<path opacity="0.5" d="M174.166 85.9529H98.4277L104.44 62.8779H180.185L174.166 85.9529Z" fill="white"/>
<path opacity="0.5" d="M170.132 132.09H94.394L100.407 109.021H176.151L170.132 132.09Z" fill="white"/>
<path opacity="0.5" d="M166.094 178.234H90.3496L96.3686 155.165H172.113L166.094 178.234Z" fill="white"/>
<path opacity="0.2" d="M164.035 95.592C163.258 95.8166 162.452 95.9261 161.643 95.917C160.546 95.9655 159.455 95.7422 158.465 95.267C158.286 95.1609 158.081 95.1048 157.873 95.1045C157.682 95.1071 157.495 95.1562 157.327 95.2475H157.288C156.998 95.4105 156.688 95.535 156.365 95.618C155.638 95.81 154.888 95.904 154.136 95.8975C153.908 95.8975 153.687 95.8975 153.486 95.8975C152.902 95.86 152.324 95.7576 151.763 95.592C151.681 95.5674 151.596 95.5522 151.51 95.5465C151.367 95.5348 151.223 95.5529 151.087 95.5995C150.952 95.6461 150.827 95.7203 150.722 95.8173C150.616 95.9144 150.532 96.0323 150.474 96.1635C150.416 96.2948 150.386 96.4366 150.385 96.58V97.282H120.901C120.36 97.282 119.823 97.3888 119.323 97.5963C118.822 97.8038 118.368 98.1079 117.985 98.4913C117.602 98.8747 117.299 99.3297 117.092 99.8305C116.885 100.331 116.779 100.868 116.78 101.409V105.563C116.779 106.105 116.884 106.643 117.09 107.144C117.297 107.646 117.6 108.101 117.983 108.485C118.366 108.869 118.82 109.174 119.321 109.382C119.822 109.59 120.359 109.697 120.901 109.697H154.396H154.617C154.974 109.996 155.351 110.295 155.754 110.6C156.157 110.906 156.729 111.328 157.256 111.705C157.435 111.836 157.652 111.906 157.873 111.906C158.095 111.906 158.311 111.836 158.491 111.705C162.703 108.65 165.407 106.544 165.407 100.759V96.5995C165.409 96.4331 165.371 96.2687 165.297 96.1198C165.223 95.9709 165.114 95.8418 164.98 95.7433C164.846 95.6448 164.69 95.5797 164.526 95.5534C164.362 95.5271 164.193 95.5403 164.035 95.592Z" fill="black"/>
<path d="M153.751 95.001H120.263C117.983 95.001 116.135 96.8489 116.135 99.1285V103.282C116.135 105.562 117.983 107.409 120.263 107.409H153.751C156.03 107.409 157.878 105.562 157.878 103.282V99.1285C157.878 96.8489 156.03 95.001 153.751 95.001Z" fill="#407BFF"/>
<path d="M160.998 93.6287C159.901 93.6757 158.81 93.4525 157.82 92.9787C157.644 92.8707 157.441 92.8135 157.235 92.8135C157.028 92.8135 156.826 92.8707 156.65 92.9787C155.657 93.4533 154.564 93.6765 153.465 93.6287C152.656 93.6374 151.85 93.5279 151.073 93.3037C150.916 93.2511 150.749 93.2365 150.586 93.2612C150.422 93.2858 150.267 93.3491 150.133 93.4457C149.999 93.5422 149.89 93.6693 149.815 93.8165C149.74 93.9636 149.701 94.1265 149.701 94.2917V98.4518C149.701 104.243 152.405 106.349 156.617 109.404C156.797 109.534 157.013 109.604 157.235 109.604C157.456 109.604 157.673 109.534 157.852 109.404C162.064 106.349 164.768 104.243 164.768 98.4518V94.2917C164.767 94.1263 164.727 93.9633 164.652 93.8163C164.576 93.6692 164.466 93.5423 164.331 93.4459C164.197 93.3494 164.042 93.2863 163.878 93.2616C163.714 93.2369 163.547 93.2513 163.39 93.3037C162.613 93.5283 161.807 93.6378 160.998 93.6287Z" fill="#407BFF"/>
<path opacity="0.3" d="M160.998 93.6287C159.901 93.6757 158.81 93.4525 157.82 92.9787C157.644 92.8707 157.441 92.8135 157.235 92.8135C157.028 92.8135 156.826 92.8707 156.65 92.9787C155.657 93.4533 154.564 93.6765 153.465 93.6287C152.656 93.6374 151.85 93.5279 151.073 93.3037C150.916 93.2511 150.749 93.2365 150.586 93.2612C150.422 93.2858 150.267 93.3491 150.133 93.4457C149.999 93.5422 149.89 93.6693 149.815 93.8165C149.74 93.9636 149.701 94.1265 149.701 94.2917V98.4518C149.701 104.243 152.405 106.349 156.617 109.404C156.797 109.534 157.013 109.604 157.235 109.604C157.456 109.604 157.673 109.534 157.852 109.404C162.064 106.349 164.768 104.243 164.768 98.4518V94.2917C164.767 94.1263 164.727 93.9633 164.652 93.8163C164.576 93.6692 164.466 93.5423 164.331 93.4459C164.197 93.3494 164.042 93.2863 163.878 93.2616C163.714 93.2369 163.547 93.2513 163.39 93.3037C162.613 93.5283 161.807 93.6378 160.998 93.6287Z" fill="white"/>
<path opacity="0.2" d="M156.65 92.9661C155.657 93.4406 154.564 93.6638 153.465 93.6161C152.656 93.6243 151.85 93.5148 151.073 93.2911C150.916 93.2384 150.749 93.2238 150.586 93.2485C150.422 93.2732 150.267 93.3364 150.133 93.433C149.999 93.5296 149.89 93.6567 149.815 93.8038C149.74 93.951 149.701 94.1139 149.701 94.2791V98.4391C149.701 104.231 152.405 106.337 156.617 109.392C156.806 109.528 157.034 109.599 157.267 109.593V92.7971C157.049 92.7928 156.835 92.8515 156.65 92.9661Z" fill="white"/>
<path d="M163.274 97.3209C160.741 98.3136 158.484 99.9035 156.696 101.955C155.45 101.036 153.989 100.452 152.452 100.259H152.25V101.253L152.361 101.292C154.07 101.909 155.543 103.046 156.573 104.542L156.735 104.776L156.872 104.523C158.366 101.746 160.642 99.4679 163.417 97.9709L163.515 97.9254V97.2754L163.274 97.3209Z" fill="#263238"/>
<path d="M178.847 69.3712H175.975C175.605 69.378 175.238 69.306 174.898 69.1599C174.559 69.0138 174.254 68.7969 174.005 68.5238C173.756 68.2507 173.568 67.9276 173.454 67.576C173.339 67.2245 173.301 66.8526 173.342 66.4852L173.596 63.6122C173.673 62.8308 174.036 62.1053 174.613 61.5733C175.191 61.0413 175.943 60.7398 176.729 60.7262H179.602C179.972 60.7184 180.339 60.7897 180.68 60.9354C181.02 61.0811 181.325 61.2978 181.575 61.5711C181.825 61.8443 182.014 62.1677 182.128 62.5197C182.243 62.8717 182.281 63.2442 182.241 63.6122L181.987 66.4852C181.9 67.2639 181.534 67.9848 180.957 68.5151C180.38 69.0454 179.631 69.3494 178.847 69.3712Z" fill="#407BFF"/>
<path d="M180.045 63.605L179.421 62.916L177.848 64.359L176.535 62.916L175.788 63.605L177.107 65.048L175.541 66.491L176.165 67.1735L177.731 65.7305L179.051 67.1735L179.792 66.491L178.472 65.048L180.045 63.605Z" fill="white"/>
<path d="M114.641 94.1553C116.305 95.9688 117.891 97.8473 119.471 99.7388C121.05 101.63 122.578 103.561 124.099 105.498C124.164 105.582 124.138 105.55 124.151 105.576C124.164 105.602 124.151 105.608 124.151 105.615C124.162 105.639 124.178 105.661 124.196 105.68C124.252 105.759 124.322 105.825 124.404 105.877C124.485 105.928 124.576 105.963 124.671 105.979C124.744 105.989 124.819 105.989 124.892 105.979C124.931 105.982 124.97 105.982 125.009 105.979H125.067C125.1 105.979 125.067 105.979 125.171 105.94L126.796 105.056C128.98 103.899 131.184 102.768 133.459 101.754L135.363 104.113C133.53 105.797 131.619 107.909 129.689 109.456L128.233 110.6C128.143 110.674 128.047 110.741 127.947 110.802C127.837 110.88 127.722 110.952 127.602 111.016C127.367 111.152 127.124 111.273 126.874 111.38C126.371 111.592 125.842 111.738 125.301 111.816C124.208 111.976 123.092 111.865 122.051 111.491C121.522 111.303 121.02 111.047 120.556 110.73C120.322 110.574 120.101 110.392 119.906 110.217C119.796 110.126 119.705 110.022 119.601 109.924L119.341 109.664C117.618 107.896 115.922 106.115 114.258 104.302C112.594 102.488 110.949 100.662 109.376 98.7638L114.641 94.1553Z" fill="#B55B52"/>
<path d="M132.6 103.184L134.115 98.3154L138.106 100.304C138.106 100.304 137.521 103.853 134.622 104.471L132.6 103.184Z" fill="#B55B52"/>
<path d="M135.709 96.9697L139.31 97.9577L138.101 100.304L134.11 98.3152L135.709 96.9697Z" fill="#B55B52"/>
<path d="M93.657 95.482C93.228 97.549 92.695 99.5965 92.1425 101.638C91.59 103.679 90.9855 105.7 90.355 107.722L90.121 108.482L90.0041 108.859C89.9884 108.913 89.9665 108.966 89.939 109.015C89.8649 109.224 89.8233 109.443 89.8155 109.665C89.8018 110.137 89.9334 110.602 90.1925 110.998C90.3204 111.171 90.4617 111.334 90.6151 111.485L91.1546 112.077L92.2206 113.266C92.9161 114.072 93.6181 114.878 94.2811 115.723L92.0125 118.323C91.0765 117.79 90.1796 117.212 89.2826 116.64L87.95 115.756L87.3 115.307C87.079 115.151 86.8971 115.047 86.5396 114.755C85.2678 113.671 84.3902 112.197 84.0436 110.562C83.8691 109.729 83.8274 108.873 83.9201 108.027C83.9201 107.819 83.985 107.585 84.0175 107.377L84.089 106.987L84.2256 106.207C84.5896 104.121 84.9796 102.041 85.4151 99.9735C85.8506 97.9065 86.3185 95.846 86.871 93.8115L93.657 95.482Z" fill="#B55B52"/>
<path d="M92.0581 115.515L94.7361 114.144L95.9191 118.694C95.9191 118.694 93.7676 119.519 92.1036 118.46L92.0581 115.515Z" fill="#B55B52"/>
<path d="M98.4438 112.681L98.5673 116.867L95.5708 118.823L94.5308 114.228L98.4438 112.681Z" fill="#B55B52"/>
<path d="M107.213 73.9931C107.278 74.3116 107.505 74.5391 107.713 74.5001C107.921 74.4611 108.045 74.1621 107.98 73.8501C107.915 73.5381 107.687 73.3041 107.479 73.3431C107.271 73.3821 107.148 73.6876 107.213 73.9931Z" fill="#263238"/>
<path d="M107.472 74.5449C108.057 75.4515 108.764 76.2738 109.572 76.9889C109.384 77.1915 109.153 77.3506 108.898 77.455C108.642 77.5594 108.366 77.6067 108.09 77.5934L107.472 74.5449Z" fill="#A02724"/>
<path d="M105.67 72.4456C105.632 72.4451 105.596 72.4339 105.565 72.4132C105.533 72.3926 105.509 72.3634 105.494 72.3291C105.478 72.2948 105.474 72.2569 105.479 72.22C105.485 72.183 105.502 72.1485 105.527 72.1206C105.73 71.8903 105.985 71.7114 106.271 71.5984C106.557 71.4855 106.865 71.4417 107.171 71.4706C107.196 71.4752 107.22 71.4848 107.242 71.4988C107.263 71.5128 107.282 71.5309 107.296 71.552C107.311 71.5731 107.321 71.5969 107.326 71.6219C107.332 71.647 107.332 71.6729 107.327 71.6981C107.323 71.723 107.314 71.7469 107.301 71.7683C107.288 71.7897 107.27 71.8082 107.25 71.8228C107.229 71.8373 107.206 71.8476 107.181 71.853C107.156 71.8583 107.131 71.8587 107.106 71.8541C106.864 71.8308 106.619 71.8659 106.393 71.9563C106.167 72.0468 105.966 72.19 105.806 72.3741C105.772 72.4145 105.723 72.4401 105.67 72.4456Z" fill="#263238"/>
<path d="M97.8433 78.5234C98.5583 81.5069 99.2797 86.9734 96.7188 88.9559C96.7188 88.9559 97.7197 91.9849 104.519 91.9849C111.994 91.9849 108.094 90.0349 108.094 90.0349C104.012 89.2419 104.116 85.6994 104.844 83.3789L97.8433 78.5234Z" fill="#B55B52"/>
<path d="M95.9151 89.5079C95.4731 88.6824 94.9791 87.7334 95.9931 87.4344C97.1111 87.1094 104.281 86.5049 106.393 87.1159C105.743 88.2664 106.842 89.7159 106.842 89.7159L95.9151 89.5079Z" fill="#263238"/>
<path d="M101.854 228.985H106.541L107.009 219.547H102.316L101.854 228.985Z" fill="#B55B52"/>
<path d="M72.0928 227.685L76.8443 227.939L79.7303 218.637L74.9788 218.384L72.0928 227.685Z" fill="#B55B52"/>
<path d="M76.7018 227.562L72.2233 226.594C72.1449 226.576 72.0627 226.586 71.9905 226.621C71.9184 226.656 71.8606 226.716 71.8268 226.789L70.2733 230.162C70.2351 230.244 70.2161 230.334 70.2179 230.424C70.2197 230.514 70.2421 230.603 70.2835 230.684C70.325 230.764 70.3843 230.834 70.4569 230.888C70.5294 230.941 70.6134 230.978 70.7023 230.994C72.2688 231.306 73.0488 231.378 75.0183 231.807C76.2273 232.067 78.9638 232.736 80.6343 233.107C82.3048 233.477 82.8833 231.865 82.2333 231.566C79.3083 230.234 78.0863 229.057 77.2933 227.959C77.151 227.759 76.9407 227.618 76.7018 227.562Z" fill="#263238"/>
<path d="M106.295 228.511H101.842C101.762 228.512 101.684 228.54 101.621 228.591C101.559 228.641 101.515 228.712 101.498 228.79L100.692 232.411C100.671 232.498 100.67 232.59 100.69 232.678C100.71 232.765 100.75 232.848 100.806 232.918C100.863 232.988 100.934 233.044 101.016 233.083C101.097 233.121 101.187 233.14 101.277 233.139C102.882 233.139 105.177 233.015 107.224 233.015C109.584 233.015 111.618 233.145 114.374 233.145C116.045 233.145 116.513 231.455 115.811 231.299C112.619 230.604 110.019 230.526 107.263 228.829C106.975 228.637 106.64 228.527 106.295 228.511Z" fill="#263238"/>
<path d="M88.2192 90.3332C84.6832 92.0167 83.7212 102.222 83.7212 102.222L92.4767 106.265C93.9566 103.769 94.763 100.931 94.8167 98.0292C94.9922 92.7577 91.8397 88.6367 88.2192 90.3332Z" fill="#263238"/>
<path opacity="0.4" d="M92.9498 96.626C91.3703 99.083 91.5198 102.879 92.0658 106.083L92.4558 106.265C93.9344 103.769 94.7406 100.931 94.7958 98.03C94.7958 97.718 94.7958 97.38 94.7958 97.1005L92.9498 96.626Z" fill="black"/>
<path d="M112.652 90.0869C112.652 90.0869 116.994 94.9879 112.893 125.317H91.0983C90.9488 121.969 93.0483 105.648 89.7983 89.8789C92.2071 89.4156 94.6431 89.1073 97.0913 88.9559C100.179 88.7803 103.273 88.7803 106.36 88.9559C108.484 89.171 110.587 89.5491 112.652 90.0869Z" fill="#407BFF"/>
<path opacity="0.6" d="M112.652 90.0869C112.652 90.0869 116.994 94.9879 112.893 125.317H91.0983C90.9488 121.969 93.0483 105.648 89.7983 89.8789C92.2071 89.4156 94.6431 89.1073 97.0913 88.9559C100.179 88.7803 103.273 88.7803 106.36 88.9559C108.484 89.171 110.587 89.5491 112.652 90.0869Z" fill="#FAFAFA"/>
<path opacity="0.2" d="M114.558 99.3552L114.48 99.2837L110.144 96.9697C109.702 103.645 112.686 107.831 114.46 109.658C114.683 106.228 114.715 102.789 114.558 99.3552Z" fill="black"/>
<path opacity="0.2" d="M107.011 219.547L106.771 224.415H102.078L102.318 219.547H107.011Z" fill="black"/>
<path opacity="0.2" d="M74.9792 218.391L79.7307 218.638L78.2422 223.435L73.4907 223.181L74.9792 218.391Z" fill="black"/>
<path d="M96.3316 75.4939C97.3781 79.3939 97.7941 81.7404 100.232 83.3654C103.859 85.8094 108.37 83.0014 108.513 78.8609C108.636 75.1364 106.907 69.3709 102.715 68.5844C101.789 68.4013 100.832 68.4586 99.9347 68.7507C99.0375 69.0429 98.2302 69.5602 97.59 70.2533C96.9497 70.9464 96.4978 71.7921 96.2775 72.7096C96.0572 73.6271 96.0758 74.5857 96.3316 75.4939Z" fill="#B55B52"/>
<path d="M105.164 125.316C105.164 125.316 100.536 156.458 98.0143 168.132C95.2193 180.937 80.3083 223.187 80.3083 223.187L73.0088 221.607C73.0088 221.607 82.3623 187.157 84.7088 169.295C85.6188 162.321 86.7173 151.095 88.1083 141.716C89.4538 132.616 91.1113 125.323 91.1113 125.323L105.164 125.316Z" fill="#263238"/>
<path d="M82.0538 220.75L80.6888 223.389L72.4858 221.608L73.1748 219.145L82.0538 220.75Z" fill="#407BFF"/>
<path opacity="0.6" d="M82.0538 220.75L80.6888 223.389L72.4858 221.608L73.1748 219.145L82.0538 220.75Z" fill="white"/>
<path opacity="0.6" d="M102.239 136.412C96.8898 137.459 97.4553 157.407 98.0988 167.664C99.6458 160.41 101.901 146.461 103.442 136.555C103.069 136.372 102.645 136.321 102.239 136.412Z" fill="black"/>
<path d="M112.893 125.317C112.893 125.317 115.07 155.789 114.628 168.217C114.167 181.146 108.037 223.467 108.037 223.467H101.134C101.134 223.467 100.881 181.867 100.575 169.199C100.237 155.354 98.5669 125.311 98.5669 125.311L112.893 125.317Z" fill="#263238"/>
<path d="M109.361 220.724C109.393 220.724 108.971 223.59 108.971 223.59H100.573L100.345 221.029L109.361 220.724Z" fill="#407BFF"/>
<path opacity="0.6" d="M109.361 220.724C109.393 220.724 108.971 223.59 108.971 223.59H100.573L100.345 221.029L109.361 220.724Z" fill="white"/>
<path d="M110.111 95.787C110.111 103.964 114.459 107.331 114.459 107.331L121.551 100.428C119.872 97.6229 117.961 94.9637 115.837 92.4786C111.736 87.7791 110.111 90.5351 110.111 95.787Z" fill="#263238"/>
<path opacity="0.2" d="M108.238 80.3428C108.093 80.7526 107.851 81.1208 107.531 81.4153C107.212 81.7099 106.825 81.9219 106.405 82.0328C105.943 82.127 105.523 82.3676 105.208 82.7187C104.893 83.0699 104.7 83.5131 104.656 83.9828C105.498 83.7013 106.261 83.2249 106.884 82.5923C107.506 81.9597 107.97 81.1889 108.238 80.3428Z" fill="black"/>
<path d="M106.406 67.7268C107.862 65.8873 105.62 65.7768 105.62 65.7768C106.205 63.5863 103.579 64.7628 103.579 64.7628C102.006 62.5918 101.115 65.2373 101.115 65.2373C99.4838 63.3978 99.1653 66.4008 99.1653 66.4008C97.5273 64.0673 96.6953 67.4343 96.6953 67.4343C95.1873 65.0098 94.2643 68.1623 94.2643 68.1623C91.1508 67.0508 92.6263 70.2878 92.6263 70.2878C89.9743 70.3593 92.1063 72.4198 92.1063 72.4198C88.9213 72.4198 91.7293 74.2463 91.7293 74.2463C89.2008 75.9038 92.3793 76.3523 92.3793 76.3523C90.3188 79.6023 93.8613 78.3803 93.8613 78.3803C92.4248 81.5783 95.6033 80.1678 95.6033 80.1678C95.4018 83.2488 97.1763 82.4103 98.0343 81.8383C98.1968 82.4883 98.5088 83.1383 99.0808 83.1903C100.192 83.3398 100.381 81.2403 100.381 81.2403C100.381 81.2403 101.408 82.0463 102.272 81.6108C103.137 81.1753 102.812 80.0768 102.812 80.0768C102.999 80.2171 103.227 80.2929 103.462 80.2929C103.696 80.2929 103.924 80.2171 104.112 80.0768C104.482 79.7908 104.482 77.7238 104.014 76.9958L105.704 76.3458C105.704 76.3458 106.959 76.1703 106.4 74.5128C106.062 73.5602 106.033 72.5256 106.315 71.5553C108.226 70.6583 106.653 69.6053 106.653 69.6053C108.87 68.1818 106.406 67.7268 106.406 67.7268Z" fill="#263238"/>
<path d="M102.979 75.6371C103.244 76.6069 103.822 77.4617 104.624 78.0681C105.683 78.8611 106.476 78.0681 106.398 76.8786C106.333 75.7996 105.696 74.0901 104.526 73.7651C103.356 73.4401 102.7 74.4866 102.979 75.6371Z" fill="#B55B52"/>
</svg>
