<svg width="83" height="88" viewBox="0 0 83 88" fill="none" xmlns="http://www.w3.org/2000/svg">
<rect width="83" height="87.6111" rx="41.5" fill="#E5F1FF"/>
<path d="M41.4964 20.196L41.775 20.2125L41.9143 20.2314L42.0583 20.2621L42.3203 20.3423C42.5013 20.4092 42.6733 20.498 42.8327 20.6068L43.0782 20.8004L43.6803 21.315C48.4431 25.271 54.4625 27.3952 60.6532 27.3048L61.4607 27.2812C61.9886 27.2571 62.5093 27.4108 62.9395 27.7177C63.3696 28.0247 63.6844 28.467 63.8334 28.974C64.9936 32.9205 65.3486 37.06 64.8774 41.1465C64.4062 45.2329 63.1183 49.1829 61.0903 52.7618C59.0624 56.3407 56.3357 59.4755 53.0723 61.9797C49.8089 64.484 46.0754 66.3068 42.0937 67.3397C41.705 67.4404 41.2971 67.4404 40.9085 67.3397C36.9265 66.307 33.1928 64.4845 29.9291 61.9803C26.6655 59.4761 23.9386 56.3414 21.9103 52.7625C19.8821 49.1836 18.5941 45.2335 18.1227 41.1469C17.6513 37.0603 18.0062 32.9207 19.1664 28.974C19.3154 28.467 19.6302 28.0247 20.0604 27.7177C20.4905 27.4108 21.0113 27.2571 21.5391 27.2812C28.0022 27.5766 34.3428 25.4491 39.3196 21.315L39.9405 20.7838L40.1671 20.6068C40.3265 20.498 40.4985 20.4092 40.6795 20.3423L40.9439 20.2621C41.0365 20.2399 41.1303 20.2233 41.2249 20.2125L41.4964 20.196ZM41.5011 36.7227C40.3098 36.7223 39.1624 37.1722 38.2889 37.9823C37.4154 38.7923 36.8803 39.9025 36.791 41.0905L36.7792 41.4446L36.791 41.7988C36.8492 42.5651 37.0936 43.3057 37.503 43.9562C37.9124 44.6067 38.4743 45.1474 39.1401 45.5314V49.708L39.1567 49.9842C39.2277 50.5818 39.5243 51.1296 39.9857 51.5159C40.4472 51.9021 41.0387 52.0975 41.6395 52.0623C42.2402 52.027 42.8048 51.7637 43.2179 51.3261C43.631 50.8885 43.8614 50.3097 43.8621 49.708L43.8644 45.5338C44.7647 45.0139 45.4683 44.2115 45.866 43.251C46.2637 42.2904 46.3333 41.2255 46.064 40.2213C45.7946 39.2172 45.2015 38.33 44.3764 37.6974C43.5514 37.0649 42.5407 36.7222 41.5011 36.7227Z" fill="#0078FF" fill-opacity="0.54"/>
</svg>
