<svg width="96" height="96" viewBox="0 0 96 96" fill="none" xmlns="http://www.w3.org/2000/svg">
<ellipse opacity="0.4" cx="48" cy="48" rx="47.4419" ry="48" fill="#E5F1FF"/>
<ellipse opacity="0.8" cx="47.0697" cy="48" rx="41.5116" ry="42" fill="#E5F1FF"/>
<path d="M47.1339 24L47.4125 24.0165L47.5518 24.0354L47.6958 24.0661L47.9579 24.1464C48.1389 24.2133 48.3109 24.3021 48.4702 24.4108L48.7158 24.6044L49.3178 25.1191C54.0806 29.075 60.1 31.1993 66.2908 31.1089L67.0982 31.0852C67.6261 31.0612 68.1468 31.2149 68.577 31.5218C69.0072 31.8287 69.322 32.2711 69.471 32.7781C70.6312 36.7246 70.9862 40.8641 70.515 44.9505C70.0437 49.037 68.7559 52.987 66.7279 56.5659C64.6999 60.1448 61.9733 63.2795 58.7099 65.7838C55.4465 68.2881 51.713 70.1108 47.7313 71.1437C47.3426 71.2445 46.9347 71.2445 46.5461 71.1437C42.5641 70.1111 38.8304 68.2885 35.5667 65.7843C32.3031 63.2802 29.5761 60.1455 27.5479 56.5666C25.5197 52.9876 24.2317 49.0375 23.7603 44.951C23.2889 40.8644 23.6438 36.7247 24.804 32.7781C24.953 32.2711 25.2677 31.8287 25.6979 31.5218C26.1281 31.2149 26.6488 31.0612 27.1767 31.0852C33.6398 31.3807 39.9804 29.2531 44.9571 25.1191L45.5781 24.5879L45.8047 24.4108C45.9641 24.3021 46.1361 24.2133 46.317 24.1464L46.5815 24.0661C46.674 24.0439 46.7679 24.0274 46.8624 24.0165L47.1339 24ZM47.1387 40.5267C45.9474 40.5264 44.8 40.9763 43.9265 41.7863C43.0529 42.5963 42.5179 43.7066 42.4285 44.8945L42.4167 45.2487L42.4285 45.6028C42.4868 46.3692 42.7312 47.1098 43.1405 47.7603C43.5499 48.4108 44.1119 48.9515 44.7777 49.3355V53.512L44.7942 53.7883C44.8653 54.3858 45.1619 54.9337 45.6233 55.3199C46.0848 55.7061 46.6763 55.9016 47.277 55.8663C47.8778 55.8311 48.4423 55.5677 48.8554 55.1302C49.2685 54.6926 49.499 54.1138 49.4996 53.512L49.502 49.3379C50.4023 48.818 51.1059 48.0156 51.5036 47.055C51.9013 46.0945 51.9709 45.0295 51.7015 44.0254C51.4322 43.0213 50.839 42.1341 50.014 41.5015C49.189 40.8689 48.1783 40.5263 47.1387 40.5267Z" fill="#0078FF" fill-opacity="0.54"/>
</svg>
