<svg width="12" height="17" viewBox="0 0 12 17" fill="none" xmlns="http://www.w3.org/2000/svg">
<g clip-path="url(#clip0_8709_5371)">
<path d="M6.42054 10.8516C6.04856 10.8523 5.692 11.0003 5.42891 11.2633C5.16581 11.5262 5.0176 11.8827 5.01672 12.2547V15.1243C5.01672 15.4967 5.16463 15.8537 5.42789 16.117C5.69116 16.3803 6.04823 16.5282 6.42054 16.5282C6.79286 16.5282 7.14993 16.3803 7.41319 16.117C7.67646 15.8537 7.82436 15.4967 7.82436 15.1243V15.0957V15.097V12.2554C7.82366 11.8835 7.67571 11.5271 7.41289 11.264C7.15006 11.0009 6.79374 10.8526 6.42188 10.8516H6.42054Z" fill="#0078FF"/>
<path d="M11.5084 2.25401H8.80641C8.47908 1.22934 7.53507 0.5 6.4204 0.5C5.30573 0.5 4.36239 1.22934 4.03973 2.23601L4.03506 2.25401H1.36838C1.1822 2.25401 1.00364 2.32797 0.871994 2.45962C0.740343 2.59127 0.666382 2.76983 0.666382 2.95601C0.666382 3.14219 0.740343 3.32075 0.871994 3.4524C1.00364 3.58405 1.1822 3.65801 1.36838 3.65801H4.07039C4.24906 4.25735 4.63706 4.74801 5.14706 5.05535L5.15773 5.06135C3.24372 5.63935 1.87172 7.38136 1.85972 9.44603V13.1314C1.8625 13.4375 1.9853 13.7304 2.20173 13.9469C2.41815 14.1635 2.71091 14.2864 3.01706 14.2894H3.96506V12.2894C3.96506 11.6286 4.22754 10.9949 4.69476 10.5277C5.16197 10.0605 5.79566 9.79803 6.4564 9.79803C7.11715 9.79803 7.75083 10.0605 8.21805 10.5277C8.68526 10.9949 8.94774 11.6286 8.94774 12.2894V14.2894H9.89508C10.2016 14.2873 10.495 14.1646 10.7118 13.9479C10.9287 13.7312 11.0515 13.4379 11.0538 13.1314V9.48203C11.0533 8.49791 10.7352 7.54022 10.1468 6.75141C9.55831 5.9626 8.73095 5.38482 7.78774 5.10402L7.75574 5.09602C8.27719 4.78512 8.66359 4.29053 8.83908 3.70934L8.84374 3.69201H11.5458C11.7318 3.69148 11.91 3.61735 12.0416 3.48582C12.1731 3.35428 12.2472 3.17603 12.2478 2.99001C12.2404 2.79711 12.1604 2.61411 12.024 2.47755C11.8876 2.34098 11.7046 2.26092 11.5118 2.25334H11.5104L11.5084 2.25401ZM6.4204 4.39335C6.14272 4.39335 5.87127 4.311 5.64038 4.15673C5.40949 4.00246 5.22954 3.78318 5.12327 3.52663C5.017 3.27008 4.9892 2.98778 5.04338 2.71543C5.09755 2.44308 5.23127 2.19291 5.42762 1.99656C5.62397 1.80021 5.87414 1.66649 6.14649 1.61231C6.41884 1.55814 6.70114 1.58594 6.95769 1.69221C7.21424 1.79848 7.43352 1.97843 7.58779 2.20932C7.74206 2.44021 7.82441 2.71166 7.82441 2.98934L7.82507 3.02934C7.82507 3.78268 7.21441 4.39335 6.46107 4.39335L6.41907 4.39268H6.42107L6.4204 4.39335Z" fill="#0078FF"/>
</g>
<defs>
<clipPath id="clip0_8709_5371">
<rect width="11.3334" height="16.0001" fill="white" transform="translate(0.666626 0.5)"/>
</clipPath>
</defs>
</svg>
