<svg width="50" height="49" viewBox="0 0 50 49" fill="none" xmlns="http://www.w3.org/2000/svg">
<rect x="0.5" width="49" height="49" rx="7" fill="#D6D9F0"/>
<path d="M22.0666 15.4667L22.8 16.9333H30.1333L30.8666 15.4667H22.0666ZM22.8 17.6667V19.5C22.8 19.5 22.8 23.5333 26.4666 23.5333C30.1333 23.5333 30.1333 19.5 30.1333 19.5V17.6667H22.8ZM16.9098 19.8461C16.5214 19.8523 16.1512 20.0124 15.8806 20.2912C15.61 20.57 15.4611 20.9448 15.4666 21.3333V27.2C15.4665 27.4197 15.5157 27.6367 15.6106 27.8349C15.7055 28.0331 15.8438 28.2074 16.0151 28.3449C16.1865 28.4825 16.3866 28.5798 16.6006 28.6297C16.8146 28.6795 17.0371 28.6806 17.2516 28.6329L21.3333 27.7236V34.5333L29.9558 24.3693C29.7475 24.3055 29.5313 24.2709 29.3134 24.2667H23.5333L18.4 25.3725V21.3333C18.4027 21.137 18.3661 20.9421 18.2921 20.7603C18.2182 20.5784 18.1085 20.4132 17.9695 20.2745C17.8306 20.1358 17.6652 20.0264 17.4831 19.9528C17.3011 19.8793 17.1061 19.843 16.9098 19.8461ZM31.2304 25.3095L23.4042 34.5333H31.6V26.5532C31.6 26.0927 31.4621 25.6673 31.2304 25.3095Z" fill="#4A5BE4"/>
</svg>
