<svg width="94" height="94" viewBox="0 0 94 94" fill="none" xmlns="http://www.w3.org/2000/svg">
<rect width="94" height="94" rx="45.7919" fill="#195CA7"/>
<circle cx="47.0006" cy="47.0001" r="37.361" fill="#195CA7" stroke="white" stroke-width="4.17778"/>
<g clip-path="url(#clip0_4876_9594)">
<path fill-rule="evenodd" clip-rule="evenodd" d="M44.8678 27.1555H37.0718C36.7512 27.1556 36.4401 27.2645 36.1894 27.4643C35.9386 27.6641 35.763 27.9429 35.6912 28.2554L27.1864 65.1094C27.1387 65.317 27.1384 65.5327 27.1855 65.7405C27.2327 65.9483 27.326 66.1428 27.4587 66.3095C27.5914 66.4762 27.7599 66.6109 27.9518 66.7035C28.1437 66.7961 28.354 66.8442 28.567 66.8443H44.8678V60.7379C44.8678 60.174 45.0918 59.6332 45.4906 59.2345C45.8893 58.8357 46.4301 58.6117 46.994 58.6117C47.5579 58.6117 48.0987 58.8357 48.4974 59.2345C48.8962 59.6332 49.1202 60.174 49.1202 60.7379V66.8443H65.421C65.634 66.8442 65.8443 66.7961 66.0362 66.7035C66.2281 66.6109 66.3966 66.4762 66.5293 66.3095C66.662 66.1428 66.7553 65.9483 66.8025 65.7405C66.8496 65.5327 66.8493 65.317 66.8016 65.1094L58.2968 28.2554C58.225 27.9429 58.0494 27.6641 57.7986 27.4643C57.5479 27.2645 57.2368 27.1556 56.9162 27.1555H49.1202V33.2619C49.1202 33.8258 48.8962 34.3666 48.4974 34.7653C48.0987 35.1641 47.5579 35.3881 46.994 35.3881C46.4301 35.3881 45.8893 35.1641 45.4906 34.7653C45.0918 34.3666 44.8678 33.8258 44.8678 33.2619V27.1555ZM46.994 41.8205C47.5579 41.8205 48.0987 42.0445 48.4974 42.4432C48.8962 42.842 49.1202 43.3828 49.1202 43.9467V50.0531C49.1202 50.617 48.8962 51.1578 48.4974 51.5566C48.0987 51.9553 47.5579 52.1793 46.994 52.1793C46.4301 52.1793 45.8893 51.9553 45.4906 51.5566C45.0918 51.1578 44.8678 50.617 44.8678 50.0531V43.9467C44.8678 43.3828 45.0918 42.842 45.4906 42.4432C45.8893 42.0445 46.4301 41.8205 46.994 41.8205Z" fill="white"/>
</g>
<defs>
<clipPath id="clip0_4876_9594">
<rect width="39.6889" height="39.6889" fill="white" transform="translate(27.1504 27.1554)"/>
</clipPath>
</defs>
</svg>
