<svg width="82" height="82" viewBox="0 0 82 82" fill="none" xmlns="http://www.w3.org/2000/svg">
<path d="M40.75 79.5C45.8397 79.5063 50.8804 78.5068 55.5826 76.5591C60.2848 74.6113 64.5558 71.7536 68.1501 68.1501C71.7536 64.5558 74.6113 60.2848 76.5591 55.5826C78.5068 50.8804 79.5063 45.8397 79.5 40.75C79.5063 35.6604 78.5068 30.6197 76.5591 25.9175C74.6113 21.2153 71.7536 16.9443 68.1501 13.3499C64.5558 9.74647 60.2848 6.88877 55.5826 4.94099C50.8804 2.99321 45.8397 1.99375 40.75 2.00003C35.6604 1.99375 30.6197 2.99321 25.9175 4.94099C21.2153 6.88877 16.9443 9.74647 13.3499 13.3499C9.74647 16.9443 6.88877 21.2153 4.94099 25.9175C2.99321 30.6197 1.99375 35.6604 2.00003 40.75C1.99375 45.8397 2.99321 50.8804 4.94099 55.5826C6.88877 60.2848 9.74647 64.5558 13.3499 68.1501C16.9443 71.7536 21.2153 74.6113 25.9175 76.5591C30.6197 78.5068 35.6604 79.5063 40.75 79.5Z" fill="#F5F5F5" stroke="#F5F5F5" stroke-width="4" stroke-linejoin="round"/>
<path d="M25.25 40.75L36.875 52.375L60.125 29.125" fill="#F5F5F5"/>
<path d="M25.25 40.75L36.875 52.375L60.125 29.125" stroke="#0078FF" stroke-width="4" stroke-linecap="round" stroke-linejoin="round"/>
</svg>
