<svg width="51" height="52" viewBox="0 0 51 52" fill="none" xmlns="http://www.w3.org/2000/svg">
<rect y="0.256836" width="51" height="51.4868" rx="25.5" fill="#E5F1FF"/>
<path d="M35.4451 16.9248C34.9398 16.4157 34.3384 16.0122 33.6758 15.7376C33.0131 15.463 32.3026 15.3228 31.5853 15.3252H19.3801C17.9301 15.3283 16.5403 15.9057 15.515 16.931C14.4896 17.9563 13.9122 19.3461 13.9092 20.7961V28.4461C13.9122 29.8962 14.4896 31.2859 15.515 32.3113C16.5403 33.3366 17.9301 33.914 19.3801 33.917H22.0808L24.341 36.1657C24.4917 36.328 24.6725 36.4589 24.8742 36.5482C25.0724 36.6293 25.2857 36.6734 25.5001 36.6757C25.9351 36.6707 26.351 36.496 26.6592 36.1889L28.9774 33.8707H31.678C33.1253 33.8679 34.5128 33.2929 35.5378 32.2711C36.0342 31.7597 36.4277 31.1576 36.6969 30.4977C36.9647 29.8312 37.1026 29.1184 37.1026 28.3998V20.7498C37.0791 19.3054 36.4829 17.9296 35.4451 16.9248ZM26.6244 29.7675C26.6244 30.0749 26.5023 30.3697 26.2849 30.5871C26.0675 30.8045 25.7727 30.9266 25.4653 30.9266C25.1579 30.9266 24.8631 30.8045 24.6457 30.5871C24.4283 30.3697 24.3062 30.0749 24.3062 29.7675V23.9141C24.3062 23.6067 24.4283 23.3119 24.6457 23.0945C24.8631 22.8771 25.1579 22.755 25.4653 22.755C25.7727 22.755 26.0675 22.8771 26.2849 23.0945C26.5023 23.3119 26.6244 23.6067 26.6244 23.9141V29.7675ZM25.3494 21.6539C24.9651 21.6539 24.5966 21.5012 24.3249 21.2295C24.0532 20.9578 23.9005 20.5893 23.9005 20.205C23.9005 19.8207 24.0532 19.4522 24.3249 19.1805C24.5966 18.9088 24.9651 18.7561 25.3494 18.7561C25.7337 18.7561 26.1022 18.9088 26.3739 19.1805C26.6456 19.4522 26.7983 19.8207 26.7983 20.205C26.7983 20.5893 26.6456 20.9578 26.3739 21.2295C26.1022 21.5012 25.7337 21.6539 25.3494 21.6539Z" fill="#0078FF"/>
</svg>
