<svg width="14" height="24" viewBox="0 0 14 24" fill="none" xmlns="http://www.w3.org/2000/svg">
<path d="M1.56944 23.9768C1.19004 23.9768 0.82618 23.8261 0.557906 23.5578C0.289631 23.2895 0.138916 22.9257 0.138916 22.5463L0.138916 5.75353C0.138916 4.96377 0.77967 4.32301 1.56944 4.32301H3.26421C3.31851 4.32301 3.36851 4.33493 3.41421 4.35877L3.41223 4.35778V0.30166C3.41223 0.209272 3.48673 0.134766 3.57912 0.134766H9.55949C9.65188 0.134766 9.72638 0.209272 9.72638 0.30166V4.33394C9.75231 4.32707 9.77904 4.32373 9.80586 4.32401H11.3109C12.1007 4.32401 12.7414 4.96476 12.7414 5.75453V9.75899C12.7859 9.73615 12.8354 9.72487 12.8855 9.72621H13.6375C13.8222 9.72621 13.9722 9.87621 13.9722 10.061V18.7752C13.9722 18.864 13.937 18.9492 13.8742 19.012C13.8114 19.0748 13.7263 19.11 13.6375 19.11H12.8855C12.8347 19.1114 12.7844 19.0998 12.7394 19.0762L12.7414 19.0772V22.5463C12.7414 22.9257 12.5907 23.2895 12.3224 23.5578C12.0541 23.8261 11.6903 23.9768 11.3109 23.9768H1.56944ZM8.84522 20.767V21.8936C8.84548 21.938 8.86326 21.9806 8.89468 22.012C8.92611 22.0434 8.96866 22.0612 9.01311 22.0615H10.3383C10.3828 22.0612 10.4253 22.0434 10.4568 22.012C10.4882 21.9806 10.506 21.938 10.5062 21.8936V20.767C10.5057 20.7228 10.4878 20.6805 10.4564 20.6493C10.425 20.618 10.3826 20.6004 10.3383 20.6001H9.01112C8.96685 20.6004 8.92445 20.618 8.89304 20.6493C8.86164 20.6805 8.84376 20.7228 8.84324 20.767H8.84522ZM5.71 20.767V21.8936C5.71026 21.938 5.72803 21.9806 5.75946 22.012C5.79089 22.0434 5.83344 22.0612 5.87789 22.0615H7.20211C7.24656 22.0612 7.28911 22.0434 7.32054 22.012C7.35197 21.9806 7.36974 21.938 7.37 21.8936V20.767C7.36948 20.7228 7.35159 20.6805 7.32019 20.6493C7.28879 20.618 7.24639 20.6004 7.20211 20.6001H5.87689C5.83262 20.6004 5.79021 20.618 5.75881 20.6493C5.72741 20.6805 5.71052 20.7228 5.71 20.767ZM2.57477 20.767V21.8946C2.57477 21.987 2.64928 22.0615 2.74167 22.0615H4.06689C4.11133 22.0612 4.15388 22.0434 4.18531 22.012C4.21674 21.9806 4.23451 21.938 4.23477 21.8936V20.767C4.23425 20.7228 4.21637 20.6805 4.18497 20.6493C4.15357 20.618 4.11116 20.6004 4.06689 20.6001H2.74167C2.69757 20.6007 2.65541 20.6184 2.62423 20.6496C2.59304 20.6808 2.57529 20.7229 2.57477 20.767ZM8.84423 18.213V19.3395C8.84449 19.384 8.86226 19.4265 8.89369 19.4579C8.92512 19.4894 8.96767 19.5071 9.01212 19.5074H10.3373C10.3818 19.5071 10.4243 19.4894 10.4558 19.4579C10.4872 19.4265 10.505 19.384 10.5052 19.3395V18.212C10.5047 18.1679 10.487 18.1257 10.4558 18.0945C10.4246 18.0633 10.3824 18.0456 10.3383 18.0451H9.01013C8.96603 18.0456 8.92388 18.0633 8.89269 18.0945C8.8615 18.1257 8.84375 18.1679 8.84324 18.212L8.84423 18.213ZM5.70901 18.213V19.3395C5.70927 19.384 5.72704 19.4265 5.75847 19.4579C5.7899 19.4894 5.83245 19.5071 5.87689 19.5074H7.20211C7.24656 19.5071 7.28911 19.4894 7.32054 19.4579C7.35197 19.4265 7.36974 19.384 7.37 19.3395V18.212C7.36948 18.1679 7.35173 18.1257 7.32055 18.0945C7.28936 18.0633 7.24721 18.0456 7.2031 18.0451H5.8759C5.8318 18.0456 5.78965 18.0633 5.75846 18.0945C5.72727 18.1257 5.70952 18.1689 5.70901 18.213ZM2.57378 18.213V19.3405C2.57378 19.4329 2.64829 19.5074 2.74068 19.5074H4.06589C4.11034 19.5071 4.15289 19.4894 4.18432 19.4579C4.21575 19.4265 4.23352 19.384 4.23378 19.3395V18.212C4.23327 18.1679 4.21552 18.1257 4.18433 18.0945C4.15314 18.0633 4.11099 18.0456 4.06689 18.0451H2.74068C2.69657 18.0456 2.65442 18.0633 2.62323 18.0945C2.59205 18.1257 2.5743 18.1689 2.57378 18.213ZM8.84324 15.6579V16.7854C8.84324 16.8778 8.91774 16.9523 9.01013 16.9523H10.3373C10.3814 16.9518 10.4236 16.9341 10.4548 16.9029C10.486 16.8717 10.5037 16.8295 10.5042 16.7854V15.6579C10.5037 15.6136 10.4858 15.5713 10.4544 15.5401C10.423 15.5089 10.3806 15.4913 10.3363 15.491H9.01112C8.96685 15.4913 8.92445 15.5089 8.89304 15.5401C8.86164 15.5713 8.84376 15.6136 8.84324 15.6579ZM5.70801 15.6579V16.7854C5.70801 16.8778 5.78252 16.9523 5.87491 16.9523H7.20211C7.24621 16.9518 7.28837 16.9341 7.31955 16.9029C7.35074 16.8717 7.36849 16.8295 7.36901 16.7854V15.6579C7.36849 15.6136 7.3506 15.5713 7.3192 15.5401C7.2878 15.5089 7.24539 15.4913 7.20112 15.491H5.8759C5.83162 15.4913 5.78922 15.5089 5.75782 15.5401C5.72642 15.5713 5.70853 15.6136 5.70801 15.6579ZM2.57279 15.6579V16.7854C2.57279 16.8778 2.64729 16.9523 2.73968 16.9523H4.06689C4.11099 16.9518 4.15314 16.9341 4.18433 16.9029C4.21552 16.8717 4.23327 16.8295 4.23378 16.7854V15.6579C4.23326 15.6136 4.21537 15.5713 4.18397 15.5401C4.15257 15.5089 4.11017 15.4913 4.06589 15.491H2.74068C2.69657 15.4915 2.65442 15.5093 2.62323 15.5405C2.59205 15.5716 2.5733 15.6138 2.57279 15.6579ZM2.36417 8.98909V13.8688C2.36417 13.9611 2.43868 14.0357 2.53106 14.0357H10.242C10.2861 14.0351 10.3282 14.0174 10.3594 13.9862C10.3906 13.955 10.4083 13.9129 10.4089 13.8688V8.98909C10.4086 8.94465 10.3908 8.90209 10.3594 8.87067C10.328 8.83924 10.2854 8.82147 10.241 8.8212H2.53206C2.48761 8.82147 2.44506 8.83924 2.41363 8.87067C2.3822 8.90209 2.36443 8.94465 2.36417 8.98909ZM1.86349 6.32475V7.50691C1.86349 7.78408 2.088 8.00859 2.36516 8.00859H10.7089C10.8419 8.00859 10.9695 7.95573 11.0636 7.86165C11.1577 7.76757 11.2106 7.63997 11.2106 7.50691V6.32475C11.2106 6.19169 11.1577 6.06409 11.0636 5.97001C10.9695 5.87593 10.8419 5.82307 10.7089 5.82307H9.72539V6.82642H10.2102V7.00325H2.86684V6.82642H3.18573C3.26633 6.82661 3.34577 6.80717 3.41719 6.7698L3.41421 6.77079V5.8787C3.3433 5.84198 3.26459 5.8229 3.18473 5.82307H2.36318C2.2303 5.82333 2.10295 5.87631 2.00908 5.97036C1.91521 6.06441 1.86349 6.19187 1.86349 6.32475Z" fill="white"/>
</svg>
