<svg width="22" height="22" viewBox="0 0 22 22" fill="none" xmlns="http://www.w3.org/2000/svg">
<path d="M12.3816 19.5756V12.4937H3.01815C2.44506 12.4937 1.89543 12.7213 1.49011 13.1264C1.08478 13.5316 0.856944 14.0811 0.856689 14.6542V15.538C0.856689 16.0875 1.02961 16.6235 1.34758 17.0712C2.8289 19.15 5.25358 20.1789 8.53899 20.1789C9.98957 20.1789 11.274 19.979 12.3816 19.5756ZM8.53899 0.970703C9.16976 0.970703 9.79436 1.09494 10.3771 1.33633C10.9599 1.57771 11.4894 1.93152 11.9354 2.37754C12.3814 2.82356 12.7352 3.35307 12.9766 3.93582C13.218 4.51858 13.3422 5.14317 13.3422 5.77394C13.3422 6.40471 13.218 7.02931 12.9766 7.61206C12.7352 8.19482 12.3814 8.72433 11.9354 9.17035C11.4894 9.61637 10.9599 9.97017 10.3771 10.2116C9.79436 10.4529 9.16976 10.5772 8.53899 10.5772C7.26509 10.5772 6.04337 10.0711 5.14259 9.17035C4.24181 8.26957 3.73575 7.04784 3.73575 5.77394C3.73575 4.50005 4.24181 3.27832 5.14259 2.37754C6.04337 1.47676 7.26509 0.970703 8.53899 0.970703ZM19.3511 8.65108C20.2791 8.65108 21.0322 9.40423 21.0322 10.3322V19.4584C21.0322 19.9042 20.8551 20.3318 20.5398 20.6471C20.2246 20.9624 19.797 21.1395 19.3511 21.1395H15.0234C14.5775 21.1395 14.1499 20.9624 13.8346 20.6471C13.5194 20.3318 13.3422 19.9042 13.3422 19.4584V10.3322C13.3422 9.40423 14.0954 8.65108 15.0234 8.65108H19.3511ZM17.4279 17.294H16.9475L16.8496 17.3008C16.6687 17.3256 16.5041 17.4182 16.3889 17.5598C16.2737 17.7015 16.2165 17.8815 16.229 18.0636C16.2414 18.2458 16.3225 18.4164 16.4559 18.541C16.5893 18.6656 16.765 18.735 16.9475 18.735H17.4279L17.5249 18.7283C17.7057 18.7034 17.8702 18.6109 17.9854 18.4694C18.1006 18.3279 18.1579 18.1479 18.1455 17.9659C18.1332 17.7838 18.0523 17.6132 17.9191 17.4885C17.7859 17.3638 17.6103 17.2943 17.4279 17.294Z" fill="white"/>
</svg>
