<svg width="34" height="34" viewBox="0 0 34 34" fill="none" xmlns="http://www.w3.org/2000/svg">
<g clip-path="url(#clip0_9844_10329)">
<path d="M33.3666 21.7879C32.6701 21.0773 31.584 21.1238 30.852 21.7879L25.3979 26.6953C24.7284 27.2996 23.8951 27.6277 23.0368 27.625H16.0556C15.8051 27.625 15.5648 27.5131 15.3877 27.3138C15.2106 27.1145 15.1111 26.8443 15.1111 26.5625C15.1111 26.2807 15.2106 26.0105 15.3877 25.8112C15.5648 25.6119 15.8051 25.5 16.0556 25.5H20.6768C21.6154 25.5 22.4896 24.7762 22.6395 23.7336C22.6581 23.6139 22.6671 23.4925 22.6667 23.371C22.6657 22.8081 22.4663 22.2686 22.1122 21.871C21.758 21.4733 21.2781 21.25 20.7778 21.25H11.3333C9.74053 21.2505 8.19628 21.8668 6.95937 22.9958L4.21458 25.5H0.944444C0.693962 25.5 0.453739 25.6119 0.276621 25.8112C0.0995037 26.0105 0 26.2807 0 26.5625L0 32.9375C0 33.2193 0.0995037 33.4895 0.276621 33.6888C0.453739 33.8881 0.693962 34 0.944444 34H22.0038C22.8618 34.0008 23.6945 33.6729 24.3649 33.0703L33.2917 25.0352C33.5064 24.8419 33.681 24.5983 33.8034 24.3213C33.9258 24.0443 33.9929 23.7405 34.0001 23.4313C34.0073 23.122 33.9544 22.8148 33.8451 22.5309C33.7358 22.2471 33.5721 21.9935 33.3666 21.7879Z" fill="#0078FF"/>
<path d="M24.0263 1.16895C24.8954 1.16895 25.7281 1.55942 26.3421 2.2535L29.3842 5.69236C29.6882 6.03607 29.9294 6.44412 30.094 6.8932C30.2585 7.34229 30.3432 7.82361 30.3432 8.3097C30.3432 8.79579 30.2585 9.27711 30.094 9.7262C29.9294 10.1753 29.6882 10.5833 29.3842 10.927L27.152 13.4503C26.6105 14.0619 25.8968 14.4398 25.1345 14.5187C24.3723 14.5975 23.6097 14.3722 22.9791 13.8819L22.8904 13.8074L17.9228 19.424C17.5383 19.8571 17.0409 20.1392 16.5039 20.2288L16.3181 20.2546L16.1315 20.2631H15.1417C14.2853 20.2631 13.5649 19.5385 13.4602 18.5227L13.4526 18.3537V17.2348C13.4526 16.5627 13.662 15.9116 14.0691 15.3636L14.1949 15.2099L14.5446 14.8146C14.7029 14.6356 14.9177 14.5349 15.1417 14.5349H15.9862V13.5802C15.9862 13.3463 16.0622 13.1206 16.1996 12.9459C16.3371 12.7711 16.5265 12.6595 16.7319 12.6322L16.8308 12.6255H17.6753V11.6708C17.6753 11.4609 17.7364 11.2569 17.8493 11.0903L17.9228 10.9948L19.1626 9.59235L19.0984 9.49402C18.7612 8.93931 18.5633 8.29164 18.5258 7.61992L18.5199 7.39461C18.5199 6.41221 18.8653 5.47087 19.4793 4.77679L21.7114 2.2535C22.3255 1.55956 23.1581 1.16949 24.0263 1.16895ZM24.4444 5.9425H24.4275C23.9795 5.9425 23.5499 6.14367 23.2331 6.50175C22.9164 6.85984 22.7384 7.34551 22.7384 7.85192C22.7384 8.35833 22.9164 8.84399 23.2331 9.20208C23.5499 9.56017 23.9795 9.76134 24.4275 9.76134H24.4444C24.8924 9.76134 25.322 9.56017 25.6388 9.20208C25.9555 8.84399 26.1335 8.35833 26.1335 7.85192C26.1335 7.34551 25.9555 6.85984 25.6388 6.50175C25.322 6.14367 24.8924 5.9425 24.4444 5.9425Z" fill="#0078FF"/>
</g>
<defs>
<clipPath id="clip0_9844_10329">
<rect width="34" height="34" fill="white"/>
</clipPath>
</defs>
</svg>
