<svg width="37" height="41" viewBox="0 0 37 41" fill="none" xmlns="http://www.w3.org/2000/svg">
<circle cx="17.0094" cy="20.4996" r="15.8983" fill="#0078FF" stroke="#0078FF" stroke-width="1.77778"/>
<g clip-path="url(#clip0_9844_19505)">
<path d="M26.1291 22.7146C25.7298 22.3073 25.1071 22.3339 24.6875 22.7146L21.5606 25.528C21.1768 25.8745 20.6991 26.0626 20.207 26.061H16.2046C16.061 26.061 15.9233 25.9969 15.8218 25.8826C15.7202 25.7684 15.6632 25.6135 15.6632 25.4519C15.6632 25.2904 15.7202 25.1354 15.8218 25.0212C15.9233 24.9069 16.061 24.8428 16.2046 24.8428H18.854C19.3921 24.8428 19.8933 24.4278 19.9792 23.8301C19.9899 23.7615 19.9951 23.6919 19.9948 23.6222C19.9943 23.2995 19.8799 22.9902 19.6769 22.7623C19.4739 22.5343 19.1987 22.4062 18.9119 22.4063H13.4974C12.5842 22.4065 11.6989 22.7599 10.9898 23.4071L9.41622 24.8428H7.54145C7.39785 24.8428 7.26013 24.9069 7.15859 25.0212C7.05705 25.1354 7 25.2904 7 25.4519V29.1067C7 29.2682 7.05705 29.4232 7.15859 29.5374C7.26013 29.6516 7.39785 29.7158 7.54145 29.7158H19.6148C20.1067 29.7163 20.5841 29.5283 20.9684 29.1828L26.0861 24.5763C26.2092 24.4655 26.3093 24.3258 26.3795 24.167C26.4496 24.0082 26.4881 23.8341 26.4922 23.6568C26.4964 23.4795 26.466 23.3033 26.4034 23.1406C26.3407 22.9779 26.2469 22.8325 26.1291 22.7146Z" fill="white"/>
<path d="M20.7753 10.8926C21.2735 10.8926 21.7509 11.1164 22.1029 11.5144L23.847 13.4859C24.0213 13.6829 24.1596 13.9168 24.2539 14.1743C24.3482 14.4318 24.3968 14.7077 24.3968 14.9864C24.3968 15.265 24.3482 15.541 24.2539 15.7984C24.1596 16.0559 24.0213 16.2898 23.847 16.4869L22.5673 17.9335C22.2568 18.2841 21.8476 18.5008 21.4107 18.546C20.9737 18.5911 20.5365 18.462 20.1749 18.1809L20.1241 18.1382L17.2761 21.3582C17.0557 21.6065 16.7706 21.7682 16.4627 21.8196L16.3562 21.8344L16.2492 21.8393H15.6817C15.1908 21.8393 14.7778 21.4239 14.7177 20.8415L14.7134 20.7446V20.1031C14.7134 19.7178 14.8335 19.3445 15.0668 19.0304L15.139 18.9422L15.3394 18.7156C15.4302 18.613 15.5533 18.5553 15.6817 18.5553H16.1659V18.0079C16.1659 17.8739 16.2095 17.7445 16.2883 17.6443C16.3671 17.5441 16.4757 17.4801 16.5935 17.4644L16.6501 17.4606H17.1343V16.9133C17.1343 16.793 17.1693 16.676 17.234 16.5805L17.2761 16.5258L17.9869 15.7217L17.9501 15.6653C17.7568 15.3473 17.6434 14.976 17.6219 14.5909L17.6185 14.4617C17.6185 13.8985 17.8165 13.3589 18.1685 12.961L19.4482 11.5144C19.8002 11.1165 20.2775 10.8929 20.7753 10.8926ZM21.015 13.6293H21.0053C20.7485 13.6293 20.5022 13.7446 20.3206 13.9499C20.139 14.1552 20.0369 14.4336 20.0369 14.7239C20.0369 15.0142 20.139 15.2927 20.3206 15.498C20.5022 15.7033 20.7485 15.8186 21.0053 15.8186H21.015C21.2718 15.8186 21.5181 15.7033 21.6997 15.498C21.8813 15.2927 21.9834 15.0142 21.9834 14.7239C21.9834 14.4336 21.8813 14.1552 21.6997 13.9499C21.5181 13.7446 21.2718 13.6293 21.015 13.6293Z" fill="white"/>
</g>
<defs>
<clipPath id="clip0_9844_19505">
<rect width="19.4922" height="19.4922" fill="white" transform="translate(7 10.2227)"/>
</clipPath>
</defs>
</svg>
