<svg width="25" height="25" viewBox="0 0 25 25" fill="none" xmlns="http://www.w3.org/2000/svg">
<path d="M12.0737 13.5C12.626 13.5 13.0737 13.0523 13.0737 12.5C13.0737 11.9477 12.626 11.5 12.0737 11.5C11.5214 11.5 11.0737 11.9477 11.0737 12.5C11.0737 13.0523 11.5214 13.5 12.0737 13.5Z" stroke="#E2EAF5" stroke-width="2" stroke-linecap="round" stroke-linejoin="round"/>
<path d="M12.0737 6.5C12.626 6.5 13.0737 6.05228 13.0737 5.5C13.0737 4.94772 12.626 4.5 12.0737 4.5C11.5214 4.5 11.0737 4.94772 11.0737 5.5C11.0737 6.05228 11.5214 6.5 12.0737 6.5Z" stroke="#E2EAF5" stroke-width="2" stroke-linecap="round" stroke-linejoin="round"/>
<path d="M12.0737 20.5C12.626 20.5 13.0737 20.0523 13.0737 19.5C13.0737 18.9477 12.626 18.5 12.0737 18.5C11.5214 18.5 11.0737 18.9477 11.0737 19.5C11.0737 20.0523 11.5214 20.5 12.0737 20.5Z" stroke="#E2EAF5" stroke-width="2" stroke-linecap="round" stroke-linejoin="round"/>
</svg>
