<svg version="1.2" xmlns="http://www.w3.org/2000/svg" viewBox="0 0 96 132" width="96" height="132">
	<title>wallet_card_bg</title>
	<defs>
		<clipPath clipPathUnits="userSpaceOnUse" id="cp1">
			<path d="m-139.31-0.57l326.72 1.14c8.27 0.03 14.96 6.74 14.93 14.97l-0.36 102.17c-0.03 8.24-6.76 14.89-15.04 14.86l-326.71-1.14c-8.28-0.03-14.97-6.74-14.94-14.97l0.37-102.17c0.02-8.24 6.76-14.89 15.03-14.86z"/>
		</clipPath>
	</defs>
	<style>
		.s0 { fill: #0078ff } 
		.s1 { fill: #ffffff } 
	</style>
	<g>
		<g id="Clip-Path" clip-path="url(#cp1)">
			<g>
				<g>
					<path fill-rule="evenodd" class="s0" d="m-0.25-0.09l94.82 0.34c2.39 0.01 4.31 6.69 4.28 14.93l-0.36 102.17c-0.03 8.23-1.99 14.91-4.39 14.9l-94.82-0.34c-2.39 0-4.31-6.69-4.28-14.93l0.36-102.16c0.03-8.24 2-14.91 4.39-14.91z"/>
				</g>
				<g style="opacity: .5">
					<g style="opacity: .6">
						<g style="opacity: .5">
							<path class="s1" d="m47.61 32.39c-30.25-25.69-33.86-70.92-8.05-101.03 25.81-30.11 71.25-33.7 101.51-8.01l175.98 149.4-71.97 83.96c-11.87 13.85-32.78 15.5-46.69 3.69z"/>
							<path class="s1" d="m373.51 5.85c25.72-30.19 21.98-75.41-8.35-101.01-30.34-25.59-75.77-21.87-101.49 8.32l-149.58 175.6 84.58 71.36c13.95 11.78 34.85 10.06 46.68-3.82z"/>
							<path fill-rule="evenodd" class="s1" d="m132.75 59.02c-66.34 4.47-123.6-45.3-128.08-111.33-4.48-66.03 45.52-123.01 111.86-127.47 66.35-4.47 123.6 45.3 128.08 111.33 4.49 66.03-45.51 123.01-111.86 127.47z"/>
							<path fill-rule="evenodd" class="s1" d="m289.36 48.49c-66.34 4.46-123.59-45.3-128.08-111.33-4.48-66.03 45.52-123.01 111.87-127.48 66.34-4.46 123.59 45.31 128.08 111.34 4.48 66.03-45.52 123.01-111.87 127.47z"/>
						</g>
					</g>
				</g>
				<g style="opacity: .5">
					<g style="opacity: .6">
						<g style="opacity: .5">
							<path class="s1" d="m27.54 56.18c-30.25-25.68-33.85-70.91-8.05-101.02 25.81-30.12 71.26-33.7 101.51-8.02l175.98 149.41-71.96 83.96c-11.88 13.85-32.78 15.5-46.7 3.68z"/>
							<path class="s1" d="m353.45 29.64c25.71-30.19 21.97-75.41-8.36-101-30.33-25.6-75.77-21.87-101.48 8.32l-149.58 175.59 84.58 71.37c13.95 11.77 34.85 10.06 46.68-3.83z"/>
							<path fill-rule="evenodd" class="s1" d="m112.68 82.82c-66.34 4.46-123.59-45.3-128.08-111.33-4.48-66.03 45.52-123.01 111.87-127.48 66.34-4.46 123.59 45.31 128.08 111.34 4.48 66.03-45.52 123.01-111.87 127.47z"/>
							<path fill-rule="evenodd" class="s1" d="m269.3 72.29c-66.35 4.46-123.6-45.31-128.08-111.34-4.49-66.03 45.51-123.01 111.86-127.47 66.34-4.46 123.6 45.3 128.08 111.33 4.48 66.03-45.52 123.01-111.86 127.48z"/>
						</g>
					</g>
				</g>
				<g style="opacity: .5">
					<g style="opacity: .6">
						<g style="opacity: .5">
							<path class="s1" d="m7.48 79.98c-30.26-25.69-33.86-70.92-8.06-101.03 25.81-30.11 71.26-33.7 101.51-8.01l175.98 149.4-71.96 83.96c-11.88 13.85-32.78 15.5-46.7 3.69z"/>
							<path class="s1" d="m333.38 53.44c25.72-30.19 21.97-75.41-8.36-101.01-30.33-25.59-75.77-21.87-101.48 8.32l-149.58 175.6 84.58 71.36c13.95 11.78 34.85 10.06 46.68-3.82z"/>
							<path fill-rule="evenodd" class="s1" d="m92.62 106.61c-66.35 4.47-123.6-45.3-128.08-111.33-4.49-66.03 45.51-123.01 111.86-127.47 66.34-4.46 123.6 45.3 128.08 111.33 4.48 66.03-45.52 123.01-111.86 127.47z"/>
							<path fill-rule="evenodd" class="s1" d="m249.23 96.08c-66.35 4.46-123.6-45.3-128.08-111.33-4.49-66.03 45.52-123.01 111.86-127.48 66.34-4.46 123.6 45.31 128.08 111.34 4.48 66.03-45.52 123.01-111.86 127.47z"/>
						</g>
					</g>
				</g>
			</g>
		</g>
	</g>
</svg>