<svg width="60" height="61" viewBox="0 0 60 61" fill="none" xmlns="http://www.w3.org/2000/svg">
<rect y="0.666748" width="60" height="60" rx="30" fill="#E5F1FF"/>
<path d="M16.3636 23.8486L22.3773 17.8349C22.631 17.5797 22.9327 17.3772 23.2651 17.2391C23.5974 17.1011 23.9538 17.0301 24.3136 17.0304H35.6864C36.0463 17.0301 36.4026 17.1011 36.735 17.2391C37.0673 17.3772 37.369 17.5797 37.6227 17.8349L43.6364 23.8486M16.3636 23.8486H43.6364M16.3636 23.8486V27.9395C16.3636 28.6628 16.651 29.3565 17.1624 29.868C17.6739 30.3794 18.3676 30.6668 19.0909 30.6668M43.6364 23.8486V27.9395C43.6364 28.6628 43.349 29.3565 42.8376 29.868C42.3261 30.3794 41.6324 30.6668 40.9091 30.6668M19.0909 30.6668V41.5759C19.0909 42.2992 19.3783 42.9929 19.8897 43.5043C20.4012 44.0158 21.0949 44.3031 21.8182 44.3031H38.1818C38.9051 44.3031 39.5988 44.0158 40.1103 43.5043C40.6218 42.9929 40.9091 42.2992 40.9091 41.5759V30.6668M19.0909 30.6668C19.8876 30.6229 20.6486 30.3214 21.2591 29.8077C21.4218 29.6901 21.6174 29.6268 21.8182 29.6268C22.0189 29.6268 22.2146 29.6901 22.3773 29.8077C22.9878 30.3214 23.7487 30.6229 24.5455 30.6668C25.3422 30.6229 26.1031 30.3214 26.7136 29.8077C26.8764 29.6901 27.072 29.6268 27.2727 29.6268C27.4735 29.6268 27.6691 29.6901 27.8318 29.8077C28.4424 30.3214 29.2033 30.6229 30 30.6668C30.7967 30.6229 31.5577 30.3214 32.1682 29.8077C32.3309 29.6901 32.5265 29.6268 32.7273 29.6268C32.928 29.6268 33.1237 29.6901 33.2864 29.8077C33.8969 30.3214 34.6578 30.6229 35.4546 30.6668C36.2513 30.6229 37.0122 30.3214 37.6227 29.8077C37.7854 29.6901 37.9811 29.6268 38.1818 29.6268C38.3826 29.6268 38.5782 29.6901 38.7409 29.8077C39.3515 30.3214 40.1124 30.6229 40.9091 30.6668M34.0909 44.3031V38.8486C34.0909 38.1253 33.8036 37.4316 33.2921 36.9201C32.7807 36.4086 32.087 36.1213 31.3636 36.1213H28.6364C27.9131 36.1213 27.2194 36.4086 26.7079 36.9201C26.1964 37.4316 25.9091 38.1253 25.9091 38.8486V44.3031" stroke="#0078FF" stroke-width="2.72727" stroke-linecap="round" stroke-linejoin="round"/>
</svg>
