<svg width="62" height="60" viewBox="0 0 62 60" fill="none" xmlns="http://www.w3.org/2000/svg">
<rect x="-0.0012207" width="60" height="60" rx="30" fill="#E5F1FF"/>
<path d="M42.2715 35.4546H38.1806C37.4573 35.4546 36.7636 35.7419 36.2521 36.2534C35.7407 36.7648 35.4533 37.4585 35.4533 38.1818V42.2727M42.2715 42.2727V42.2864M29.9988 23.1818V27.2727C29.9988 27.9961 29.7115 28.6898 29.2 29.2012C28.6885 29.7127 27.9948 30 27.2715 30H23.1806M17.7261 30H17.7397M29.9988 17.7273H30.0124M29.9988 35.4546V35.4682M35.4533 30H36.817M42.2715 30V30.0137M29.9988 42.2727V40.9091M19.0897 17.7273H23.1806C23.9337 17.7273 24.5443 18.3378 24.5443 19.0909V23.1818C24.5443 23.935 23.9337 24.5455 23.1806 24.5455H19.0897C18.3366 24.5455 17.7261 23.935 17.7261 23.1818V19.0909C17.7261 18.3378 18.3366 17.7273 19.0897 17.7273ZM36.817 17.7273H40.9079C41.661 17.7273 42.2715 18.3378 42.2715 19.0909V23.1818C42.2715 23.935 41.661 24.5455 40.9079 24.5455H36.817C36.0639 24.5455 35.4533 23.935 35.4533 23.1818V19.0909C35.4533 18.3378 36.0639 17.7273 36.817 17.7273ZM19.0897 35.4546H23.1806C23.9337 35.4546 24.5443 36.0651 24.5443 36.8182V40.9091C24.5443 41.6622 23.9337 42.2727 23.1806 42.2727H19.0897C18.3366 42.2727 17.7261 41.6622 17.7261 40.9091V36.8182C17.7261 36.0651 18.3366 35.4546 19.0897 35.4546Z" stroke="#0078FF" stroke-width="2.72727" stroke-linecap="round" stroke-linejoin="round"/>
</svg>
