<svg width="24" height="24" viewBox="0 0 24 24" fill="none" xmlns="http://www.w3.org/2000/svg">
<path opacity="0.5" fill-rule="evenodd" clip-rule="evenodd" d="M19.5765 14.014L19.7595 12.3196C19.8559 11.4147 19.9206 10.818 19.8698 10.4412C19.6586 10.4385 19.4504 10.3911 19.2589 10.3019C19.0674 10.2128 18.8971 10.084 18.7591 9.92408C18.4339 10.124 18.0103 10.5466 17.3729 11.182C16.8807 11.6722 16.6351 11.9169 16.3606 11.9546C16.2085 11.9758 16.0536 11.9541 15.9131 11.892C15.6606 11.7806 15.4915 11.4783 15.1544 10.8727L13.3744 7.68172C13.1666 7.30882 12.9926 6.99558 12.8355 6.745C12.564 6.88322 12.2577 6.96078 11.9326 6.96078C11.6074 6.96078 11.3011 6.88322 11.0296 6.745C10.8725 6.99658 10.6985 7.30882 10.4897 7.68172L8.71071 10.8727C8.37261 11.4783 8.20357 11.7806 7.95099 11.892C7.81056 11.9541 7.65559 11.9758 7.50351 11.9546C7.23005 11.9169 6.98444 11.6722 6.49221 11.182C5.8548 10.5466 5.43119 10.124 5.10701 9.92408C4.96892 10.0841 4.7984 10.213 4.60673 10.3021C4.41507 10.3913 4.20664 10.4387 3.99528 10.4412C3.94456 10.8171 4.0092 11.4147 4.10565 12.3196L4.28862 14.014L4.37712 14.8593C4.62771 17.2806 4.83455 19.2844 5.67979 20.0401C6.62049 20.8823 8.03054 20.8823 10.8507 20.8823H13.0145C15.8346 20.8823 17.2446 20.8823 18.1853 20.0401C19.0306 19.2844 19.2374 17.2806 19.488 14.8593C19.5165 14.5828 19.5453 14.3011 19.5765 14.014Z" fill="#FFFDF9"/>
<path d="M19.8878 10.4411C20.2826 10.4388 20.6604 10.28 20.9383 9.99953C21.2162 9.71909 21.3716 9.33991 21.3704 8.94509C21.3693 8.55027 21.2116 8.17203 20.932 7.89327C20.6524 7.61451 20.2737 7.45797 19.8789 7.45797C19.484 7.45797 19.1053 7.61451 18.8257 7.89327C18.5461 8.17203 18.3884 8.55027 18.3873 8.94509C18.3861 9.33991 18.5415 9.71909 18.8194 9.99953C19.0973 10.28 19.4751 10.4388 19.8699 10.4411H19.8878ZM11.9326 2.98315C11.4052 2.98315 10.8993 3.19269 10.5263 3.56566C10.1534 3.93863 9.94382 4.44449 9.94382 4.97195C9.94382 5.49941 10.1534 6.00527 10.5263 6.37824C10.8993 6.75121 11.4052 6.96075 11.9326 6.96075C12.4601 6.96075 12.9659 6.75121 13.3389 6.37824C13.7119 6.00527 13.9214 5.49941 13.9214 4.97195C13.9214 4.44449 13.7119 3.93863 13.3389 3.56566C12.9659 3.19269 12.4601 2.98315 11.9326 2.98315ZM2.48584 8.94954C2.48584 9.34514 2.64299 9.72453 2.92272 10.0043C3.20245 10.284 3.58184 10.4411 3.97744 10.4411H3.99534C4.38807 10.4372 4.76333 10.2782 5.03937 9.99883C5.3154 9.71945 5.46984 9.34229 5.46903 8.94954C5.46903 8.55394 5.31188 8.17455 5.03215 7.89482C4.75243 7.61509 4.37303 7.45794 3.97744 7.45794C3.58184 7.45794 3.20245 7.61509 2.92272 7.89482C2.64299 8.17455 2.48584 8.55394 2.48584 8.94954ZM4.82168 18.1477C4.71917 17.6542 4.63756 17.1565 4.57706 16.6561H19.2882C19.2186 17.1981 19.141 17.7002 19.0436 18.1477H4.82168Z" fill="#FFFDF9"/>
<path opacity="0.5" fill-rule="evenodd" clip-rule="evenodd" d="M19.5765 14.0143L19.7595 12.3198C19.8559 11.4149 19.9206 10.8183 19.8698 10.4414C19.6586 10.4388 19.4504 10.3913 19.2589 10.3022C19.0674 10.213 18.8971 10.0842 18.7591 9.92433C18.4339 10.1242 18.0103 10.5468 17.3729 11.1822C16.8807 11.6725 16.6351 11.9171 16.3606 11.9549C16.2085 11.976 16.0536 11.9543 15.9131 11.8922C15.6606 11.7809 15.4915 11.4786 15.1544 10.873L13.3744 7.68196C13.1666 7.30906 12.9926 6.99583 12.8355 6.74524C12.564 6.88346 12.2577 6.96102 11.9326 6.96102C11.6074 6.96102 11.3011 6.88346 11.0296 6.74524C10.8725 6.99682 10.6985 7.30906 10.4897 7.68196L8.71071 10.873C8.37261 11.4786 8.20357 11.7809 7.95099 11.8922C7.81056 11.9543 7.65559 11.976 7.50351 11.9549C7.23005 11.9171 6.98444 11.6725 6.49221 11.1822C5.8548 10.5468 5.43119 10.1242 5.10701 9.92433C4.96892 10.0844 4.7984 10.2132 4.60673 10.3024C4.41507 10.3915 4.20664 10.4389 3.99528 10.4414C3.94456 10.8173 4.0092 11.4149 4.10565 12.3198L4.28862 14.0143L4.37712 14.8595C4.62771 17.2809 4.83455 19.2846 5.67979 20.0403C6.62049 20.8826 8.03054 20.8826 10.8507 20.8826H13.0145C15.8346 20.8826 17.2446 20.8826 18.1853 20.0403C19.0306 19.2846 19.2374 17.2809 19.488 14.8595C19.5165 14.5831 19.5453 14.3013 19.5765 14.0143Z" fill="#FFFDF9"/>
</svg>
