<svg width="48" height="47" viewBox="0 0 48 47" fill="none" xmlns="http://www.w3.org/2000/svg">
<rect x="0.5" y="0.5" width="47" height="45.75" rx="22.875" stroke="#F6F6F6"/>
<path d="M16.5 19C16.5 17.1435 17.2375 15.363 18.5503 14.0503C19.863 12.7375 21.6435 12 23.5 12C25.3565 12 27.137 12.7375 28.4497 14.0503C29.7625 15.363 30.5 17.1435 30.5 19V22.4032C30.5 23.2233 30.766 24.0213 31.2583 24.6782L33.65 27.8667C33.845 28.1267 33.9637 28.4358 33.9929 28.7595C34.0221 29.0832 33.9606 29.4086 33.8152 29.6993C33.6699 29.99 33.4465 30.2344 33.17 30.4053C32.8936 30.5762 32.575 30.6667 32.25 30.6667H14.75C14.425 30.6667 14.1064 30.5762 13.83 30.4053C13.5535 30.2344 13.3301 29.99 13.1848 29.6993C13.0394 29.4086 12.9779 29.0832 13.0071 28.7595C13.0363 28.4358 13.155 28.1267 13.35 27.8667L15.7417 24.6782C16.2339 24.0218 16.5 23.2236 16.5 22.4032V19ZM23.5 34.75C22.6205 34.7502 21.7644 34.4665 21.0591 33.9409C20.3539 33.4154 19.8371 32.6762 19.5858 31.8333H27.4142C27.1629 32.6762 26.6461 33.4154 25.9409 33.9409C25.2356 34.4665 24.3795 34.7502 23.5 34.75Z" fill="#0078FF"/>
<path d="M29.833 14.8229C31.5032 14.8229 32.917 16.1251 32.917 17.8024C32.9168 19.4795 31.5031 20.7809 29.833 20.7809C28.163 20.7807 26.7502 19.4794 26.75 17.8024C26.75 16.1252 28.1629 14.823 29.833 14.8229Z" fill="#00DEEB" stroke="white" stroke-width="1.5"/>
</svg>
