<svg width="16" height="15" viewBox="0 0 16 15" fill="none" xmlns="http://www.w3.org/2000/svg">
<path opacity="0.5" fill-rule="evenodd" clip-rule="evenodd" d="M15.6868 8.0932L15.8708 6.3892C15.9678 5.4792 16.0328 4.8792 15.9818 4.5002C15.7694 4.49755 15.56 4.44983 15.3675 4.36018C15.1749 4.27054 15.0036 4.14102 14.8648 3.9802C14.5378 4.1812 14.1118 4.6062 13.4708 5.2452C12.9758 5.7382 12.7288 5.9842 12.4528 6.0222C12.2999 6.04347 12.1441 6.02165 12.0028 5.9592C11.7488 5.8472 11.5788 5.5432 11.2398 4.9342L9.44984 1.7252C9.24084 1.3502 9.06584 1.0352 8.90784 0.783203C8.63484 0.922203 8.32684 1.0002 7.99984 1.0002C7.67284 1.0002 7.36484 0.922203 7.09184 0.783203C6.93384 1.0362 6.75884 1.3502 6.54884 1.7252L4.75984 4.9342C4.41984 5.5432 4.24984 5.8472 3.99584 5.9592C3.85462 6.02165 3.69878 6.04347 3.54584 6.0222C3.27084 5.9842 3.02384 5.7382 2.52884 5.2452C1.88784 4.6062 1.46184 4.1812 1.13584 3.9802C0.99697 4.14115 0.825482 4.27074 0.632737 4.36039C0.439993 4.45004 0.230395 4.4977 0.0178366 4.5002C-0.0331634 4.8782 0.0318367 5.4792 0.128837 6.3892L0.312837 8.0932L0.401836 8.9432C0.653836 11.3782 0.861836 13.3932 1.71184 14.1532C2.65784 15.0002 4.07584 15.0002 6.91184 15.0002H9.08784C11.9238 15.0002 13.3418 15.0002 14.2878 14.1532C15.1378 13.3932 15.3458 11.3782 15.5978 8.9432C15.6265 8.6652 15.6555 8.38187 15.6868 8.0932Z" fill="#FFC667"/>
</svg>
