<svg width="17" height="16" viewBox="0 0 17 16" fill="none" xmlns="http://www.w3.org/2000/svg">
<g id="wallet">
<path id="Vector" d="M13.1667 4.66667V2.66667C13.1667 2.48986 13.0964 2.32029 12.9714 2.19526C12.8464 2.07024 12.6768 2 12.5 2H3.83333C3.47971 2 3.14057 2.14048 2.89052 2.39052C2.64048 2.64057 2.5 2.97971 2.5 3.33333M2.5 3.33333C2.5 3.68696 2.64048 4.02609 2.89052 4.27614C3.14057 4.52619 3.47971 4.66667 3.83333 4.66667H13.8333C14.0101 4.66667 14.1797 4.7369 14.3047 4.86193C14.4298 4.98695 14.5 5.15652 14.5 5.33333V8M2.5 3.33333V12.6667C2.5 13.0203 2.64048 13.3594 2.89052 13.6095C3.14057 13.8595 3.47971 14 3.83333 14H13.8333C14.0101 14 14.1797 13.9298 14.3047 13.8047C14.4298 13.6797 14.5 13.5101 14.5 13.3333V10.6667M14.5 8H12.5C12.1464 8 11.8072 8.14048 11.5572 8.39052C11.3071 8.64057 11.1667 8.97971 11.1667 9.33333C11.1667 9.68696 11.3071 10.0261 11.5572 10.2761C11.8072 10.5262 12.1464 10.6667 12.5 10.6667H14.5M14.5 8C14.6768 8 14.8464 8.07024 14.9714 8.19526C15.0964 8.32029 15.1667 8.48986 15.1667 8.66667V10C15.1667 10.1768 15.0964 10.3464 14.9714 10.4714C14.8464 10.5964 14.6768 10.6667 14.5 10.6667" stroke="#0078FF" stroke-width="1.5" stroke-linecap="round" stroke-linejoin="round"/>
</g>
</svg>
