<svg xmlns="http://www.w3.org/2000/svg" xml:space="preserve" enable-background="new 0 0 73 82.7" viewBox="0 0 73 82.7">
    <path fill="#fea30b" fill-rule="evenodd" d="M52.5 43.6c-3.4-.5-4.9-.6-4.9-.6V30.5l6.4 1.6c3.4.7 5.1 3.2 5.1 6.2 0 3.1-2.6 5.8-6.6 5.3m13.7 5.1s3.9-4 3.9-11.5c0-6.3-4.1-13.2-11.5-15.9l-24-8.7-.1 42.5s0 6.2-6.7 7.5c-4.5.9-8.9-3.3-8.9-8.5V6.9L0 0v56c0 20 17.8 28.4 28.7 26.5 13-2.3 18.9-12.6 18.9-23.7v-3.9l9.2.3c3 0 5.3 2.7 5.3 5.5 0 2.5-1.7 5.2-5.3 5.5l-5.1.4c-.8 3.4-2.6 8.1-6.5 12.8L60 76.7c6-1.1 12.9-6.4 12.9-15.1.1-3.7-1.1-9.2-6.7-12.9" clip-rule="evenodd"/>
</svg>