<svg width="34" height="35" viewBox="0 0 34 35" fill="none" xmlns="http://www.w3.org/2000/svg">
<path d="M2.83398 11.7704H31.1673M2.83398 8.90556C2.83398 8.14576 3.1325 7.41708 3.66385 6.87983C4.1952 6.34257 4.91587 6.04074 5.66732 6.04074H28.334C29.0854 6.04074 29.8061 6.34257 30.3375 6.87983C30.8688 7.41708 31.1673 8.14576 31.1673 8.90556V26.0944C31.1673 26.8542 30.8688 27.5829 30.3375 28.1202C29.8061 28.6574 29.0854 28.9593 28.334 28.9593H5.66732C4.91587 28.9593 4.1952 28.6574 3.66385 28.1202C3.1325 27.5829 2.83398 26.8542 2.83398 26.0944V8.90556Z" stroke="#0078FF" stroke-width="3" stroke-linecap="round" stroke-linejoin="round"/>
<path d="M2.83398 17.5H12.7507C12.7507 18.9324 13.6007 21.7972 17.0007 21.7972C20.4007 21.7972 21.2507 18.9324 21.2507 17.5H31.1673" stroke="#0078FF" stroke-width="3" stroke-linecap="round" stroke-linejoin="round"/>
</svg>
