<svg xmlns="http://www.w3.org/2000/svg" fill="none" viewBox="0 0 72 61"><path fill="#6FBAF7" d="M65.034 30.63A34.5 34.5 0 0 1 61.3 46.316a3.489 3.489 0 0 0 2.583 5.042 3.471 3.471 0 0 0 3.606-1.86A41.451 41.451 0 0 0 72 30.63a41.448 41.448 0 0 0-4.497-18.84 3.47 3.47 0 0 0-4.95-1.362 3.49 3.49 0 0 0-1.24 4.541 34.502 34.502 0 0 1 3.721 15.661Zm-11.261 0a23.339 23.339 0 0 1-2.134 9.79 3.485 3.485 0 1 0 6.335 2.909 30.278 30.278 0 0 0 2.766-12.7 30.274 30.274 0 0 0-2.752-12.668 3.486 3.486 0 0 0-6.509.455c-.241.81-.18 1.68.173 2.448a23.342 23.342 0 0 1 2.12 9.765Z"/><path fill="#007CFF" d="M30.366 54.032a23.253 23.253 0 0 1-16.55-6.855 23.251 23.251 0 0 1-6.856-16.55 23.251 23.251 0 0 1 6.855-16.55A23.25 23.25 0 0 1 30.366 7.22a23.145 23.145 0 0 1 14.295 4.864 3.482 3.482 0 0 0 4.594-.279 3.472 3.472 0 0 0-.337-5.207A30.202 30.202 0 0 0 30.366.26a30.176 30.176 0 0 0-21.47 8.89A30.172 30.172 0 0 0 0 30.626a30.337 30.337 0 0 0 8.896 21.477A30.18 30.18 0 0 0 30.374 61a30.144 30.144 0 0 0 18.602-6.359 3.434 3.434 0 0 0 .316-5.132l-.074-.073a3.428 3.428 0 0 0-4.522-.289 23.315 23.315 0 0 1-14.33 4.885Z"/><path fill="#002CB8" d="M48.568 28.151a3.505 3.505 0 0 0-2.478-1.027l-12.195.014a3.508 3.508 0 0 0 .002 7.017h.022l8.15-.011a12.221 12.221 0 0 1-12.149 8.678c-6.59-.242-11.833-5.767-11.743-12.36a12.203 12.203 0 0 1 12.201-12.036 12.12 12.12 0 0 1 6.491 1.865 3.514 3.514 0 0 0 4.353-.508 3.491 3.491 0 0 0-.592-5.419c-4.17-2.64-9.258-3.597-14.413-2.524a18.954 18.954 0 0 0-14.645 14.75c-2.524 12.353 6.89 23.253 18.806 23.253a19.24 19.24 0 0 0 19.218-19.218 3.51 3.51 0 0 0-1.028-2.474Z"/></svg>