<svg width="84" height="83" viewBox="0 0 84 83" fill="none" xmlns="http://www.w3.org/2000/svg">
<path d="M69.6667 6.9165H14.3334C10.5292 6.9165 7.41675 10.029 7.41675 13.8332V76.0832L21.2501 62.2498H69.6667C73.4709 62.2498 76.5834 59.1373 76.5834 55.3332V13.8332C76.5834 10.029 73.4709 6.9165 69.6667 6.9165ZM45.4584 48.4165H38.5417V41.4998H45.4584V48.4165ZM51.6834 31.1248C50.6459 32.5082 49.2626 33.1998 47.8792 33.8915C46.8417 34.5832 46.4959 34.929 46.1501 35.6207C45.4584 36.3123 45.4584 37.004 45.4584 38.0415H38.5417C38.5417 36.3123 38.8876 35.2748 39.5792 34.2373C40.2709 33.5457 41.6542 32.5082 43.3834 31.4707C44.4209 31.1248 45.1126 30.4332 45.4584 29.7415C45.8042 29.0498 46.1501 28.0123 46.1501 27.3207C46.1501 26.2832 45.8042 25.5915 45.1126 24.8998C44.4209 24.2082 43.3834 23.8623 42.3459 23.8623C41.3084 23.8623 40.6167 24.2082 39.9251 24.554C39.2334 24.8998 38.8876 25.5915 38.8876 26.629H31.9709C32.3167 24.2082 33.3542 22.1332 35.0834 20.7498C36.8126 19.3665 39.2334 19.0207 42.3459 19.0207C45.4584 19.0207 48.2251 19.7123 49.9542 21.0957C51.6834 22.479 52.7209 24.554 52.7209 26.9748C53.0667 28.3582 52.7209 29.7415 51.6834 31.1248Z" fill="#BCDCFF"/>
</svg>
