<svg width="45" height="45" viewBox="0 0 45 45" fill="none" xmlns="http://www.w3.org/2000/svg">
<rect width="45" height="45" rx="21.9216" fill="#4CD9CC"/>
<circle cx="22.3856" cy="22.5" r="16.8856" fill="#4CD9CC"/>
<path d="M20.2109 25.7032V23.5313H22.9375C23.5469 23.5313 24.0208 23.3776 24.3594 23.0704C24.7031 22.7631 24.875 22.3178 24.875 21.7344V21.7188C24.875 21.1303 24.7031 20.6849 24.3594 20.3829C24.0208 20.0808 23.5469 19.9297 22.9375 19.9297H20.2109V17.7266H23.6328C24.4714 17.7266 25.2005 17.8933 25.8203 18.2266C26.4401 18.5547 26.9193 19.0183 27.2578 19.6172C27.6016 20.211 27.7734 20.9115 27.7734 21.7188V21.7344C27.7734 22.5365 27.6016 23.237 27.2578 23.836C26.9193 24.4297 26.4401 24.8907 25.8203 25.2188C25.2005 25.5417 24.4714 25.7032 23.6328 25.7032H20.2109ZM18.7734 29V17.7266H21.6406V29H18.7734Z" fill="white"/>
</svg>
