<svg width="34" height="35" viewBox="0 0 34 35" fill="none" xmlns="http://www.w3.org/2000/svg">
<path d="M7.08333 16.0833H12.75C14.3083 16.0833 15.5833 14.8083 15.5833 13.25V7.58333C15.5833 6.025 14.3083 4.75 12.75 4.75H7.08333C5.525 4.75 4.25 6.025 4.25 7.58333V13.25C4.25 14.8083 5.525 16.0833 7.08333 16.0833ZM7.08333 7.58333H12.75V13.25H7.08333V7.58333ZM7.08333 30.25H12.75C14.3083 30.25 15.5833 28.975 15.5833 27.4167V21.75C15.5833 20.1917 14.3083 18.9167 12.75 18.9167H7.08333C5.525 18.9167 4.25 20.1917 4.25 21.75V27.4167C4.25 28.975 5.525 30.25 7.08333 30.25ZM7.08333 21.75H12.75V27.4167H7.08333V21.75ZM18.4167 7.58333V13.25C18.4167 14.8083 19.6917 16.0833 21.25 16.0833H26.9167C28.475 16.0833 29.75 14.8083 29.75 13.25V7.58333C29.75 6.025 28.475 4.75 26.9167 4.75H21.25C19.6917 4.75 18.4167 6.025 18.4167 7.58333ZM26.9167 13.25H21.25V7.58333H26.9167V13.25ZM29.75 29.5417V28.125C29.75 27.7283 29.4383 27.4167 29.0417 27.4167H27.625C27.2283 27.4167 26.9167 27.7283 26.9167 28.125V29.5417C26.9167 29.9383 27.2283 30.25 27.625 30.25H29.0417C29.4383 30.25 29.75 29.9383 29.75 29.5417ZM18.4167 19.625V21.0417C18.4167 21.4383 18.7283 21.75 19.125 21.75H20.5417C20.9383 21.75 21.25 21.4383 21.25 21.0417V19.625C21.25 19.2283 20.9383 18.9167 20.5417 18.9167H19.125C18.7283 18.9167 18.4167 19.2283 18.4167 19.625ZM23.375 21.75H21.9583C21.5617 21.75 21.25 22.0617 21.25 22.4583V23.875C21.25 24.2717 21.5617 24.5833 21.9583 24.5833H23.375C23.7717 24.5833 24.0833 24.2717 24.0833 23.875V22.4583C24.0833 22.0617 23.7717 21.75 23.375 21.75ZM18.4167 25.2917V26.7083C18.4167 27.105 18.7283 27.4167 19.125 27.4167H20.5417C20.9383 27.4167 21.25 27.105 21.25 26.7083V25.2917C21.25 24.895 20.9383 24.5833 20.5417 24.5833H19.125C18.7283 24.5833 18.4167 24.895 18.4167 25.2917ZM21.9583 30.25H23.375C23.7717 30.25 24.0833 29.9383 24.0833 29.5417V28.125C24.0833 27.7283 23.7717 27.4167 23.375 27.4167H21.9583C21.5617 27.4167 21.25 27.7283 21.25 28.125V29.5417C21.25 29.9383 21.5617 30.25 21.9583 30.25ZM24.7917 27.4167H26.2083C26.605 27.4167 26.9167 27.105 26.9167 26.7083V25.2917C26.9167 24.895 26.605 24.5833 26.2083 24.5833H24.7917C24.395 24.5833 24.0833 24.895 24.0833 25.2917V26.7083C24.0833 27.105 24.395 27.4167 24.7917 27.4167ZM26.2083 18.9167H24.7917C24.395 18.9167 24.0833 19.2283 24.0833 19.625V21.0417C24.0833 21.4383 24.395 21.75 24.7917 21.75H26.2083C26.605 21.75 26.9167 21.4383 26.9167 21.0417V19.625C26.9167 19.2283 26.605 18.9167 26.2083 18.9167ZM27.625 24.5833H29.0417C29.4383 24.5833 29.75 24.2717 29.75 23.875V22.4583C29.75 22.0617 29.4383 21.75 29.0417 21.75H27.625C27.2283 21.75 26.9167 22.0617 26.9167 22.4583V23.875C26.9167 24.2717 27.2283 24.5833 27.625 24.5833Z" fill="#0078FF"/>
</svg>
