<svg width="68" height="68" viewBox="0 0 68 68" fill="none" xmlns="http://www.w3.org/2000/svg">
<rect width="68" height="68" rx="34" fill="white"/>
<path d="M42.9722 38.7217H39.1944C38.9336 38.7217 38.7222 38.9331 38.7222 39.1939V42.9717C38.7222 43.2325 38.9336 43.4439 39.1944 43.4439H42.9722C43.233 43.4439 43.4444 43.2325 43.4444 42.9717V39.1939C43.4444 38.9331 43.233 38.7217 42.9722 38.7217Z" fill="#62ACFF"/>
<path d="M38.2501 34.9443H35.4168C35.156 34.9443 34.9446 35.1558 34.9446 35.4166V38.2499C34.9446 38.5107 35.156 38.7221 35.4168 38.7221H38.2501C38.5109 38.7221 38.7224 38.5107 38.7224 38.2499V35.4166C38.7224 35.1558 38.5109 34.9443 38.2501 34.9443Z" fill="#62ACFF"/>
<path d="M46.7501 43.4443H43.9168C43.656 43.4443 43.4446 43.6558 43.4446 43.9166V46.7499C43.4446 47.0107 43.656 47.2221 43.9168 47.2221H46.7501C47.0109 47.2221 47.2224 47.0107 47.2224 46.7499V43.9166C47.2224 43.6558 47.0109 43.4443 46.7501 43.4443Z" fill="#62ACFF"/>
<path d="M46.75 34.9443H44.8611C44.6003 34.9443 44.3889 35.1558 44.3889 35.4166V37.3054C44.3889 37.5662 44.6003 37.7777 44.8611 37.7777H46.75C47.0108 37.7777 47.2222 37.5662 47.2222 37.3054V35.4166C47.2222 35.1558 47.0108 34.9443 46.75 34.9443Z" fill="#62ACFF"/>
<path d="M37.3057 44.3887H35.4168C35.156 44.3887 34.9446 44.6001 34.9446 44.8609V46.7498C34.9446 47.0106 35.156 47.222 35.4168 47.222H37.3057C37.5665 47.222 37.7779 47.0106 37.7779 46.7498V44.8609C37.7779 44.6001 37.5665 44.3887 37.3057 44.3887Z" fill="#62ACFF"/>
<path d="M45.3334 20.7773H36.8334C36.3324 20.7773 35.852 20.9764 35.4977 21.3306C35.1435 21.6848 34.9445 22.1653 34.9445 22.6662V31.1662C34.9445 31.6672 35.1435 32.1476 35.4977 32.5019C35.852 32.8561 36.3324 33.0551 36.8334 33.0551H45.3334C45.8344 33.0551 46.3148 32.8561 46.669 32.5019C47.0233 32.1476 47.2223 31.6672 47.2223 31.1662V22.6662C47.2223 22.1653 47.0233 21.6848 46.669 21.3306C46.3148 20.9764 45.8344 20.7773 45.3334 20.7773ZM43.4445 28.8051C43.4445 28.9304 43.3947 29.0505 43.3062 29.139C43.2176 29.2276 43.0975 29.2773 42.9723 29.2773H39.1945C39.0693 29.2773 38.9491 29.2276 38.8606 29.139C38.772 29.0505 38.7223 28.9304 38.7223 28.8051V25.0273C38.7223 24.9021 38.772 24.782 38.8606 24.6934C38.9491 24.6049 39.0693 24.5551 39.1945 24.5551H42.9723C43.0975 24.5551 43.2176 24.6049 43.3062 24.6934C43.3947 24.782 43.4445 24.9021 43.4445 25.0273V28.8051ZM31.1667 20.7773H22.6667C22.1658 20.7773 21.6853 20.9764 21.3311 21.3306C20.9768 21.6848 20.7778 22.1653 20.7778 22.6662V31.1662C20.7778 31.6672 20.9768 32.1476 21.3311 32.5019C21.6853 32.8561 22.1658 33.0551 22.6667 33.0551H31.1667C31.6677 33.0551 32.1481 32.8561 32.5024 32.5019C32.8566 32.1476 33.0556 31.6672 33.0556 31.1662V22.6662C33.0556 22.1653 32.8566 21.6848 32.5024 21.3306C32.1481 20.9764 31.6677 20.7773 31.1667 20.7773ZM29.2778 28.8051C29.2778 28.9304 29.2281 29.0505 29.1395 29.139C29.051 29.2276 28.9309 29.2773 28.8056 29.2773H25.0278C24.9026 29.2773 24.7825 29.2276 24.6939 29.139C24.6054 29.0505 24.5556 28.9304 24.5556 28.8051V25.0273C24.5556 24.9021 24.6054 24.782 24.6939 24.6934C24.7825 24.6049 24.9026 24.5551 25.0278 24.5551H28.8056C28.9309 24.5551 29.051 24.6049 29.1395 24.6934C29.2281 24.782 29.2778 24.9021 29.2778 25.0273V28.8051ZM31.1667 34.944H22.6667C22.1658 34.944 21.6853 35.143 21.3311 35.4973C20.9768 35.8515 20.7778 36.3319 20.7778 36.8329V45.3329C20.7778 45.8339 20.9768 46.3143 21.3311 46.6685C21.6853 47.0228 22.1658 47.2218 22.6667 47.2218H31.1667C31.6677 47.2218 32.1481 47.0228 32.5024 46.6685C32.8566 46.3143 33.0556 45.8339 33.0556 45.3329V36.8329C33.0556 36.3319 32.8566 35.8515 32.5024 35.4973C32.1481 35.143 31.6677 34.944 31.1667 34.944ZM29.2778 42.9718C29.2778 43.097 29.2281 43.2171 29.1395 43.3057C29.051 43.3943 28.9309 43.444 28.8056 43.444H25.0278C24.9026 43.444 24.7825 43.3943 24.6939 43.3057C24.6054 43.2171 24.5556 43.097 24.5556 42.9718V39.194C24.5556 39.0688 24.6054 38.9487 24.6939 38.8601C24.7825 38.7715 24.9026 38.7218 25.0278 38.7218H28.8056C28.9309 38.7218 29.051 38.7715 29.1395 38.8601C29.2281 38.9487 29.2778 39.0688 29.2778 39.194V42.9718Z" fill="#62ACFF"/>
</svg>
