<svg width="15" height="14" viewBox="0 0 15 14" fill="none" xmlns="http://www.w3.org/2000/svg">
<path id="Vector" d="M13.5 9.66331H11.5C11.1464 9.66331 10.8072 9.80379 10.5572 10.0538C10.3071 10.3039 10.1667 10.643 10.1667 10.9966V12.9966M13.5 12.9966V13.0033M7.5 3.66331V5.66331C7.5 6.01693 7.35952 6.35607 7.10948 6.60612C6.85943 6.85617 6.52029 6.99664 6.16667 6.99664H4.16667M1.5 6.99664H1.50667M7.5 0.996643H7.50667M7.5 9.66331V9.66998M10.1667 6.99664H10.8333M13.5 6.99664V7.00331M7.5 12.9966V12.33M2.16667 0.996643H4.16667C4.53486 0.996643 4.83333 1.29512 4.83333 1.66331V3.66331C4.83333 4.0315 4.53486 4.32998 4.16667 4.32998H2.16667C1.79848 4.32998 1.5 4.0315 1.5 3.66331V1.66331C1.5 1.29512 1.79848 0.996643 2.16667 0.996643ZM10.8333 0.996643H12.8333C13.2015 0.996643 13.5 1.29512 13.5 1.66331V3.66331C13.5 4.0315 13.2015 4.32998 12.8333 4.32998H10.8333C10.4651 4.32998 10.1667 4.0315 10.1667 3.66331V1.66331C10.1667 1.29512 10.4651 0.996643 10.8333 0.996643ZM2.16667 9.66331H4.16667C4.53486 9.66331 4.83333 9.96179 4.83333 10.33V12.33C4.83333 12.6982 4.53486 12.9966 4.16667 12.9966H2.16667C1.79848 12.9966 1.5 12.6982 1.5 12.33V10.33C1.5 9.96179 1.79848 9.66331 2.16667 9.66331Z" stroke="#0078FF" stroke-width="1.5" stroke-linecap="round" stroke-linejoin="round"/>
</svg>
