<svg width="19" height="20" viewBox="0 0 19 20" fill="none" xmlns="http://www.w3.org/2000/svg">
<path d="M7.125 1.6875C6.38798 1.68711 5.66897 1.91533 5.06708 2.34069C4.4652 2.76606 4.01005 3.36763 3.76438 4.0625H0V6.4375H3.76438C4.00972 7.13282 4.46469 7.73492 5.06659 8.16081C5.66848 8.5867 6.38767 8.81541 7.125 8.81541C7.86233 8.81541 8.58152 8.5867 9.18341 8.16081C9.78531 7.73492 10.2403 7.13282 10.4856 6.4375H19V4.0625H10.4856C10.24 3.36763 9.78481 2.76606 9.18292 2.34069C8.58103 1.91533 7.86202 1.68711 7.125 1.6875ZM5.9375 5.25C5.9375 4.93506 6.06261 4.63301 6.28531 4.41031C6.50801 4.18761 6.81006 4.0625 7.125 4.0625C7.43994 4.0625 7.74199 4.18761 7.96469 4.41031C8.18739 4.63301 8.3125 4.93506 8.3125 5.25C8.3125 5.56495 8.18739 5.86699 7.96469 6.08969C7.74199 6.31239 7.43994 6.4375 7.125 6.4375C6.81006 6.4375 6.50801 6.31239 6.28531 6.08969C6.06261 5.86699 5.9375 5.56495 5.9375 5.25ZM11.875 11.1875C11.138 11.1871 10.419 11.4153 9.81708 11.8407C9.21519 12.2661 8.76005 12.8676 8.51437 13.5625H0V15.9375H8.51437C8.75972 16.6328 9.21469 17.2349 9.81659 17.6608C10.4185 18.0867 11.1377 18.3154 11.875 18.3154C12.6123 18.3154 13.3315 18.0867 13.9334 17.6608C14.5353 17.2349 14.9903 16.6328 15.2356 15.9375H19V13.5625H15.2356C14.99 12.8676 14.5348 12.2661 13.9329 11.8407C13.331 11.4153 12.612 11.1871 11.875 11.1875ZM10.6875 14.75C10.6875 14.4351 10.8126 14.133 11.0353 13.9103C11.258 13.6876 11.5601 13.5625 11.875 13.5625C12.1899 13.5625 12.492 13.6876 12.7147 13.9103C12.9374 14.133 13.0625 14.4351 13.0625 14.75C13.0625 15.0649 12.9374 15.367 12.7147 15.5897C12.492 15.8124 12.1899 15.9375 11.875 15.9375C11.5601 15.9375 11.258 15.8124 11.0353 15.5897C10.8126 15.367 10.6875 15.0649 10.6875 14.75Z" fill="white"/>
</svg>
