<svg xmlns="http://www.w3.org/2000/svg" xml:space="preserve" viewBox="0 0 148 43"><path fill="#2ff19e" d="M33.2.2c-3.4 0-6.6 1.3-9 3.7l1.3 2.5-.5.4c-1.1-2-2.8-3.6-4.7-4.8C18.3.9 16.1.2 13.8.2 6.6.3.9 6.5.9 13.9v15.7c0 .1 0 .3.1.4 0 .1.1.2.2.3.1.1.2.2.3.2.1 0 .3.1.4.1H7c.1 0 .3 0 .4-.1.1 0 .2-.1.3-.2.1-.1.2-.2.2-.3.1-.1.1-.2.1-.3v-16c0-3.6 2.2-6.6 6-6.6 3.5 0 6 2.6 6 6.5v13.1c0 .1 0 .3.1.4 0 .1.1.2.2.3.1.1.2.2.3.2.1.1.2.1.4.1h4.9c.1 0 .3 0 .4-.1.1-.1.2-.1.3-.2.1-.1.2-.2.2-.3 0-.1.1-.3.1-.4V13.6c-.1-.8.1-1.7.3-2.5.3-.8.7-1.5 1.3-2.1.6-.6 1.3-1.1 2-1.4.8-.3 1.6-.5 2.4-.5 3.7 0 5.8 3 5.8 6.6v15.9c0 .3.1.5.3.7.2.2.4.3.7.3h5.1c.1 0 .3 0 .4-.1.1 0 .2-.1.3-.2.1-.1.2-.2.2-.3 0-.1.1-.3.1-.4V13.8C45.8 6.5 40.3.2 33.2.2zm46.4.6h-4.7c-.1 0-.3 0-.4.1-.1 0-.2.1-.3.2-.1.1-.2.2-.2.3s-.1.3-.1.4v.6L75.6 5l-.5.4c-1.4-1.6-3.1-2.9-5-3.8C68.2.7 66.1.2 64 .2 60 .4 56.2 2.1 53.5 5s-4.3 6.7-4.3 10.6 1.5 7.8 4.2 10.7c2.7 2.9 6.5 4.6 10.4 4.8 2.1 0 4.2-.5 6.2-1.4 1.9-.9 3.7-2.2 5-3.8l.4.3-1.7 2.7v.6c0 .1 0 .3.1.4.1.1.1.2.2.3.1.1.2.2.3.2.1.1.3.1.4.1h4.8c.1 0 .3 0 .4-.1.1 0 .2-.1.3-.2.1-.1.2-.2.2-.3 0-.1.1-.3.1-.4V1.8c0-.1 0-.3-.1-.4 0-.1-.1-.2-.2-.3-.1-.1-.2-.2-.3-.2-.1-.1-.2-.1-.3-.1zM63.8 24.5c-2.3 0-4.6-.9-6.2-2.6-1.7-1.6-2.6-3.9-2.6-6.2s.9-4.6 2.6-6.2c1.7-1.7 3.9-2.6 6.2-2.6 2.3 0 4.6.9 6.2 2.6 1.7 1.7 2.6 3.9 2.6 6.2s-.9 4.6-2.6 6.2c-1.6 1.7-3.8 2.6-6.2 2.6zM146.7.8H142c-.1 0-.3 0-.4.1-.1 0-.2.1-.3.2-.1.1-.2.2-.2.3-.1.1-.1.3-.1.4v.6l1.7 2.6-.5.4c-1.4-1.6-3.1-2.9-5-3.8-1.9-.9-4-1.4-6.1-1.4-4.1 0-8 1.6-10.9 4.5-2.9 2.9-4.5 6.8-4.5 10.9 0 4.1 1.6 8 4.5 10.9S127 31 131.1 31c2.1 0 4.2-.5 6.2-1.4 1.9-.9 3.7-2.2 5-3.8l.4.3L141 29v.6c0 .1 0 .3.1.4.1.1.1.2.2.3.1.1.2.2.3.2.1.1.3.1.4.1h4.7c.1 0 .3 0 .4-.1.1 0 .2-.1.3-.2.1-.1.2-.2.2-.3 0-.1.1-.3.1-.4V1.8c0-.1 0-.3-.1-.4 0-.1-.1-.2-.2-.3-.1-.1-.2-.2-.3-.2-.2-.1-.3-.1-.4-.1zM131 24.5c-2.3 0-4.6-.9-6.2-2.6s-2.6-3.9-2.6-6.2.9-4.6 2.6-6.2c1.7-1.7 3.9-2.6 6.2-2.6 2.3 0 4.6.9 6.2 2.6 1.6 1.7 2.6 3.9 2.6 6.2s-.9 4.6-2.6 6.2c-1.6 1.7-3.9 2.6-6.2 2.6zM111.7.8h-4.8c-.8 0-1.2.4-1.2.8v14.5c.1 1-.1 2-.4 3-.4 1-.9 1.8-1.6 2.5-.7.7-1.6 1.3-2.5 1.7s-2 .5-3 .5c-4.2 0-7-3.1-7-7.7V1.7c0-.4-.7-.8-1.1-.8h-5.2c-.2 0-.4.1-.6.3-.2.2-.2.4-.3.6v14.4c0 3.8 1.4 7.4 4 10.1 2.6 2.7 6.2 4.3 10 4.3 3.6 0 7.1-1.3 9.8-3.7l.3.2L106 30v1.2c0 3-4.5 4.6-7.1 4.6h-1.7c-.1 0-.3 0-.4.1-.1 0-.2.1-.3.2s-.2.2-.2.3c-.1.1-.1.3-.1.4v4.7c0 .3.1.5.3.7.2.2.5.3.7.3h1.7c8 0 13.8-4.6 13.8-13.4V1.7c0-.2-.2-.5-.3-.6-.2-.2-.5-.3-.7-.3z"/></svg>